<svg width="445" height="334" viewBox="0 0 445 334" fill="none" xmlns="http://www.w3.org/2000/svg">
<g clip-path="url(#clip0_282_67136)">
<path d="M366.806 233.04C370.464 209.588 394.97 196.852 404.728 176.055C414.487 155.259 418.935 126.767 412.232 101.845C395.598 40.0628 298.411 5.23192 195.135 24.161C91.8587 43.09 21.9023 108.596 38.5361 170.379C41.8988 182.545 48.0909 193.743 56.6069 203.06C54.2002 209.872 53.0508 217.064 53.2148 224.287C54.8882 275.81 127.195 319.937 214.595 322.417C261.281 323.787 314.091 313.779 347.045 282.719C362.516 268.156 365.346 256.28 366.418 236.617C366.445 235.416 366.575 234.219 366.806 233.04Z" fill="#F6F9FE"/>
<path d="M297.767 187.973H287.862V205.02H270.931V187.973H235.802V175.88L271.852 122.784H287.862V174.498H297.767V187.973ZM270.931 160.561C270.931 158.795 270.969 156.645 271.046 154.112C271.123 151.578 271.199 149.236 271.276 147.086C271.43 144.859 271.545 143.4 271.622 142.709H271.161C270.47 144.245 269.74 145.742 268.973 147.201C268.205 148.66 267.283 150.157 266.208 151.693L251.12 174.498H270.931V160.561ZM361.375 163.902C361.375 172.732 360.415 180.295 358.495 186.591C356.652 192.888 353.619 197.725 349.396 201.104C345.25 204.482 339.645 206.171 332.581 206.171C322.675 206.171 315.419 202.447 310.812 194.999C306.205 187.474 303.902 177.108 303.902 163.902C303.902 154.995 304.823 147.393 306.666 141.097C308.509 134.8 311.542 129.963 315.765 126.584C319.988 123.206 325.593 121.517 332.581 121.517C342.409 121.517 349.665 125.241 354.349 132.689C359.033 140.137 361.375 150.541 361.375 163.902ZM321.178 163.902C321.178 173.269 321.984 180.333 323.597 185.094C325.209 189.778 328.204 192.12 332.581 192.12C336.881 192.12 339.875 189.778 341.564 185.094C343.254 180.41 344.098 173.346 344.098 163.902C344.098 154.534 343.254 147.47 341.564 142.709C339.875 137.948 336.881 135.568 332.581 135.568C328.204 135.568 325.209 137.948 323.597 142.709C321.984 147.47 321.178 154.534 321.178 163.902ZM429.59 187.973H419.685V205.02H402.754V187.973H367.625V175.88L403.675 122.784H419.685V174.498H429.59V187.973ZM402.754 160.561C402.754 158.795 402.792 156.645 402.869 154.112C402.946 151.578 403.022 149.236 403.099 147.086C403.253 144.859 403.368 143.4 403.445 142.709H402.984C402.293 144.245 401.563 145.742 400.796 147.201C400.028 148.66 399.106 150.157 398.031 151.693L382.943 174.498H402.754V160.561Z" fill="#93BBED"/>
<path d="M321.267 332.79H-0.179688L44.4948 277.47H276.767L321.267 332.79Z" fill="#FFD580"/>
<path d="M68.3985 277.47L30.8789 332.79H23.375L65.7809 277.47H68.3985Z" fill="white"/>
<path d="M81.6613 277.47L47.2829 332.79H44.3162L80.6143 277.47H81.6613Z" fill="white"/>
<path d="M101.906 277.47L79.743 332.79H77.1254L100.684 277.47H101.906Z" fill="white"/>
<path d="M144.482 277.47L132.964 332.79H130.521L143.261 277.47H144.482Z" fill="white"/>
<path d="M183.049 332.79H180.606L175.894 277.47H177.115L183.049 332.79Z" fill="white"/>
<path d="M89.8633 277.47L56.8809 332.79H52.1691L87.9436 277.47H89.8633Z" fill="white"/>
<path d="M127.381 277.47L107.487 332.79H103.125L125.636 277.47H127.381Z" fill="white"/>
<path d="M209.402 332.79H202.771L194.395 277.47H197.536L209.402 332.79Z" fill="white"/>
<path d="M173.455 332.79H162.635L164.904 277.47H169.267L173.455 332.79Z" fill="white"/>
<path d="M246.748 332.79H243.955L222.316 277.47H223.712L246.748 332.79Z" fill="white"/>
<path d="M302.588 332.79H294.386L257.564 277.471H260.88L302.588 332.79Z" fill="white"/>
<path d="M280.947 332.79H277.806L243.951 277.471H245.347L280.947 332.79Z" fill="white"/>
<path d="M273.1 332.79H268.039L235.58 277.471H237.849L273.1 332.79Z" fill="white"/>
<path d="M228.249 332.79H223.712L206.61 277.47H208.879L228.249 332.79Z" fill="white"/>
<path d="M251.643 11.8668C254.61 11.8668 256.879 18.3236 259.496 25.8276C262.986 35.9491 263.161 42.057 264.557 50.7825C266.731 62.8635 270.002 74.7211 274.33 86.208C277.145 94.4631 279.019 103.01 279.914 111.686C277.811 112.356 275.649 112.823 273.457 113.082C270.411 113.023 267.4 112.432 264.557 111.337C260.718 109.767 253.388 109.592 238.206 116.049C235.457 95.9577 235.457 75.5856 238.206 55.4942C240.3 39.7883 245.71 11.6923 251.643 11.8668Z" fill="#2263B4"/>
<path d="M255.661 73.6433C256.534 63.1727 255.487 52.5276 256.01 41.8825C256.185 39.0903 254.44 11.5178 251.648 11.8668L235.767 13.6119C221.085 15.0408 206.299 15.0408 191.616 13.6119C181.766 12.5366 171.846 12.2448 161.95 12.7394C155.144 12.9139 147.64 12.5648 140.834 12.9139C134.028 13.2629 127.571 12.2158 120.591 12.7394L110.993 13.2629H102.965C103.314 17.1021 103.14 21.2903 103.14 25.3041C103.14 29.3178 102.965 35.7747 101.918 55.8433C100.871 75.9119 99.6496 97.3766 98.079 118.143C97.032 132.628 96.1594 151.998 97.73 166.657C100.522 190.914 103.314 211.157 96.8575 242.045C95.4614 248.328 93.8908 253.388 92.8438 256.704H105.932C118.918 255.384 131.984 255.034 145.022 255.657C155.842 256.006 165.614 257.228 175.561 258.449C175.561 258.449 219.712 261.939 251.997 258.624C251.473 252.167 250.95 243.965 250.601 234.716C250.426 229.481 250.077 216.567 251.124 185.853C252.52 148.508 252.171 111.163 255.661 73.6433Z" fill="#387BCE"/>
<g opacity="0.1">
<path d="M181.184 16.6424L174.03 16.5799L173.92 29.1965L181.074 29.2589L181.184 16.6424Z" fill="white"/>
<path d="M114.181 16.2321L107.027 16.1697L106.916 28.7863L114.071 28.8487L114.181 16.2321Z" fill="white"/>
<path d="M248.015 17.2256L240.86 17.1632L240.75 29.7797L247.904 29.8422L248.015 17.2256Z" fill="white"/>
<path d="M179.781 117.491L172.626 117.429L172.516 130.046L179.671 130.108L179.781 117.491Z" fill="white"/>
<path d="M172.35 129.819L165.195 129.756L165.085 142.373L172.239 142.435L172.35 129.819Z" fill="white"/>
<path d="M186.551 130.059L179.396 129.987L179.27 142.604L186.425 142.676L186.551 130.059Z" fill="white"/>
<path d="M179.404 141.222L172.249 141.16L172.139 153.777L179.294 153.839L179.404 141.222Z" fill="white"/>
<path d="M179.914 82.7684L172.759 82.706L172.649 95.3226L179.804 95.385L179.914 82.7684Z" fill="white"/>
<path d="M172.677 92.2618L165.523 92.1903L165.396 104.807L172.551 104.879L172.677 92.2618Z" fill="white"/>
<path d="M165.625 100.443L158.471 100.38L158.361 112.997L165.515 113.059L165.625 100.443Z" fill="white"/>
<path d="M158.558 109.978L151.404 109.916L151.294 122.532L158.448 122.595L158.558 109.978Z" fill="white"/>
<path d="M151.314 120.735L144.159 120.672L144.049 133.289L151.204 133.351L151.314 120.735Z" fill="white"/>
<path d="M144.242 130.619L137.088 130.557L136.978 143.173L144.132 143.236L144.242 130.619Z" fill="white"/>
<path d="M179.665 104.071L186.82 104.134L186.93 91.5173L179.775 91.4549L179.665 104.071Z" fill="white"/>
<path d="M186.723 112.56L193.878 112.623L193.988 100.006L186.833 99.9437L186.723 112.56Z" fill="white"/>
<path d="M193.792 122.621L200.947 122.684L201.057 110.067L193.902 110.005L193.792 122.621Z" fill="white"/>
<path d="M200.688 133.729L207.843 133.792L207.953 121.175L200.798 121.113L200.688 133.729Z" fill="white"/>
<path d="M207.763 143.791L214.918 143.853L215.028 131.236L207.873 131.174L207.763 143.791Z" fill="white"/>
<path d="M179.064 180.134L171.909 180.071L171.799 192.688L178.954 192.75L179.064 180.134Z" fill="white"/>
<path d="M171.986 171.522L164.831 171.46L164.721 184.076L171.875 184.139L171.986 171.522Z" fill="white"/>
<path d="M165.259 161.863L158.104 161.801L157.994 174.418L165.149 174.48L165.259 161.863Z" fill="white"/>
<path d="M158.191 151.856L151.037 151.793L150.927 164.41L158.081 164.472L158.191 151.856Z" fill="white"/>
<path d="M151.128 142.023L143.973 141.96L143.863 154.577L151.018 154.639L151.128 142.023Z" fill="white"/>
<path d="M144.242 130.794L137.088 130.731L136.978 143.348L144.132 143.41L144.242 130.794Z" fill="white"/>
<path d="M178.965 184.006L186.119 184.068L186.229 171.452L179.075 171.389L178.965 184.006Z" fill="white"/>
<path d="M186.391 174.694L193.546 174.757L193.656 162.14L186.501 162.078L186.391 174.694Z" fill="white"/>
<path d="M193.461 164.683L200.616 164.745L200.726 152.129L193.571 152.066L193.461 164.683Z" fill="white"/>
<path d="M200.525 154.498L207.68 154.561L207.79 141.944L200.635 141.882L200.525 154.498Z" fill="white"/>
<path d="M207.818 143.585L214.973 143.657L215.1 131.04L207.945 130.968L207.818 143.585Z" fill="white"/>
<path d="M134.248 16.7563L127.093 16.6938L126.983 29.3104L134.137 29.3728L134.248 16.7563Z" fill="white"/>
<path d="M127.182 26.466L120.028 26.4036L119.917 39.0201L127.072 39.0826L127.182 26.466Z" fill="white"/>
<path d="M119.938 36.5247L112.783 36.4623L112.673 49.0789L119.828 49.1413L119.938 36.5247Z" fill="white"/>
<path d="M119.65 69.6773L112.495 69.6149L112.385 82.2314L119.54 82.2939L119.65 69.6773Z" fill="white"/>
<path d="M126.554 77.9398L119.399 77.8774L119.289 90.494L126.444 90.5564L126.554 77.9398Z" fill="white"/>
<path d="M133.438 89.518L126.283 89.4555L126.173 102.072L133.328 102.135L133.438 89.518Z" fill="white"/>
<path d="M140.788 78.8717L133.633 78.8001L133.506 91.4172L140.661 91.4887L140.788 78.8717Z" fill="white"/>
<path d="M112.698 46.5835L105.543 46.5211L105.433 59.1376L112.588 59.2001L112.698 46.5835Z" fill="white"/>
<path d="M112.587 59.1462L105.432 59.0838L105.322 71.7003L112.477 71.7628L112.587 59.1462Z" fill="white"/>
<path d="M168.233 26.5257H162.648L162.823 16.7532L130.713 16.4041L130.539 29.1434H141.358L141.184 67.012H148.164L148.339 55.8434H155.319L155.493 47.6414H162.474L162.648 39.0904L168.058 39.2649L168.233 26.5257Z" fill="white"/>
<path d="M156.461 30.7354L149.306 30.673L149.196 43.2895L156.351 43.352L156.461 30.7354Z" fill="white"/>
<path d="M131.662 53.0301L124.508 52.9676L124.398 65.5842L131.552 65.6467L131.662 53.0301Z" fill="white"/>
<path d="M112.406 99.4534L105.252 99.3909L105.142 112.008L112.296 112.07L112.406 99.4534Z" fill="white"/>
<path d="M119.143 107.89L111.989 107.828L111.879 120.445L119.033 120.507L119.143 107.89Z" fill="white"/>
<path d="M111.46 168.376L104.306 168.314L104.196 180.93L111.35 180.993L111.46 168.376Z" fill="white"/>
<path d="M118.621 160.774L111.466 160.703L111.34 173.32L118.495 173.391L118.621 160.774Z" fill="white"/>
<path d="M119.195 117.271L119.021 129.137V130.01L118.846 140.481V153.045L118.672 164.388H125.827L126.001 153.22V140.481L126.176 130.01V117.445L119.195 117.271Z" fill="white"/>
<path d="M221.251 29.887L228.405 29.9494L228.515 17.3329L221.361 17.2704L221.251 29.887Z" fill="white"/>
<path d="M228.318 39.599L235.473 39.6615L235.583 27.0449L228.428 26.9824L228.318 39.599Z" fill="white"/>
<path d="M235.389 49.8346L242.543 49.897L242.653 37.2804L235.499 37.218L235.389 49.8346Z" fill="white"/>
<path d="M235.153 83.3447L242.307 83.4072L242.418 70.7906L235.263 70.7282L235.153 83.3447Z" fill="white"/>
<path d="M227.899 91.9585L235.054 92.0209L235.164 79.4044L228.009 79.3419L227.899 91.9585Z" fill="white"/>
<path d="M220.839 102.143L227.993 102.205L228.103 89.5888L220.949 89.5263L220.839 102.143Z" fill="white"/>
<path d="M213.757 91.0348L220.912 91.0972L221.022 78.4806L213.867 78.4182L213.757 91.0348Z" fill="white"/>
<path d="M242.456 59.7211L249.611 59.7835L249.721 47.167L242.566 47.1045L242.456 59.7211Z" fill="white"/>
<path d="M242.042 72.9843L249.197 73.0467L249.307 60.4302L242.152 60.3677L242.042 72.9843Z" fill="white"/>
<path d="M187.429 26.7002L192.839 26.8747V16.9277L225.123 17.2767L224.948 29.8414H214.129L213.78 67.71L206.625 67.5355L206.799 56.3669H199.644V47.9904H192.664V39.4394H187.254L187.429 26.7002Z" fill="white"/>
<path d="M198.857 43.5212L206.011 43.5837L206.121 30.9671L198.967 30.9046L198.857 43.5212Z" fill="white"/>
<path d="M223.495 65.1796L230.65 65.2512L230.776 52.6341L223.621 52.5626L223.495 65.1796Z" fill="white"/>
<path d="M179.224 241.56L172.07 241.498L171.96 254.114L179.114 254.177L179.224 241.56Z" fill="white"/>
<path d="M112.467 240.563L105.312 240.513L105.224 253.129L112.379 253.179L112.467 240.563Z" fill="white"/>
<path d="M245.72 243.108L238.565 243.037L238.439 255.654L245.594 255.725L245.72 243.108Z" fill="white"/>
<path d="M132.288 241.325L125.133 241.263L125.023 253.879L132.178 253.942L132.288 241.325Z" fill="white"/>
<path d="M125.218 231.492L118.064 231.43L117.954 244.046L125.108 244.109L125.218 231.492Z" fill="white"/>
<path d="M118.33 220.61L111.175 220.548L111.065 233.164L118.22 233.227L118.33 220.61Z" fill="white"/>
<path d="M118.617 187.632L111.463 187.57L111.353 200.186L118.507 200.249L118.617 187.632Z" fill="white"/>
<path d="M125.672 179.493L118.518 179.431L118.407 192.047L125.562 192.11L125.672 179.493Z" fill="white"/>
<path d="M132.921 168.213L125.767 168.15L125.656 180.767L132.811 180.829L132.921 168.213Z" fill="white"/>
<path d="M139.977 179.616L132.822 179.554L132.712 192.171L139.867 192.233L139.977 179.616Z" fill="white"/>
<path d="M110.875 211.621L103.72 211.55L103.594 224.167L110.749 224.238L110.875 211.621Z" fill="white"/>
<path d="M111.371 198.564L104.217 198.501L104.107 211.118L111.261 211.18L111.371 198.564Z" fill="white"/>
<path d="M166.313 244.139H160.903L160.729 253.912L128.619 253.563V240.998L139.613 241.173L139.962 203.304H146.943V214.473L153.923 214.647V222.849L161.078 223.024L160.903 231.575H166.313V244.139Z" fill="white"/>
<path d="M154.568 227.734L147.414 227.672L147.304 240.288L154.458 240.351L154.568 227.734Z" fill="white"/>
<path d="M130.336 204.487L123.181 204.424L123.071 217.041L130.226 217.103L130.336 204.487Z" fill="white"/>
<path d="M219.706 253.392L226.861 253.463L226.987 240.846L219.832 240.775L219.706 253.392Z" fill="white"/>
<path d="M226.616 244.322L233.77 244.384L233.88 231.768L226.726 231.705L226.616 244.322Z" fill="white"/>
<path d="M233.855 234.138L241.01 234.2L241.12 221.584L233.966 221.521L233.855 234.138Z" fill="white"/>
<path d="M234.266 201.153L241.42 201.215L241.53 188.598L234.376 188.536L234.266 201.153Z" fill="white"/>
<path d="M227.034 192.837L234.189 192.899L234.299 180.283L227.144 180.22L227.034 192.837Z" fill="white"/>
<path d="M220.132 181.379L227.287 181.442L227.397 168.825L220.242 168.763L220.132 181.379Z" fill="white"/>
<path d="M212.727 193.135L219.882 193.197L219.992 180.58L212.837 180.518L212.727 193.135Z" fill="white"/>
<path d="M241.1 224.302L248.254 224.365L248.365 211.748L241.21 211.686L241.1 224.302Z" fill="white"/>
<path d="M240.99 211.561L248.145 211.623L248.255 199.007L241.1 198.944L240.99 211.561Z" fill="white"/>
<path d="M185.509 244.314H190.919L190.744 254.261L223.029 254.436V241.871L212.209 241.696L212.558 203.828H205.403V214.996H198.248V223.198H191.093V231.749H185.509V244.314Z" fill="white"/>
<path d="M197.259 240.042L204.413 240.104L204.524 227.488L197.369 227.425L197.259 240.042Z" fill="white"/>
<path d="M222.021 217.835L229.176 217.898L229.286 205.281L222.131 205.219L222.021 217.835Z" fill="white"/>
<path d="M117.625 134.024L111.866 133.849L112.041 122.681H104.886V134.024L104.711 135.245V146.588L104.537 157.932H111.692L111.866 146.763V146.588H117.45L117.625 134.024Z" fill="white"/>
<path d="M240.304 112.965L247.459 113.028L247.569 100.411L240.414 100.349L240.304 112.965Z" fill="white"/>
<path d="M233.042 121.23L240.196 121.292L240.306 108.676L233.152 108.613L233.042 121.23Z" fill="white"/>
<path d="M239.854 181.382L247.009 181.444L247.119 168.828L239.964 168.765L239.854 181.382Z" fill="white"/>
<path d="M232.63 174.288L239.785 174.35L239.895 161.733L232.741 161.671L232.63 174.288Z" fill="white"/>
<path d="M233.15 118.318V130.883L232.976 141.353V154.092L232.801 165.261H225.646L225.821 153.918V152.696L225.995 142.575V130.01L226.17 118.318H233.15Z" fill="white"/>
<path d="M234.546 134.896L240.131 135.071L240.305 123.902H247.286V136.467L247.111 146.588V159.153H239.956L240.131 147.81V147.636H234.372L234.546 134.896Z" fill="white"/>
<path d="M214.478 102.961L214.652 93.1885H207.497L207.672 82.5434H201.739L201.913 71.2002H194.758L194.933 61.2532L187.778 61.0786L187.952 50.259H181.67V40.312H174.69L174.515 50.0845H168.233V60.5551H161.078V71.7237H155.319L155.144 81.8453L147.99 81.6708V92.6649L140.835 92.4904V104.008H134.378L134.203 116.573L141.358 116.747L141.533 105.23H147.815L147.99 94.41H154.97L155.144 84.2885L162.299 84.463V73.1198H168.058L168.233 62.6492L175.213 62.8237L175.388 52.8767L180.797 53.0512V62.8237H187.778V73.8179H194.758V83.7649L200.517 83.9394L200.342 95.1081L207.497 95.2826L207.323 105.753H213.605V115.526L220.586 115.7L220.76 102.961H214.478Z" fill="white"/>
<path d="M213.954 168.577L213.78 178.349H206.799L206.625 188.82H200.866V199.988H193.711L193.537 209.936H186.556L186.382 220.93L180.099 220.755V230.528H172.944L173.119 220.755H166.837V210.11H159.856V198.767H154.097L154.272 188.82L147.117 188.645L147.292 177.826H140.137L140.311 166.134H133.854L134.029 153.569H141.009V165.086L147.292 165.261V176.081H154.272V186.202H161.252V197.545H167.011V208.016L173.992 208.19V217.963H179.401V208.19H186.556V197.371H193.711L193.886 187.424H199.644V176.081L206.799 176.255V165.61L213.082 165.785L213.256 156.012H220.237V168.577H213.954Z" fill="white"/>
</g>
<path d="M276.775 111.163C276.457 111.398 276.22 111.725 276.095 112.099C275.97 112.474 275.964 112.878 276.077 113.257C276.183 113.596 276.39 113.895 276.671 114.113C276.952 114.332 277.292 114.459 277.648 114.478C277.889 114.353 278.101 114.178 278.27 113.964C278.439 113.751 278.56 113.504 278.626 113.24C278.692 112.976 278.701 112.701 278.653 112.433C278.605 112.165 278.5 111.911 278.346 111.686C278.17 111.479 277.948 111.316 277.698 111.209C277.448 111.103 277.177 111.056 276.906 111.073C276.635 111.09 276.371 111.17 276.136 111.307C275.902 111.444 275.702 111.633 275.553 111.861L276.775 111.163Z" fill="#275EA2"/>
<path d="M275.555 115.875C274.965 117.271 274.555 118.737 274.333 120.237C274.26 121.759 274.758 123.252 275.729 124.426V122.68L278.173 127.392C278.173 126.869 277.998 126.345 277.998 125.822L279.045 128.265C279.045 126.171 278.871 124.076 278.871 122.157L279.918 124.949C279.973 122.074 279.68 119.203 279.045 116.398C278.871 115.526 278.347 113.082 277.126 112.908C275.904 112.733 276.078 114.827 275.555 115.875Z" fill="#275EA2"/>
<path d="M271.198 111.163C270.881 111.398 270.643 111.725 270.518 112.099C270.393 112.474 270.387 112.878 270.5 113.257C270.616 113.625 270.849 113.944 271.165 114.165C271.481 114.386 271.861 114.496 272.246 114.478C272.473 114.338 272.669 114.152 272.821 113.931C272.972 113.711 273.076 113.461 273.125 113.198C273.174 112.935 273.168 112.665 273.107 112.405C273.045 112.144 272.93 111.9 272.769 111.686C272.593 111.479 272.372 111.316 272.122 111.209C271.872 111.103 271.6 111.056 271.329 111.073C271.058 111.09 270.795 111.17 270.56 111.307C270.325 111.444 270.125 111.633 269.977 111.861L271.198 111.163Z" fill="#275EA2"/>
<path d="M270.15 115.875C269.482 117.243 269.068 118.721 268.928 120.237C268.819 120.982 268.871 121.742 269.082 122.465C269.293 123.187 269.657 123.856 270.15 124.426V122.68C271.022 124.251 271.895 125.822 272.593 127.392C272.62 126.863 272.562 126.332 272.418 125.822L273.466 128.265C273.466 126.171 273.291 124.076 273.291 122.157L274.338 124.949C274.482 122.071 274.188 119.188 273.466 116.398C273.291 115.526 272.768 113.082 271.546 112.908C270.324 112.733 270.499 114.827 270.15 115.875Z" fill="#275EA2"/>
<path d="M266.477 109.592C266.128 109.768 265.841 110.045 265.654 110.388C265.467 110.731 265.389 111.123 265.43 111.512C265.528 111.872 265.729 112.196 266.007 112.444C266.286 112.692 266.632 112.853 267.001 112.908C267.252 112.82 267.48 112.675 267.667 112.486C267.854 112.296 267.995 112.066 268.079 111.813C268.163 111.56 268.188 111.292 268.153 111.028C268.117 110.764 268.021 110.512 267.873 110.29C267.711 110.074 267.5 109.898 267.258 109.777C267.015 109.655 266.748 109.592 266.477 109.592C266.206 109.592 265.939 109.655 265.697 109.777C265.454 109.898 265.244 110.074 265.081 110.29L266.477 109.592Z" fill="#275EA2"/>
<path d="M264.735 114.129C263.873 115.391 263.279 116.817 262.99 118.318C262.756 119.049 262.697 119.825 262.818 120.582C262.939 121.34 263.237 122.059 263.688 122.68C263.688 121.982 263.863 121.459 263.863 120.761L265.782 125.996V124.251C265.957 125.124 266.306 125.996 266.48 126.869L267.004 120.761C267.3 121.734 267.533 122.725 267.702 123.728C268.167 120.902 268.284 118.03 268.051 115.177C268.051 114.304 267.702 111.861 266.655 111.337C265.608 110.814 265.259 113.257 264.735 114.129Z" fill="#275EA2"/>
<path d="M261.421 109.592C261.072 109.768 260.784 110.045 260.597 110.388C260.41 110.731 260.332 111.123 260.374 111.512C260.471 111.872 260.672 112.196 260.951 112.444C261.23 112.692 261.575 112.853 261.944 112.908C262.196 112.82 262.423 112.675 262.61 112.486C262.797 112.296 262.938 112.066 263.022 111.813C263.106 111.56 263.132 111.292 263.096 111.028C263.06 110.764 262.965 110.512 262.817 110.29C262.654 110.074 262.443 109.898 262.201 109.777C261.959 109.655 261.692 109.592 261.421 109.592C261.15 109.592 260.883 109.655 260.64 109.777C260.398 109.898 260.187 110.074 260.025 110.29L261.421 109.592Z" fill="#275EA2"/>
<path d="M259.678 114.129C258.816 115.391 258.222 116.817 257.933 118.318C257.71 119.041 257.642 119.803 257.732 120.555C257.822 121.306 258.069 122.03 258.456 122.68C258.656 122.059 258.773 121.413 258.805 120.761L260.725 125.996V124.251C260.9 125.124 261.249 125.996 261.423 126.869L261.947 120.761C262.243 121.734 262.476 122.725 262.645 123.728C263.11 120.902 263.227 118.03 262.994 115.177C262.994 114.304 262.645 111.861 261.598 111.337C260.551 110.814 260.202 113.257 259.678 114.129Z" fill="#275EA2"/>
<path d="M256.01 109.592C255.708 109.806 255.468 110.097 255.315 110.434C255.161 110.771 255.1 111.143 255.138 111.512C255.235 111.872 255.436 112.196 255.715 112.444C255.994 112.692 256.339 112.853 256.708 112.908C256.959 112.82 257.187 112.675 257.374 112.486C257.561 112.296 257.702 112.066 257.786 111.813C257.87 111.56 257.896 111.292 257.86 111.028C257.824 110.764 257.729 110.512 257.581 110.29C257.418 110.074 257.207 109.898 256.965 109.777C256.723 109.655 256.456 109.592 256.185 109.592C255.914 109.592 255.646 109.655 255.404 109.777C255.162 109.898 254.951 110.074 254.789 110.29L256.01 109.592Z" fill="#275EA2"/>
<path d="M254.441 114.13C253.681 115.445 253.095 116.852 252.696 118.318C252.485 119.062 252.455 119.846 252.607 120.604C252.758 121.363 253.088 122.074 253.568 122.681C253.568 122.157 253.743 121.459 253.743 120.935C254.487 122.581 255.128 124.271 255.662 125.996V124.251C256.011 125.124 256.186 125.996 256.535 126.869C256.709 124.775 256.709 122.855 256.884 120.761L257.756 123.728C258.105 120.888 258.105 118.016 257.756 115.177C257.756 114.13 257.407 111.686 256.36 111.337C255.313 110.988 254.964 113.257 254.441 114.13Z" fill="#275EA2"/>
<path d="M95.807 255.308C95.4721 255.489 95.2055 255.775 95.048 256.121C94.8905 256.468 94.8506 256.857 94.9344 257.228C95.009 257.6 95.2026 257.937 95.486 258.189C95.7694 258.441 96.1271 258.593 96.505 258.624C97.5521 258.449 97.9011 256.879 97.3775 256.006C97.215 255.79 97.0042 255.614 96.7619 255.493C96.5196 255.371 96.2524 255.308 95.9815 255.308C95.7105 255.308 95.4434 255.371 95.201 255.493C94.9587 255.614 94.748 255.79 94.5854 256.006L95.807 255.308Z" fill="#275EA2"/>
<path d="M94.2383 259.846C93.4786 261.161 92.892 262.568 92.4932 264.034C92.296 264.769 92.2563 265.538 92.3765 266.29C92.4968 267.041 92.7745 267.759 93.1913 268.397C93.3898 267.834 93.5073 267.247 93.5403 266.651C94.2383 268.222 94.7618 269.967 95.4599 271.712V269.967C95.8089 270.84 95.9834 271.712 96.3324 272.585C96.3324 270.491 96.5069 268.571 96.6814 266.477C96.856 267.524 97.205 268.397 97.3795 269.444C97.8737 266.619 97.9325 263.735 97.554 260.893C97.554 259.846 97.205 257.402 95.9834 257.053C94.7618 256.704 94.7618 258.973 94.2383 259.846Z" fill="#275EA2"/>
<path d="M102.439 255.308C102.09 255.484 101.803 255.762 101.616 256.105C101.429 256.448 101.351 256.84 101.392 257.228C101.49 257.588 101.691 257.912 101.97 258.16C102.248 258.408 102.594 258.569 102.963 258.624C103.214 258.536 103.442 258.392 103.629 258.202C103.816 258.012 103.957 257.782 104.041 257.529C104.125 257.277 104.15 257.008 104.115 256.744C104.079 256.48 103.984 256.228 103.835 256.007C103.673 255.79 103.462 255.614 103.22 255.493C102.977 255.372 102.71 255.308 102.439 255.308C102.168 255.308 101.901 255.372 101.659 255.493C101.417 255.614 101.206 255.79 101.043 256.007L102.439 255.308Z" fill="#275EA2"/>
<path d="M100.692 259.846C99.9321 261.161 99.3455 262.569 98.9467 264.034C98.6956 265.546 99.006 267.098 99.8193 268.397C99.8193 267.873 99.9937 267.175 99.9937 266.652C100.738 268.297 101.379 269.987 101.913 271.712C101.913 271.189 102.088 270.491 102.088 269.967C102.088 269.444 102.611 271.712 102.786 272.585C102.96 270.491 103.135 268.571 103.135 266.477L104.007 269.444C104.327 266.605 104.385 263.742 104.182 260.893C104.007 259.846 103.658 257.403 102.611 257.054C101.564 256.705 101.215 258.973 100.692 259.846Z" fill="#275EA2"/>
<path d="M109.243 254.959C108.92 255.165 108.656 255.449 108.473 255.785C108.29 256.12 108.194 256.497 108.196 256.879C108.311 257.229 108.517 257.543 108.793 257.788C109.069 258.033 109.405 258.201 109.766 258.275C110.013 258.18 110.238 258.036 110.427 257.85C110.616 257.664 110.764 257.441 110.862 257.195C110.961 256.949 111.007 256.686 110.999 256.421C110.99 256.157 110.927 255.897 110.813 255.657C110.115 254.785 108.545 254.61 108.021 255.483L109.243 254.959Z" fill="#275EA2"/>
<path d="M107.674 259.322C106.841 260.662 106.25 262.139 105.929 263.685C105.742 264.421 105.708 265.188 105.828 265.938C105.948 266.688 106.22 267.406 106.627 268.047C106.801 267.349 106.801 266.826 106.976 266.128C107.51 267.853 108.151 269.543 108.895 271.189V269.618C109.07 270.491 109.419 271.363 109.594 272.236L110.117 265.953C110.292 267 110.641 268.047 110.815 269.095C111.222 266.203 111.281 263.274 110.99 260.369C110.815 259.496 110.641 257.053 109.419 256.704C108.197 256.355 108.023 258.449 107.674 259.322Z" fill="#275EA2"/>
<path d="M115.349 254.959C115.014 255.14 114.747 255.426 114.59 255.772C114.432 256.119 114.393 256.507 114.476 256.879C114.574 257.239 114.775 257.563 115.054 257.811C115.333 258.059 115.678 258.22 116.047 258.275C116.298 258.187 116.526 258.042 116.713 257.852C116.9 257.663 117.041 257.433 117.125 257.18C117.209 256.927 117.234 256.659 117.199 256.395C117.163 256.131 117.068 255.878 116.92 255.657C116.771 255.43 116.571 255.24 116.337 255.103C116.102 254.967 115.838 254.887 115.567 254.87C115.296 254.853 115.025 254.899 114.775 255.006C114.525 255.112 114.303 255.275 114.127 255.483L115.349 254.959Z" fill="#275EA2"/>
<path d="M113.78 259.322C113.02 260.698 112.434 262.164 112.035 263.685C111.849 264.421 111.814 265.188 111.934 265.938C112.054 266.688 112.326 267.406 112.733 268.047C112.933 267.425 113.05 266.78 113.082 266.128C113.78 267.873 114.304 269.618 115.002 271.189V269.618C115.351 270.491 115.525 271.363 115.874 272.236C115.874 270.142 116.049 268.047 116.223 265.953C116.398 267 116.747 268.047 116.921 269.094C117.415 266.211 117.473 263.27 117.096 260.369C117.096 259.496 116.747 257.053 115.7 256.704C114.653 256.355 114.304 258.449 113.78 259.322Z" fill="#275EA2"/>
<path d="M121.285 254.436C120.95 254.617 120.683 254.902 120.526 255.249C120.368 255.595 120.329 255.984 120.412 256.355C120.45 256.713 120.61 257.046 120.864 257.3C121.118 257.554 121.451 257.714 121.808 257.751C122.056 257.657 122.281 257.512 122.469 257.326C122.658 257.14 122.806 256.917 122.904 256.672C123.003 256.426 123.049 256.162 123.041 255.898C123.032 255.633 122.969 255.373 122.855 255.134C122.693 254.917 122.482 254.741 122.24 254.62C121.998 254.499 121.73 254.436 121.459 254.436C121.189 254.436 120.921 254.499 120.679 254.62C120.437 254.741 120.226 254.917 120.063 255.134L121.285 254.436Z" fill="#275EA2"/>
<path d="M119.716 258.973C118.957 260.288 118.37 261.696 117.971 263.161C117.774 263.897 117.734 264.665 117.854 265.417C117.975 266.169 118.252 266.887 118.669 267.524C118.844 267 118.844 266.302 119.018 265.779C119.193 265.255 120.24 269.095 120.938 270.84V269.095C121.112 269.967 121.461 270.84 121.636 271.712L122.159 265.604C122.334 266.651 122.683 267.524 122.857 268.571C123.264 265.739 123.323 262.867 123.032 260.02C122.857 258.973 122.683 256.53 121.461 256.181C120.24 255.832 120.065 258.1 119.716 258.973Z" fill="#275EA2"/>
<path d="M127.399 254.436C127.064 254.617 126.798 254.902 126.64 255.249C126.483 255.595 126.443 255.984 126.527 256.355C126.565 256.713 126.724 257.046 126.978 257.3C127.232 257.554 127.565 257.714 127.923 257.751C128.17 257.657 128.395 257.512 128.584 257.326C128.772 257.14 128.92 256.917 129.019 256.672C129.117 256.426 129.164 256.162 129.155 255.898C129.147 255.633 129.084 255.373 128.97 255.134C128.775 254.939 128.544 254.784 128.29 254.678C128.035 254.572 127.762 254.518 127.486 254.518C127.211 254.518 126.938 254.572 126.683 254.678C126.429 254.784 126.198 254.939 126.003 255.134L127.399 254.436Z" fill="#275EA2"/>
<path d="M125.826 258.973C124.995 260.252 124.404 261.671 124.081 263.161C123.884 263.897 123.844 264.665 123.965 265.417C124.085 266.169 124.363 266.887 124.779 267.524C124.954 267 124.954 266.302 125.128 265.779C125.303 265.255 126.35 269.095 127.048 270.84V269.095C127.223 269.967 127.572 270.84 127.746 271.712L128.27 265.604C128.444 266.651 128.793 267.524 128.968 268.571C129.374 265.739 129.433 262.867 129.142 260.02C128.968 258.973 128.793 256.53 127.572 256.181C126.35 255.832 126.175 258.1 125.826 258.973Z" fill="#275EA2"/>
<path d="M133.674 254.436C133.339 254.617 133.073 254.902 132.915 255.249C132.758 255.595 132.718 255.984 132.802 256.355C132.876 256.727 133.07 257.064 133.353 257.316C133.637 257.568 133.994 257.721 134.372 257.751C135.419 257.577 135.768 256.006 135.245 255.134C135.082 254.917 134.872 254.741 134.629 254.62C134.387 254.499 134.12 254.436 133.849 254.436C133.578 254.436 133.311 254.499 133.068 254.62C132.826 254.741 132.615 254.917 132.453 255.134L133.674 254.436Z" fill="#275EA2"/>
<path d="M132.106 258.973C131.346 260.288 130.759 261.696 130.361 263.161C130.163 263.897 130.124 264.665 130.244 265.417C130.364 266.169 130.642 266.887 131.059 267.524C131.233 267 131.233 266.302 131.408 265.779C131.582 265.255 132.629 269.095 133.327 270.84V269.095L134.2 271.712C134.2 269.618 134.374 267.699 134.549 265.604C134.723 266.651 135.072 267.524 135.247 268.571C135.741 265.746 135.8 262.863 135.421 260.02C135.421 258.973 135.072 256.53 133.851 256.181C132.629 255.832 132.629 258.1 132.106 258.973Z" fill="#275EA2"/>
<path d="M140.128 254.436C139.793 254.617 139.527 254.902 139.369 255.249C139.212 255.595 139.172 255.984 139.256 256.355C139.294 256.713 139.453 257.046 139.707 257.3C139.961 257.554 140.295 257.714 140.652 257.751C140.899 257.657 141.124 257.512 141.313 257.326C141.501 257.14 141.65 256.917 141.748 256.672C141.846 256.426 141.893 256.162 141.884 255.898C141.876 255.633 141.813 255.373 141.699 255.134C141.536 254.917 141.326 254.741 141.083 254.62C140.841 254.499 140.574 254.436 140.303 254.436C140.032 254.436 139.765 254.499 139.522 254.62C139.28 254.741 139.069 254.917 138.907 255.134L140.128 254.436Z" fill="#275EA2"/>
<path d="M138.56 258.973C137.8 260.288 137.213 261.696 136.814 263.161C136.617 263.897 136.578 264.665 136.698 265.417C136.818 266.169 137.096 266.887 137.513 267.524C137.687 267 137.687 266.302 137.862 265.779C138.036 265.255 139.083 269.095 139.781 270.84V269.095C139.956 269.967 140.305 270.84 140.479 271.712L141.003 265.604C141.177 266.651 141.526 267.524 141.701 268.571C142.108 265.739 142.166 262.867 141.875 260.02C141.701 258.973 141.526 256.53 140.305 256.181C139.083 255.832 138.909 258.1 138.56 258.973Z" fill="#275EA2"/>
<path d="M146.762 254.436C146.46 254.65 146.22 254.941 146.066 255.278C145.913 255.615 145.852 255.987 145.889 256.355C145.987 256.716 146.188 257.039 146.467 257.287C146.745 257.535 147.091 257.697 147.46 257.751C147.711 257.663 147.939 257.519 148.126 257.329C148.313 257.139 148.454 256.909 148.538 256.657C148.622 256.404 148.647 256.135 148.612 255.871C148.576 255.607 148.481 255.355 148.332 255.134C148.17 254.917 147.959 254.741 147.717 254.62C147.474 254.499 147.207 254.436 146.936 254.436C146.665 254.436 146.398 254.499 146.156 254.62C145.914 254.741 145.703 254.917 145.54 255.134L146.762 254.436Z" fill="#275EA2"/>
<path d="M145.194 258.973C144.435 260.288 143.848 261.696 143.449 263.161C143.277 263.909 143.266 264.684 143.416 265.436C143.567 266.189 143.875 266.9 144.322 267.524C144.322 267 144.496 266.302 144.496 265.779C145.241 267.424 145.882 269.115 146.416 270.84V269.095L147.288 271.712C147.463 269.618 147.637 267.699 147.637 265.604L148.51 268.571C148.859 265.731 148.859 262.86 148.51 260.02C148.51 258.973 148.161 256.53 147.114 256.181C146.067 255.832 145.718 258.1 145.194 258.973Z" fill="#275EA2"/>
<path d="M153.394 254.436C153.059 254.617 152.792 254.902 152.635 255.249C152.477 255.595 152.437 255.984 152.521 256.355C152.559 256.713 152.718 257.046 152.972 257.3C153.226 257.554 153.56 257.714 153.917 257.751C154.164 257.657 154.389 257.512 154.578 257.326C154.767 257.14 154.915 256.917 155.013 256.672C155.111 256.426 155.158 256.162 155.149 255.898C155.141 255.633 155.078 255.373 154.964 255.134C154.802 254.917 154.591 254.741 154.349 254.62C154.106 254.499 153.839 254.436 153.568 254.436C153.297 254.436 153.03 254.499 152.788 254.62C152.545 254.741 152.335 254.917 152.172 255.134L153.394 254.436Z" fill="#275EA2"/>
<path d="M151.825 258.973C150.994 260.252 150.403 261.671 150.08 263.161C149.883 263.897 149.843 264.665 149.963 265.417C150.083 266.169 150.361 266.887 150.778 267.524C150.952 267 150.952 266.302 151.127 265.779C151.301 265.255 152.348 269.095 153.046 270.84V269.095C153.221 269.967 153.57 270.84 153.745 271.712L154.268 265.604C154.443 266.651 154.792 267.524 154.966 268.571C155.373 265.739 155.431 262.867 155.141 260.02C154.966 258.973 154.792 256.53 153.57 256.181C152.348 255.832 152.174 258.1 151.825 258.973Z" fill="#275EA2"/>
<path d="M160.026 255.308C159.691 255.489 159.425 255.775 159.267 256.121C159.11 256.468 159.07 256.857 159.154 257.228C159.251 257.588 159.452 257.912 159.731 258.16C160.01 258.408 160.355 258.569 160.724 258.624C160.976 258.536 161.203 258.391 161.39 258.202C161.577 258.012 161.718 257.782 161.802 257.529C161.887 257.276 161.912 257.008 161.876 256.744C161.841 256.48 161.745 256.228 161.597 256.006C161.434 255.79 161.224 255.614 160.981 255.493C160.739 255.371 160.472 255.308 160.201 255.308C159.93 255.308 159.663 255.371 159.42 255.493C159.178 255.614 158.967 255.79 158.805 256.006L160.026 255.308Z" fill="#275EA2"/>
<path d="M158.457 259.846C157.697 261.161 157.111 262.568 156.712 264.034C156.502 264.778 156.471 265.562 156.623 266.32C156.774 267.079 157.104 267.79 157.584 268.397C157.584 267.873 157.759 267.175 157.759 266.651C158.503 268.297 159.144 269.987 159.678 271.712V269.967C160.028 270.84 160.202 271.712 160.551 272.585C160.726 270.491 160.726 268.571 160.9 266.477C161.215 267.445 161.448 268.437 161.598 269.444C162.092 266.619 162.151 263.735 161.773 260.893C161.773 259.846 161.424 257.402 160.377 257.053C159.329 256.704 158.98 258.973 158.457 259.846Z" fill="#275EA2"/>
<path d="M167.18 255.308C166.858 255.514 166.593 255.798 166.41 256.134C166.227 256.469 166.131 256.846 166.133 257.228C166.23 257.588 166.431 257.912 166.71 258.16C166.989 258.408 167.334 258.569 167.703 258.624C167.954 258.536 168.182 258.391 168.369 258.202C168.556 258.012 168.697 257.782 168.781 257.529C168.865 257.276 168.891 257.008 168.855 256.744C168.819 256.48 168.724 256.228 168.576 256.006C168.413 255.79 168.202 255.614 167.96 255.493C167.718 255.371 167.451 255.308 167.18 255.308C166.909 255.308 166.642 255.371 166.399 255.493C166.157 255.614 165.946 255.79 165.784 256.006L167.18 255.308Z" fill="#275EA2"/>
<path d="M165.432 259.846C164.656 261.133 164.123 262.553 163.862 264.034C163.665 264.769 163.625 265.538 163.745 266.29C163.865 267.041 164.143 267.759 164.56 268.397C164.593 267.801 164.71 267.214 164.909 266.651C165.432 268.222 166.13 269.967 166.828 271.712V269.967C167.003 270.84 167.352 271.712 167.526 272.585C167.701 270.491 167.876 268.571 167.876 266.477L168.748 269.444C169.067 266.605 169.126 263.742 168.923 260.893C168.748 259.846 168.399 257.402 167.352 257.053C166.305 256.704 165.956 258.973 165.432 259.846Z" fill="#275EA2"/>
<path d="M173.816 256.181C173.513 256.395 173.273 256.686 173.12 257.023C172.967 257.36 172.906 257.732 172.943 258.1C173.041 258.461 173.242 258.785 173.52 259.033C173.799 259.28 174.145 259.442 174.514 259.497C174.765 259.408 174.993 259.264 175.18 259.074C175.367 258.884 175.508 258.654 175.592 258.402C175.676 258.149 175.701 257.88 175.666 257.616C175.63 257.353 175.534 257.1 175.386 256.879C175.224 256.662 175.013 256.486 174.771 256.365C174.528 256.244 174.261 256.181 173.99 256.181C173.719 256.181 173.452 256.244 173.21 256.365C172.968 256.486 172.757 256.662 172.594 256.879L173.816 256.181Z" fill="#275EA2"/>
<path d="M172.243 260.718C171.483 262.033 170.896 263.441 170.498 264.906C170.247 266.418 170.557 267.97 171.37 269.269C171.37 268.746 171.545 268.048 171.545 267.524C172.289 269.169 172.93 270.86 173.464 272.585V270.84L174.337 273.457C174.511 271.363 174.686 269.444 174.686 267.349L175.558 270.316C175.907 267.476 175.907 264.605 175.558 261.765C175.558 260.718 175.209 258.275 174.162 257.926C173.115 257.577 172.766 259.846 172.243 260.718Z" fill="#275EA2"/>
<path d="M180.967 257.926C180.632 258.107 180.366 258.392 180.208 258.739C180.051 259.086 180.011 259.474 180.095 259.845C180.21 260.196 180.416 260.51 180.692 260.755C180.968 261 181.304 261.168 181.665 261.242C181.917 261.153 182.144 261.009 182.331 260.819C182.518 260.629 182.659 260.399 182.743 260.147C182.827 259.894 182.853 259.625 182.817 259.361C182.782 259.098 182.686 258.845 182.538 258.624C182.389 258.396 182.19 258.207 181.955 258.07C181.72 257.933 181.457 257.853 181.185 257.836C180.914 257.819 180.643 257.866 180.393 257.972C180.143 258.079 179.921 258.242 179.746 258.449L180.967 257.926Z" fill="#275EA2"/>
<path d="M179.398 262.289C178.638 263.665 178.052 265.131 177.653 266.651C177.443 267.396 177.412 268.179 177.564 268.938C177.715 269.696 178.045 270.408 178.525 271.014C178.525 270.316 178.7 269.793 178.7 269.095C178.7 268.397 180.096 272.585 180.619 274.155V272.585C180.968 273.457 181.143 274.33 181.492 275.202C181.667 273.108 181.667 271.014 181.841 268.92C182.157 269.947 182.39 270.997 182.539 272.061C183.032 269.178 183.091 266.237 182.714 263.336C182.714 262.463 182.365 260.02 181.317 259.671C180.27 259.322 179.921 261.416 179.398 262.289Z" fill="#275EA2"/>
<path d="M187.954 257.926C187.631 258.132 187.367 258.416 187.183 258.751C187 259.087 186.905 259.463 186.906 259.845C187.022 260.196 187.228 260.51 187.504 260.755C187.78 261 188.115 261.168 188.477 261.242C188.728 261.153 188.956 261.009 189.143 260.819C189.33 260.629 189.471 260.399 189.555 260.147C189.639 259.894 189.665 259.625 189.629 259.361C189.593 259.098 189.498 258.845 189.35 258.624C189.201 258.396 189.002 258.207 188.767 258.07C188.532 257.933 188.268 257.853 187.997 257.836C187.726 257.819 187.455 257.866 187.205 257.972C186.955 258.079 186.733 258.242 186.557 258.449L187.954 257.926Z" fill="#275EA2"/>
<path d="M186.206 262.289C185.427 263.638 184.895 265.115 184.636 266.651C184.449 267.388 184.415 268.155 184.535 268.905C184.655 269.655 184.927 270.373 185.334 271.014C185.508 270.316 185.508 269.793 185.683 269.095C186.217 270.82 186.858 272.51 187.602 274.155V272.585L188.3 275.202L188.824 268.92C188.973 269.984 189.206 271.034 189.522 272.061C189.841 269.164 189.9 266.244 189.696 263.336C189.522 262.463 189.173 260.02 188.126 259.671C187.079 259.322 186.73 261.416 186.206 262.289Z" fill="#275EA2"/>
<path d="M195.099 257.926C194.764 258.107 194.497 258.392 194.34 258.739C194.182 259.086 194.142 259.474 194.226 259.845C194.226 260.543 194.924 261.067 195.622 261.242C195.87 261.147 196.095 261.002 196.283 260.816C196.472 260.63 196.62 260.408 196.718 260.162C196.817 259.916 196.863 259.652 196.855 259.388C196.846 259.123 196.783 258.863 196.669 258.624C195.971 257.751 194.401 257.577 193.877 258.449L195.099 257.926Z" fill="#275EA2"/>
<path d="M193.53 262.289C192.697 263.629 192.106 265.106 191.785 266.652C191.598 267.388 191.564 268.155 191.684 268.905C191.804 269.655 192.076 270.373 192.483 271.014C192.657 270.316 192.657 269.793 192.832 269.095C193.366 270.82 194.007 272.51 194.752 274.155V272.585C194.926 273.457 195.275 274.33 195.45 275.203L195.973 268.92C196.148 269.967 196.497 271.014 196.671 272.061C197.078 269.17 197.137 266.241 196.846 263.336C196.671 262.463 196.497 260.02 195.275 259.671C194.054 259.322 193.879 261.416 193.53 262.289Z" fill="#275EA2"/>
<path d="M202.256 257.926C201.921 258.107 201.654 258.392 201.497 258.739C201.339 259.086 201.299 259.474 201.383 259.845C201.499 260.196 201.705 260.51 201.981 260.755C202.257 261 202.592 261.168 202.954 261.242C203.205 261.153 203.433 261.009 203.62 260.819C203.807 260.629 203.948 260.399 204.032 260.147C204.116 259.894 204.141 259.625 204.106 259.361C204.07 259.098 203.975 258.845 203.826 258.624C203.678 258.396 203.478 258.207 203.243 258.07C203.009 257.933 202.745 257.853 202.474 257.836C202.203 257.819 201.932 257.866 201.682 257.972C201.432 258.079 201.21 258.242 201.034 258.449L202.256 257.926Z" fill="#275EA2"/>
<path d="M200.687 262.289C199.927 263.665 199.341 265.131 198.941 266.651C198.731 267.396 198.701 268.179 198.852 268.938C199.004 269.696 199.334 270.408 199.814 271.014C199.814 270.316 199.988 269.793 199.988 269.095C199.988 268.397 201.385 272.585 201.908 274.155V272.585C202.257 273.457 202.432 274.33 202.781 275.202C202.955 273.108 202.955 271.014 203.13 268.92C203.445 269.947 203.679 270.997 203.828 272.061C204.321 269.178 204.38 266.237 204.002 263.336C204.002 262.463 203.653 260.02 202.606 259.671C201.559 259.322 201.21 261.416 200.687 262.289Z" fill="#275EA2"/>
<path d="M210.112 257.926C209.79 258.132 209.525 258.416 209.342 258.751C209.159 259.087 209.064 259.463 209.065 259.846C209.181 260.196 209.387 260.51 209.663 260.755C209.938 261 210.274 261.168 210.636 261.242C210.883 261.147 211.108 261.002 211.297 260.816C211.485 260.631 211.633 260.408 211.732 260.162C211.83 259.916 211.877 259.652 211.868 259.388C211.86 259.123 211.797 258.863 211.683 258.624C211.5 258.417 211.278 258.248 211.03 258.127C210.781 258.006 210.512 257.936 210.236 257.919C209.96 257.903 209.684 257.942 209.423 258.033C209.162 258.124 208.922 258.265 208.716 258.45L210.112 257.926Z" fill="#275EA2"/>
<path d="M208.365 262.289C207.586 263.638 207.054 265.115 206.794 266.652C206.608 267.388 206.574 268.155 206.694 268.905C206.814 269.655 207.085 270.373 207.492 271.014C207.667 270.316 207.667 269.793 207.841 269.095C208.375 270.82 209.017 272.51 209.761 274.155V272.585C209.935 273.457 210.285 274.33 210.459 275.203L210.983 268.92C211.131 269.984 211.365 271.034 211.681 272.061C212 269.164 212.058 266.244 211.855 263.336C211.681 262.463 211.332 260.02 210.284 259.671C209.237 259.322 208.888 261.416 208.365 262.289Z" fill="#275EA2"/>
<path d="M217.271 257.926C216.949 258.131 216.684 258.415 216.501 258.751C216.318 259.086 216.223 259.463 216.224 259.845C216.34 260.196 216.546 260.509 216.822 260.754C217.097 261 217.433 261.168 217.795 261.241C218.046 261.153 218.274 261.009 218.461 260.819C218.648 260.629 218.789 260.399 218.873 260.146C218.957 259.894 218.982 259.625 218.947 259.361C218.911 259.097 218.816 258.845 218.667 258.624C218.519 258.396 218.319 258.206 218.084 258.07C217.85 257.933 217.586 257.853 217.315 257.836C217.044 257.819 216.772 257.866 216.522 257.972C216.273 258.079 216.051 258.242 215.875 258.449L217.271 257.926Z" fill="#275EA2"/>
<path d="M215.524 262.288C214.745 263.637 214.213 265.115 213.953 266.651C213.767 267.387 213.733 268.154 213.853 268.904C213.973 269.655 214.244 270.372 214.651 271.014C214.826 270.316 214.826 269.792 215 269.094C215.534 270.819 216.176 272.51 216.92 274.155V272.584C217.095 273.457 217.444 274.329 217.618 275.202L218.142 268.92C218.291 269.984 218.524 271.034 218.84 272.061C219.159 269.163 219.217 266.243 219.014 263.335C218.84 262.463 218.491 260.02 217.444 259.671C216.396 259.322 216.047 261.416 215.524 262.288Z" fill="#275EA2"/>
<path d="M224.416 257.926C224.082 258.107 223.815 258.392 223.657 258.739C223.5 259.086 223.46 259.474 223.544 259.845C223.544 260.543 224.242 261.067 224.94 261.242C225.187 261.147 225.412 261.002 225.601 260.816C225.79 260.63 225.938 260.408 226.036 260.162C226.134 259.916 226.181 259.652 226.172 259.388C226.164 259.123 226.101 258.863 225.987 258.624C225.289 257.751 223.718 257.577 223.195 258.449L224.416 257.926Z" fill="#275EA2"/>
<path d="M222.848 262.289C222.088 263.665 221.502 265.131 221.103 266.652C220.916 267.388 220.882 268.155 221.002 268.905C221.122 269.655 221.394 270.373 221.801 271.014C221.975 270.316 221.975 269.793 222.15 269.095C222.324 268.397 223.371 272.585 224.069 274.155V272.585L224.767 275.203L225.291 268.92C225.465 269.967 225.814 271.014 225.989 272.061C226.396 269.17 226.455 266.241 226.163 263.336C225.989 262.463 225.814 260.02 224.593 259.671C223.371 259.322 223.197 261.416 222.848 262.289Z" fill="#275EA2"/>
<path d="M231.397 257.926C231.062 258.107 230.795 258.392 230.638 258.739C230.48 259.086 230.44 259.474 230.524 259.845C230.524 260.543 231.222 261.067 232.095 261.242C232.327 261.13 232.534 260.973 232.705 260.78C232.875 260.587 233.005 260.362 233.086 260.118C233.167 259.873 233.199 259.615 233.178 259.359C233.158 259.102 233.086 258.852 232.967 258.624C232.269 257.751 230.699 257.577 230.175 258.449L231.397 257.926Z" fill="#275EA2"/>
<path d="M229.828 262.289C229.068 263.665 228.482 265.131 228.083 266.652C227.896 267.388 227.862 268.155 227.982 268.905C228.102 269.655 228.374 270.373 228.781 271.014C228.955 270.316 228.956 269.793 229.13 269.095C229.305 268.397 230.352 272.585 231.05 274.155V272.585L231.922 275.203C231.922 273.108 232.097 271.014 232.271 268.92C232.446 269.967 232.795 271.014 232.969 272.061C233.376 269.17 233.435 266.241 233.144 263.336C232.969 262.463 232.795 260.02 231.573 259.671C230.352 259.322 230.177 261.416 229.828 262.289Z" fill="#275EA2"/>
<path d="M238.205 257.926C237.883 258.132 237.618 258.416 237.435 258.751C237.252 259.087 237.156 259.463 237.158 259.846C237.273 260.196 237.479 260.51 237.755 260.755C238.031 261 238.367 261.168 238.728 261.242C238.98 261.154 239.207 261.009 239.394 260.819C239.581 260.63 239.722 260.4 239.806 260.147C239.89 259.894 239.916 259.626 239.88 259.362C239.844 259.098 239.749 258.845 239.601 258.624C239.452 258.397 239.253 258.207 239.018 258.07C238.783 257.934 238.52 257.854 238.248 257.837C237.977 257.82 237.706 257.866 237.456 257.973C237.206 258.079 236.984 258.242 236.809 258.45L238.205 257.926Z" fill="#275EA2"/>
<path d="M236.463 262.289C235.703 263.665 235.117 265.131 234.718 266.652C234.482 268.163 234.792 269.709 235.59 271.014C235.59 270.316 235.765 269.793 235.765 269.095L237.859 274.156V272.585C238.033 273.458 238.382 274.33 238.557 275.203C238.731 273.108 238.906 271.014 238.906 268.92C239.255 269.967 239.429 271.014 239.778 272.061C240.098 269.164 240.156 266.244 239.953 263.336C239.778 262.463 239.429 260.02 238.382 259.671C237.335 259.322 236.986 261.416 236.463 262.289Z" fill="#275EA2"/>
<path d="M243.789 257.228C243.504 257.45 243.287 257.747 243.163 258.087C243.04 258.427 243.015 258.794 243.091 259.147C243.229 259.501 243.468 259.805 243.778 260.022C244.089 260.24 244.457 260.36 244.836 260.369C245.086 260.275 245.309 260.119 245.482 259.916C245.655 259.712 245.774 259.468 245.826 259.206C245.878 258.944 245.863 258.673 245.781 258.418C245.7 258.164 245.555 257.934 245.359 257.751C245.184 257.544 244.962 257.381 244.712 257.274C244.462 257.168 244.191 257.121 243.92 257.138C243.648 257.155 243.385 257.235 243.15 257.372C242.915 257.509 242.716 257.698 242.567 257.926L243.789 257.228Z" fill="#275EA2"/>
<path d="M242.739 261.765C242.092 263.155 241.623 264.62 241.343 266.128C241.21 267.682 241.644 269.232 242.565 270.491C242.565 269.793 242.739 269.269 242.739 268.571C242.739 267.873 244.31 271.887 245.182 273.457C245.03 272.889 244.971 272.299 245.008 271.712L246.055 274.33C245.881 272.236 245.881 270.142 245.881 268.047L246.928 271.014C246.983 268.139 246.69 265.268 246.055 262.463C245.881 261.591 245.357 259.147 244.31 258.973C243.263 258.798 243.088 260.893 242.739 261.765Z" fill="#275EA2"/>
<path d="M249.899 257.228C249.564 257.409 249.298 257.694 249.14 258.041C248.983 258.387 248.943 258.776 249.027 259.147C249.182 259.489 249.425 259.782 249.732 259.997C250.039 260.212 250.398 260.34 250.772 260.369C251.009 260.263 251.219 260.105 251.387 259.907C251.555 259.71 251.677 259.477 251.744 259.226C251.811 258.976 251.821 258.713 251.773 258.458C251.726 258.203 251.622 257.961 251.47 257.751C251.294 257.544 251.072 257.381 250.822 257.274C250.572 257.168 250.301 257.121 250.03 257.138C249.759 257.155 249.495 257.235 249.261 257.372C249.026 257.509 248.826 257.698 248.678 257.926L249.899 257.228Z" fill="#275EA2"/>
<path d="M248.676 261.765C248.008 263.133 247.594 264.612 247.454 266.128C247.342 266.9 247.392 267.687 247.603 268.439C247.813 269.19 248.179 269.889 248.676 270.491V268.571L251.119 273.457C251.119 272.934 250.945 272.41 250.945 271.712L251.992 274.33C251.992 272.236 251.817 270.142 251.817 268.047L252.864 271.014C252.979 268.146 252.744 265.275 252.166 262.463C251.992 261.591 251.468 259.147 250.247 258.973C249.025 258.798 249.025 260.893 248.676 261.765Z" fill="#275EA2"/>
<path d="M131.932 205.922C130.885 211.855 129.663 220.755 128.441 231.749C127.22 242.743 127.743 245.535 126.347 261.067C125.824 267.873 124.951 277.645 123.381 290.035C121.81 302.426 121.461 302.949 120.065 313.42C119.018 320.575 118.32 327.031 117.796 332.79H113.434C114.481 323.018 115.528 314.99 116.226 309.057C119.367 283.928 120.588 279.216 121.287 265.255C121.461 261.59 121.81 254.61 122.508 243.965C123.206 233.32 123.73 227.91 124.253 225.641C125.475 220.58 127.394 215.694 127.22 208.19V205.922H131.932Z" fill="#353535"/>
<path d="M187.951 205.922C186.904 211.855 185.683 220.755 184.635 231.749C183.588 242.743 183.763 245.535 182.367 261.067C181.843 267.873 180.971 277.645 179.4 290.035C177.83 302.426 177.481 302.949 176.084 313.42C175.037 320.575 174.339 327.031 173.816 332.79H169.453C170.5 323.018 171.547 314.99 172.245 309.057C175.386 283.928 176.608 279.216 177.306 265.255C177.481 261.59 177.83 254.61 178.702 243.965C179.575 233.32 179.749 227.91 180.273 225.641C181.494 220.58 183.414 215.694 183.239 208.19V205.922H187.951Z" fill="#353535"/>
<path d="M208.886 332.79H205.221L195.972 259.845L190.039 205.922H192.831L198.067 248.502L208.886 332.79Z" fill="#353535"/>
<path d="M192.836 203.479H132.804L127.569 204.7L127.395 208.191H187.251L193.185 206.62L192.836 203.479Z" fill="#353535"/>
<path d="M126.524 233.146L141.357 233.844L150.955 234.367H181.494C181.203 235.4 180.97 236.449 180.796 237.508H167.359C161.6 236.985 156.888 236.985 153.747 236.985C146.243 236.985 142.753 237.683 136.122 237.334C132.539 237.08 128.98 236.555 125.477 235.763L126.524 233.146Z" fill="#353535"/>
<path d="M124.6 258.798L139.259 259.671L149.032 260.02H179.571L178.698 263.161H165.436C159.677 262.638 154.965 262.638 151.824 262.638C144.32 262.638 140.83 263.336 134.198 262.987C127.567 262.638 125.822 261.94 123.379 261.59C123.725 260.634 124.133 259.702 124.6 258.798Z" fill="#353535"/>
<path d="M123.906 281.31L138.74 282.008L148.512 282.532H179.052L178.179 285.673H164.742C158.983 285.15 154.271 285.15 151.13 285.15C143.626 285.15 140.31 285.848 133.679 285.499C130.039 285.242 126.422 284.717 122.859 283.928L123.906 281.31Z" fill="#353535"/>
<path d="M117.621 309.057L132.455 309.93L142.227 310.279H172.766L171.894 313.42H158.457L144.845 312.897C137.341 313.071 134.025 313.595 127.394 313.246C120.762 312.897 118.843 312.199 116.574 311.85L117.621 309.057Z" fill="#353535"/>
<path d="M215.69 27.0492C216.007 25.971 216.183 24.8566 216.214 23.7335C216.301 22.6883 216.301 21.6375 216.214 20.5923C216.388 17.8002 217.087 17.4511 216.563 16.0551C216.04 14.659 215.516 14.4845 215.69 13.9609C215.91 13.7763 216.189 13.6751 216.476 13.6751C216.763 13.6751 217.041 13.7763 217.261 13.9609C218.483 14.4845 218.134 16.9276 219.006 17.1021C219.879 17.2766 220.053 16.4041 220.402 16.0551C220.751 15.706 221.275 14.659 220.926 13.6119C220.577 12.5649 219.355 12.3904 219.53 12.0413C219.704 11.6923 221.275 11.6923 222.496 11.8668C223.438 11.944 224.313 12.3816 224.939 13.0884C225.114 13.0884 225.638 13.6119 225.812 14.659C226.211 15.9004 226.271 17.2257 225.987 18.4982C225.289 22.3374 221.275 27.9217 221.1 28.2707L215.69 27.0492Z" fill="#FFB091"/>
<path d="M174.684 193.531C173.637 198.243 173.986 198.418 173.113 203.653C171.672 211.513 169.51 219.224 166.656 226.688C164.967 231.393 164.082 236.348 164.039 241.347C163.864 245.71 165.435 249.724 165.26 254.261H166.133C167.34 254.583 168.392 255.325 169.099 256.355C169.403 256.844 169.638 257.372 169.798 257.925C169.988 258.964 169.988 260.028 169.798 261.067L160.898 259.845C159.833 256.987 158.61 254.19 157.233 251.469C156.011 249.375 153.219 246.408 152.696 244.139C152.536 243.543 152.515 242.918 152.637 242.313C152.758 241.707 153.017 241.138 153.394 240.649C153.9 240.178 154.263 239.573 154.441 238.904C154.615 238.555 154.615 238.206 154.79 237.857C154.964 237.508 155.662 234.541 156.011 232.273C157.058 224.594 155.662 221.802 155.662 212.902C155.433 208.989 156.215 205.083 157.931 201.559C160.401 197.022 161.944 192.039 162.468 186.9C162.614 185.494 162.495 184.074 162.119 182.712C161.909 181.701 161.617 180.709 161.247 179.745C161.072 179.396 161.072 179.047 160.898 178.873C160.629 177.941 160.601 176.957 160.814 176.011C161.028 175.065 161.477 174.189 162.119 173.463C163.195 172.405 164.625 171.784 166.133 171.718C166.831 171.543 176.08 169.1 178.872 172.939C181.664 176.778 177.301 180.269 174.684 193.531Z" fill="#7A3B3B"/>
<path d="M160.2 183.585C158.079 187.327 156.269 191.237 154.79 195.277C153.743 199.116 153.568 203.13 151.823 206.62C149.185 212.855 146.154 218.917 142.749 224.769C140.009 229.582 137.786 234.671 136.117 239.951C134.996 243.681 134.581 247.587 134.896 251.469L135.419 253.563L136.99 255.483C138.029 256.492 138.965 257.602 139.782 258.798C140.131 259.671 139.957 260.369 138.735 260.369C137.513 260.369 131.406 261.59 130.184 260.543C128.962 259.496 128.09 253.039 127.566 250.945C127.043 248.851 124.076 244.663 125.821 240.998L127.043 239.079L128.439 237.508C129.311 236.286 130.533 235.239 131.231 234.018C131.929 232.796 133.674 229.132 135.07 222.151C136.466 215.171 136.466 211.157 137.164 205.573C137.862 199.988 141.876 192.485 143.621 186.028C143.796 185.155 145.017 178.349 145.192 178.349C145.366 178.349 155.662 176.43 159.327 177.826C159.676 177.866 160.006 178.002 160.283 178.217C160.56 178.432 160.773 178.72 160.898 179.047C160.921 179.047 160.943 179.052 160.964 179.061C160.986 179.069 161.005 179.082 161.021 179.098C161.037 179.115 161.05 179.134 161.059 179.155C161.068 179.176 161.072 179.199 161.072 179.222V179.92C161.132 181.199 160.83 182.469 160.2 183.585Z" fill="#7A3B3B"/>
<path d="M190.213 126.345C188.643 132.453 187.596 137.514 187.072 141.004C184.455 156.71 184.28 171.369 184.455 187.075C170.843 191.786 150.251 186.551 139.082 178.524C140.478 173.463 142.049 168.228 143.619 163.167C144.552 154.861 146.546 146.708 149.553 138.91C151.261 134.175 153.738 129.753 156.882 125.822C160.138 121.797 164.175 118.473 168.749 116.049L190.213 126.345Z" fill="#FF5437"/>
<path d="M198.066 26.0022C198.434 24.91 199.175 23.9828 200.16 23.3845C201.382 22.861 202.254 23.7335 203.999 23.0355C204.872 22.7035 205.65 22.1645 206.268 21.4649C207.141 20.0688 206.443 19.0218 207.315 17.6257C207.888 16.8378 208.675 16.2319 209.584 15.8806C209.26 15.5209 208.849 15.2513 208.39 15.0984C207.931 14.9454 207.441 14.9143 206.966 15.008C206.375 15.1171 205.836 15.4137 205.427 15.8538C205.018 16.294 204.763 16.8541 204.697 17.4512C204.6 16.7196 204.675 15.9752 204.917 15.278C205.16 14.5808 205.563 13.9504 206.094 13.4375C206.779 12.5646 207.784 11.9997 208.886 11.8669C208.628 11.2891 208.203 10.8026 207.664 10.4708C206.792 10.1218 206.094 10.4708 204.697 10.4708H201.731C200.894 10.8326 200.138 11.3589 199.509 12.0184C198.879 12.678 198.389 13.4572 198.066 14.31C196.321 17.6257 194.576 20.9414 192.656 24.0826L198.066 26.0022Z" fill="#FFB091"/>
<path d="M199.813 104.881C191.786 109.592 190.215 121.459 190.04 129.661C177.825 128.789 170.495 125.822 159.676 120.412C163.69 116.922 168.401 113.257 170.67 108.371C172.23 103.939 173.055 99.2825 173.113 94.5847C173.637 88.3023 173.113 86.2082 174.858 82.718C175.827 80.8669 177.198 79.2567 178.872 78.0062C181.839 80.2748 188.121 84.2886 193.356 82.1945C198.591 80.1003 197.021 78.8788 201.733 68.5827C206.444 58.2866 207.84 55.1454 208.539 53.2258C211.738 44.5045 214.133 35.5089 215.693 26.3513L221.627 27.9219C221.278 30.8886 220.929 35.0768 220.231 40.1376C219.533 45.1984 218.66 51.4807 217.962 54.9709C216.281 62.165 214.065 69.2232 211.331 76.0866L207.491 86.5572C205.921 90.7454 206.095 94.7592 205.397 98.9474C204.699 103.136 202.605 103.136 199.813 104.881Z" fill="white"/>
<path d="M173.986 78.5295C173.84 77.08 173.782 75.6232 173.811 74.1667C173.775 75.6232 173.833 77.0805 173.986 78.5295Z" fill="#FFD580"/>
<path d="M187.245 67.8846C187.723 56.5823 190.266 45.463 194.749 35.0768C196.208 31.7621 197.899 28.5547 199.81 25.4787L194.051 21.9885C192.655 24.2572 190.561 27.2238 188.467 31.063C184.802 37.6944 161.942 81.8454 180.265 81.4964C187.943 81.3219 187.071 73.2944 187.245 67.8846Z" fill="white"/>
<path d="M186.2 57.9373C188.294 56.7157 191.784 57.9373 193.704 59.5079C195.623 61.0785 195.972 62.4745 198.416 63.8706C199.271 64.4323 200.215 64.8453 201.208 65.0922C201.056 65.8383 200.998 66.6003 201.033 67.3608C201.033 69.4549 201.906 71.7236 201.382 73.4687C200.859 75.2138 199.986 75.3883 198.765 76.0863C197.39 76.55 196.219 77.4748 195.449 78.7039C194.402 80.449 194.576 82.7177 193.529 84.2883C192.482 85.8589 190.563 85.5098 189.341 85.6843C187.753 85.8797 186.146 85.5089 184.804 84.6373C183.757 83.7647 184.455 82.8922 184.978 81.6706C186.261 80.0962 186.941 78.1166 186.898 76.0863C186.898 73.8177 185.851 73.4687 184.978 70.153C184.147 67.7439 183.907 65.1701 184.28 62.6491C184.629 60.5549 184.978 58.8098 186.2 57.9373Z" fill="#FFB091"/>
<path d="M186.547 58.1117C187.07 58.6353 186.372 59.3333 186.896 60.9039C187.419 62.4745 187.594 61.9509 189.164 63.8706C189.959 64.6846 190.608 65.6291 191.084 66.6627C191.771 67.8825 191.959 69.3212 191.607 70.6764C190.735 69.8039 189.688 67.7098 188.466 69.2804C188.178 69.7803 188.012 70.3411 187.982 70.9173C187.952 71.4935 188.058 72.0687 188.292 72.596C188.815 73.6431 189.862 73.8176 190.909 74.5157C191.956 75.2137 190.56 78.7039 189.862 79.7509C188.968 80.8182 187.831 81.656 186.547 82.1941C185.167 82.7792 183.682 83.0762 182.184 83.0666C180.378 83.0583 178.616 82.5114 177.123 81.496C175.295 80.1876 173.996 78.2689 173.458 76.0862C172.892 73.5161 173.136 70.8337 174.156 68.4078C175.319 65.1681 177.452 62.3652 180.264 60.3804C182.533 58.8098 185.674 57.2392 186.547 58.1117Z" fill="#933A3A"/>
<path d="M179.569 73.9922C179.569 79.053 175.031 83.0667 169.447 83.0667C166.93 83.1619 164.476 82.2639 162.615 80.5662C160.755 78.8686 159.636 76.5074 159.5 73.9922C159.822 71.5586 161.017 69.3249 162.863 67.7069C164.709 66.0888 167.08 65.1968 169.534 65.1968C171.989 65.1968 174.36 66.0888 176.206 67.7069C178.052 69.3249 179.247 71.5586 179.569 73.9922Z" fill="#933A3A"/>
<path d="M169.798 261.241L160.898 260.02C159.833 257.161 158.61 254.365 157.233 251.643C156.011 249.549 153.219 246.582 152.696 244.314C152.536 243.717 152.515 243.092 152.637 242.487C152.758 241.882 153.017 241.312 153.394 240.824C153.9 240.352 154.263 239.747 154.441 239.078C154.615 238.729 154.615 238.38 154.79 238.031C156.078 237.84 157.391 238.152 158.454 238.904C159.388 239.712 160.007 240.825 160.2 242.045C160.83 244.489 161.647 246.881 162.643 249.2C163.166 250.422 163.864 251.469 164.388 252.69C164.911 253.912 164.911 254.086 166.133 254.435C167.34 254.757 168.392 255.5 169.099 256.529C169.403 257.019 169.638 257.547 169.798 258.1C169.988 259.138 169.988 260.203 169.798 261.241Z" fill="#FF5437"/>
<path d="M169.798 258.1C169.972 258.798 170.321 260.368 169.798 261.066C169.274 261.764 166.656 261.415 165.609 261.415C164.075 261.633 162.515 261.258 161.246 260.368C159.949 259.074 159.042 257.442 158.629 255.657C158.011 253.576 157.131 251.582 156.011 249.723C154.585 248.138 153.461 246.304 152.696 244.314C151.997 241.87 154.092 239.427 156.186 241.87C156.767 242.715 157.182 243.662 157.407 244.663C158.269 246.877 159.381 248.984 160.723 250.945C161.868 252.877 163.278 254.639 164.911 256.18C165.784 256.878 169.448 257.053 169.798 258.1Z" fill="#753838"/>
<path d="M138.735 260.369C136.99 260.369 131.406 261.59 130.184 260.543C128.962 259.496 128.09 253.039 127.566 250.945C127.043 248.851 124.076 244.663 125.821 240.998L127.043 239.078L128.439 237.508C129.36 237.489 130.267 237.731 131.057 238.206C133.674 239.776 134.372 244.139 133.849 246.931C133.667 248.521 133.846 250.132 134.372 251.643C134.975 253.087 135.866 254.394 136.99 255.482C138.029 256.491 138.965 257.602 139.782 258.798C140.131 259.671 139.957 260.369 138.735 260.369Z" fill="#FF5437"/>
<path d="M138.732 260.368C136.987 260.368 131.402 261.59 130.181 260.543C128.959 259.496 128.087 253.039 127.563 250.945C127.04 248.851 126.167 247.804 125.469 246.059C125.189 245.33 125.06 244.552 125.09 243.772C125.12 242.992 125.308 242.226 125.643 241.521C125.988 241.086 126.481 240.793 127.027 240.696C127.574 240.6 128.137 240.707 128.61 240.998C129.522 241.824 130.136 242.928 130.355 244.139C130.704 245.884 130.704 247.629 131.053 249.374C131.551 251.375 132.503 253.233 133.834 254.807C135.166 256.38 136.842 257.627 138.732 258.449L139.779 258.798C140.128 259.67 139.953 260.368 138.732 260.368Z" fill="#753838"/>
<path d="M163.159 130.708C162.81 130.708 162.635 130.708 162.635 130.359L161.937 128.439L162.286 127.741C162.635 127.741 162.984 127.916 162.984 128.09L163.682 130.01C163.682 130.359 163.508 130.708 163.333 130.708H163.159Z" fill="white"/>
<path d="M171.192 130.882V131.58L169.971 133.151C169.888 133.234 169.78 133.288 169.664 133.303C169.547 133.317 169.429 133.293 169.329 133.232C169.228 133.172 169.15 133.079 169.109 132.97C169.067 132.86 169.063 132.739 169.098 132.627L170.145 130.882C170.248 130.756 170.391 130.67 170.55 130.638C170.709 130.606 170.875 130.631 171.018 130.708L171.192 130.882Z" fill="white"/>
<path d="M165.081 136.816C165.099 136.953 165.075 137.094 165.013 137.218C164.951 137.342 164.853 137.445 164.732 137.514L162.987 138.386C162.812 138.561 162.463 138.386 162.289 138.037C162.114 137.688 162.289 137.514 162.463 137.339L164.383 136.467C164.558 136.292 164.907 136.467 165.081 136.641V136.816Z" fill="white"/>
<path d="M181.837 159.153C181.837 159.327 181.837 159.676 181.662 159.676L179.743 160.723C179.605 160.741 179.465 160.718 179.34 160.656C179.216 160.593 179.113 160.496 179.045 160.374C178.87 160.2 179.045 159.851 179.219 159.676L181.139 158.804C181.162 158.711 181.221 158.632 181.303 158.583C181.385 158.534 181.482 158.519 181.575 158.542C181.668 158.565 181.747 158.624 181.796 158.706C181.845 158.788 181.86 158.886 181.837 158.978V159.153Z" fill="white"/>
<path d="M179.045 135.419C179.045 135.594 178.87 135.943 178.696 135.943L176.776 136.99C176.427 137.164 176.078 136.99 176.078 136.815C176.078 136.641 175.903 136.117 176.252 135.943L178.172 135.07C178.195 134.978 178.254 134.898 178.336 134.849C178.418 134.8 178.516 134.785 178.608 134.809C178.701 134.832 178.78 134.891 178.83 134.973C178.879 135.054 178.893 135.152 178.87 135.245L179.045 135.419Z" fill="white"/>
<path d="M166.653 153.743C166.653 153.918 166.479 154.267 166.304 154.267L164.384 155.314C164.21 155.488 163.861 155.314 163.686 154.965C163.512 154.616 163.686 154.441 163.861 154.267L165.781 153.22C166.13 153.22 166.479 153.22 166.653 153.569V153.743Z" fill="white"/>
<path d="M169.096 160.549C169.27 160.374 169.619 160.549 169.794 160.724L171.19 162.12C171.539 162.469 171.539 162.818 171.19 162.992H170.492L168.921 161.422C168.836 161.326 168.788 161.201 168.788 161.073C168.788 160.944 168.836 160.819 168.921 160.724L169.096 160.549Z" fill="white"/>
<path d="M182.008 145.716H181.31L179.565 144.668C179.481 144.586 179.428 144.478 179.413 144.361C179.398 144.245 179.423 144.127 179.483 144.026C179.544 143.926 179.636 143.848 179.746 143.806C179.855 143.765 179.976 143.761 180.088 143.796L181.833 144.843C182.182 145.018 182.357 145.367 182.182 145.541L182.008 145.716Z" fill="white"/>
<path d="M171.888 143.621C171.888 143.796 171.714 144.145 171.539 144.145L169.62 145.192C169.445 145.367 169.096 145.192 168.922 144.843C168.747 144.494 168.922 144.319 169.096 144.145L171.016 143.272C171.365 143.098 171.714 143.098 171.888 143.447V143.621Z" fill="white"/>
<path d="M149.725 161.945C149.755 161.989 149.774 162.04 149.781 162.093C149.788 162.145 149.783 162.199 149.767 162.25C149.75 162.3 149.722 162.346 149.684 162.384C149.647 162.422 149.601 162.451 149.551 162.469L147.631 163.516C147.282 163.69 146.933 163.516 146.933 163.167C146.887 163.155 146.844 163.135 146.806 163.107C146.768 163.079 146.736 163.043 146.712 163.003C146.688 162.962 146.672 162.917 146.665 162.871C146.658 162.824 146.66 162.776 146.672 162.73C146.683 162.685 146.703 162.641 146.731 162.603C146.76 162.566 146.795 162.533 146.835 162.509C146.876 162.485 146.921 162.469 146.968 162.462C147.014 162.455 147.062 162.457 147.108 162.469L149.027 161.422C149.165 161.404 149.305 161.427 149.43 161.489C149.554 161.552 149.657 161.65 149.725 161.771V161.945Z" fill="white"/>
<path d="M147.456 177.651C147.456 177.826 147.456 178.175 147.107 178.175L145.188 179.222C145.013 179.396 144.664 179.222 144.49 179.047C144.429 178.884 144.431 178.705 144.495 178.543C144.56 178.382 144.682 178.251 144.839 178.175L146.584 177.302C146.727 177.225 146.892 177.2 147.051 177.232C147.211 177.264 147.354 177.351 147.456 177.477V177.651Z" fill="white"/>
<path d="M160.544 161.771C160.544 162.12 160.544 162.294 160.195 162.469L158.45 163.341C158.307 163.418 158.142 163.443 157.983 163.411C157.823 163.379 157.68 163.293 157.578 163.167C157.517 163.004 157.519 162.824 157.583 162.663C157.648 162.501 157.77 162.37 157.927 162.294L159.672 161.422C159.815 161.345 159.98 161.32 160.14 161.352C160.299 161.384 160.442 161.47 160.544 161.596V161.771Z" fill="white"/>
<path d="M154.958 152.696C154.958 152.871 154.958 153.22 154.609 153.22L152.864 154.267C152.702 154.328 152.522 154.326 152.361 154.261C152.199 154.196 152.068 154.074 151.992 153.918C151.817 153.743 151.992 153.394 152.341 153.22L154.086 152.173C154.435 152.173 154.784 152.173 154.958 152.522V152.696Z" fill="white"/>
<path d="M176.775 151.824C176.775 152.173 176.775 152.347 176.426 152.522L174.681 153.394C174.538 153.471 174.373 153.496 174.213 153.464C174.054 153.432 173.911 153.346 173.809 153.22C173.748 153.057 173.75 152.877 173.814 152.716C173.879 152.554 174.001 152.423 174.158 152.347L175.903 151.475C176.046 151.398 176.211 151.373 176.37 151.405C176.53 151.437 176.673 151.523 176.775 151.649V151.824Z" fill="white"/>
<path d="M181.135 178.524C181.135 178.698 181.135 178.873 180.786 179.047L179.041 179.92C178.692 180.094 178.517 179.92 178.342 179.745C178.168 179.571 178.343 179.047 178.517 179.047L180.262 178C180.611 178 180.96 178 181.135 178.349V178.524Z" fill="white"/>
<path d="M166.65 171.194C166.65 171.369 166.476 171.718 166.302 171.718L164.382 172.765C164.207 172.939 163.858 172.765 163.684 172.59C163.607 172.447 163.582 172.282 163.614 172.122C163.646 171.963 163.732 171.82 163.858 171.718L165.778 170.845C166.127 170.671 166.476 170.671 166.65 171.02V171.194Z" fill="white"/>
<path d="M160.717 179.919C160.747 179.964 160.766 180.014 160.773 180.067C160.78 180.12 160.775 180.173 160.758 180.224C160.741 180.274 160.713 180.32 160.676 180.358C160.638 180.396 160.593 180.425 160.542 180.443L158.623 181.49C158.274 181.665 157.925 181.49 157.925 181.315C157.925 181.141 157.75 180.617 158.099 180.443L160.019 179.57C160.193 179.396 160.542 179.57 160.717 179.745V179.919Z" fill="white"/>
<path d="M169.97 176.779C170.319 176.604 170.494 176.604 170.668 176.953L172.239 178.349C172.338 178.473 172.392 178.627 172.392 178.786C172.392 178.944 172.338 179.098 172.239 179.222H171.366L169.97 177.651C169.621 177.477 169.621 177.128 169.97 176.779Z" fill="white"/>
<path d="M169.095 184.806C169.191 184.72 169.316 184.672 169.444 184.672C169.573 184.672 169.697 184.72 169.793 184.806L171.189 186.376C171.538 186.551 171.538 186.9 171.189 187.249C171.093 187.335 170.969 187.382 170.84 187.382C170.712 187.382 170.587 187.335 170.491 187.249L168.921 185.678C168.822 185.555 168.768 185.401 168.768 185.242C168.768 185.083 168.822 184.93 168.921 184.806H169.095Z" fill="white"/>
<path d="M154.962 170.147C154.962 170.322 154.962 170.671 154.612 170.671L152.867 171.718C152.724 171.795 152.559 171.82 152.4 171.788C152.24 171.756 152.097 171.669 151.995 171.543C151.934 171.381 151.936 171.201 152.001 171.04C152.065 170.878 152.188 170.747 152.344 170.671L154.089 169.798C154.438 169.624 154.787 169.624 154.962 169.973V170.147Z" fill="white"/>
<path d="M176.772 169.275C176.772 169.624 176.772 169.798 176.423 169.973L174.678 170.845C174.329 171.02 173.98 171.02 173.806 170.671C173.631 170.322 173.806 169.973 174.155 169.973L175.9 168.926C176.043 168.849 176.208 168.824 176.367 168.856C176.527 168.888 176.67 168.974 176.772 169.1V169.275Z" fill="white"/>
<path d="M187.596 134.896C187.596 135.032 187.564 135.165 187.504 135.286C187.443 135.408 187.355 135.513 187.247 135.594L185.327 136.467C184.978 136.641 184.804 136.467 184.629 136.292C184.455 136.118 184.454 135.594 184.804 135.42L186.723 134.547C186.898 134.373 187.247 134.547 187.421 134.722L187.596 134.896Z" fill="white"/>
<path d="M155.655 135.769C155.562 135.769 155.473 135.732 155.408 135.667C155.343 135.601 155.306 135.512 155.306 135.42L154.957 133.326C154.957 132.977 155.131 132.802 155.48 132.628C155.619 132.628 155.752 132.683 155.85 132.781C155.949 132.879 156.004 133.012 156.004 133.151L156.353 135.245C156.353 135.384 156.298 135.517 156.2 135.615C156.101 135.714 155.968 135.769 155.829 135.769H155.655Z" fill="white"/>
<path d="M152.864 144.494L152.341 143.971L151.991 141.877C151.991 141.738 152.047 141.605 152.145 141.506C152.243 141.408 152.376 141.353 152.515 141.353C152.864 141.353 153.039 141.528 153.039 141.702L153.388 143.796C153.562 144.145 153.213 144.32 153.039 144.494H152.864Z" fill="white"/>
<path d="M161.594 145.716C161.594 145.891 161.594 146.24 161.419 146.24L159.849 147.636C159.706 147.713 159.54 147.737 159.381 147.705C159.222 147.674 159.078 147.587 158.976 147.461C158.801 147.287 158.976 146.938 159.151 146.763L160.721 145.542C160.896 145.193 161.245 145.367 161.419 145.542L161.594 145.716Z" fill="white"/>
<path d="M193.185 65.6158C193.086 64.4276 193.265 63.2326 193.708 62.1256C193.883 61.6021 193.185 61.4276 193.01 61.9511C192.486 63.1583 192.305 64.4868 192.487 65.7903C192.661 66.1394 193.359 65.9648 193.185 65.6158Z" fill="#AB3B38"/>
<path d="M194.754 66.4886C195.435 65.8806 196.024 65.1749 196.499 64.3945C196.848 64.0454 196.15 63.6964 195.975 64.0454L194.23 65.9651C194.056 66.1396 194.405 66.6631 194.754 66.4886Z" fill="#AB3B38"/>
<path d="M200.166 69.2807C199.27 69.6001 198.302 69.6606 197.373 69.4552C196.85 69.2807 196.675 69.9788 197.199 70.1533C198.313 70.3889 199.474 70.2668 200.515 69.8043C201.038 69.6297 200.689 69.1062 200.166 69.2807Z" fill="#AB3B38"/>
</g>
<defs>
<clipPath id="clip0_282_67136">
<rect width="445" height="333.314" fill="white"/>
</clipPath>
</defs>
</svg>
