<svg width="65" height="65" viewBox="0 0 65 65" fill="none" xmlns="http://www.w3.org/2000/svg">
<rect width="65" height="65" rx="20" fill="white"/>
<path d="M46.4489 35.4791C46.2856 35.591 42.8979 39.1229 42.8979 41.6016C42.8979 44.2151 44.5829 45.8839 46.4489 45.9749C48.0576 46.0519 50 44.4163 50 41.6016C50 38.9777 46.6123 35.591 46.4489 35.4791ZM27.9586 45.9749C28.6297 46.6361 29.521 47 30.4692 47C31.4173 47 32.3086 46.6361 32.9798 45.9749L45.4085 33.7298L44.1532 32.493L30.4692 19.0112L26.3979 15L23.8873 17.4735L27.9586 21.4847L18.0405 31.2563C17.3693 31.9175 17 32.7957 17 33.7298C17 34.6639 17.3693 35.5421 18.0405 36.2033L27.9586 45.9749ZM30.4692 23.9582L40.3873 33.7298H20.5511L30.4692 23.9582Z" fill="#0052B9"/>
</svg>
