<svg width="65" height="65" viewBox="0 0 65 65" fill="none" xmlns="http://www.w3.org/2000/svg">
<rect width="65" height="65" rx="20" fill="white"/>
<path d="M24.5 29.5C25.8807 29.5 27 28.3807 27 27C27 25.6193 25.8807 24.5 24.5 24.5C23.1193 24.5 22 25.6193 22 27C22 28.3807 23.1193 29.5 24.5 29.5Z" fill="#9B51E0"/>
<path d="M32 25.75C33.3807 25.75 34.5 24.6307 34.5 23.25C34.5 21.8693 33.3807 20.75 32 20.75C30.6193 20.75 29.5 21.8693 29.5 23.25C29.5 24.6307 30.6193 25.75 32 25.75Z" fill="#9B51E0"/>
<path d="M39.5 29.5C40.8807 29.5 42 28.3807 42 27C42 25.6193 40.8807 24.5 39.5 24.5C38.1193 24.5 37 25.6193 37 27C37 28.3807 38.1193 29.5 39.5 29.5Z" fill="#9B51E0"/>
<path d="M40.75 37C42.1307 37 43.25 35.8807 43.25 34.5C43.25 33.1193 42.1307 32 40.75 32C39.3693 32 38.25 33.1193 38.25 34.5C38.25 35.8807 39.3693 37 40.75 37Z" fill="#9B51E0"/>
<path d="M35.75 43.25C37.1307 43.25 38.25 42.1307 38.25 40.75C38.25 39.3693 37.1307 38.25 35.75 38.25C34.3693 38.25 33.25 39.3693 33.25 40.75C33.25 42.1307 34.3693 43.25 35.75 43.25Z" fill="#9B51E0"/>
<path d="M32.7255 13.0141C30.1704 12.9155 27.6216 13.3338 25.2321 14.2441C22.8425 15.1543 20.6614 16.5377 18.8194 18.3112C16.9774 20.0848 15.5125 22.2121 14.5125 24.5655C13.5126 26.9189 12.9981 29.45 13 32.0071C12.9999 33.0128 13.2319 34.0049 13.6777 34.9064C14.1236 35.8079 14.7714 36.5944 15.5707 37.2047C16.37 37.815 17.2994 38.2328 18.2865 38.4254C19.2735 38.6181 20.2918 38.5804 21.2619 38.3154L22.7814 37.8949C23.3858 37.7299 24.0202 37.7067 24.6351 37.827C25.2499 37.9474 25.8287 38.2081 26.3263 38.5889C26.8239 38.9696 27.2269 39.4601 27.5039 40.0222C27.7808 40.5842 27.9243 41.2026 27.923 41.8291V46.9301C27.923 48.0095 28.3518 49.0447 29.1151 49.8079C29.8783 50.5712 30.9135 51 31.9929 51C34.55 51.0019 37.0811 50.4874 39.4345 49.4875C41.7879 48.4875 43.9152 47.0226 45.6888 45.1806C47.4623 43.3386 48.8457 41.1575 49.7559 38.7679C50.6662 36.3784 51.0845 33.8296 50.9859 31.2745C50.789 26.4946 48.802 21.9635 45.4192 18.5808C42.0365 15.198 37.5054 13.211 32.7255 13.0141ZM43.7279 43.2807C42.2131 44.8667 40.3917 46.1283 38.3745 46.9888C36.3572 47.8493 34.1861 48.2909 31.9929 48.2867C31.6331 48.2867 31.2881 48.1438 31.0336 47.8894C30.7792 47.6349 30.6363 47.2899 30.6363 46.9301V41.8291C30.6363 40.0301 29.9216 38.3048 28.6495 37.0327C27.3775 35.7606 25.6521 35.0459 23.8531 35.0459C23.2435 35.047 22.6367 35.1291 22.0488 35.2901L20.5293 35.7107C19.9618 35.8628 19.3669 35.8821 18.7907 35.7672C18.2145 35.6523 17.6726 35.4062 17.2068 35.048C16.7411 34.6899 16.3641 34.2293 16.1051 33.7019C15.8461 33.1745 15.712 32.5946 15.7133 32.0071C15.7116 29.8145 16.1528 27.6441 17.0106 25.6262C17.8683 23.6084 19.1248 21.7845 20.7047 20.2642C22.2846 18.7438 24.1553 17.5583 26.2046 16.7787C28.2539 15.9991 30.4396 15.6415 32.6306 15.7274C36.7102 15.9399 40.5666 17.6561 43.4552 20.5448C46.3439 23.4334 48.0601 27.2898 48.2726 31.3694C48.366 33.5617 48.0111 35.75 47.2296 37.8004C46.4482 39.8508 45.2566 41.7202 43.7279 43.2943V43.2807Z" fill="#9B51E0"/>
</svg>
