<svg width="65" height="65" viewBox="0 0 65 65" fill="none" xmlns="http://www.w3.org/2000/svg">
<rect width="65" height="65" rx="20" fill="white"/>
<path fill-rule="evenodd" clip-rule="evenodd" d="M24.2941 14.1679C24.012 14.0969 23.7137 14.1307 23.4547 14.2632C23.1957 14.3956 22.9936 14.6176 22.8861 14.8879L20.4114 21.0746L14.2221 23.5546C14.0514 23.623 13.8987 23.7298 13.7759 23.8667C13.653 24.0035 13.5632 24.1668 13.5135 24.3438C13.4637 24.5209 13.4554 24.707 13.489 24.8878C13.5226 25.0686 13.5973 25.2393 13.7074 25.3866L17.3634 30.2639L14.8354 40.3759C14.7662 40.6545 14.7992 40.9487 14.9284 41.2051C15.0575 41.4615 15.2743 41.6631 15.5394 41.7733L23.2008 44.9679L27.0008 50.6666C27.1418 50.8781 27.3465 51.0394 27.5852 51.1271C27.8239 51.2148 28.0842 51.2244 28.3288 51.1546L37.6621 48.4879C37.6782 48.483 37.6942 48.4776 37.7101 48.4719L45.7101 45.8053C45.9069 45.7396 46.0834 45.624 46.2222 45.4697C46.361 45.3155 46.4574 45.1279 46.5021 44.9253L49.1688 32.9253C49.2186 32.7003 49.2025 32.4658 49.1226 32.2496C49.0427 32.0335 48.9023 31.845 48.7181 31.7066L43.8648 28.0666V21.9999C43.8645 21.7772 43.8022 21.559 43.6849 21.3697C43.5676 21.1804 43.4 21.0274 43.2008 20.9279L35.2008 16.9279C35.1226 16.8879 35.0404 16.8566 34.9554 16.8346L24.2888 14.1679H24.2941ZM42.4861 30.0319L46.0674 32.7173L39.2328 38.4106C39.0609 38.5538 38.9325 38.7422 38.8621 38.9546L36.6754 45.5066L32.6354 42.9813C32.5016 42.8977 32.3527 42.8414 32.1972 42.8154C32.0416 42.7894 31.8825 42.7944 31.7288 42.8299C31.5752 42.8654 31.43 42.9309 31.3017 43.0225C31.1733 43.1141 31.0643 43.2302 30.9808 43.3639C30.8972 43.4977 30.8409 43.6466 30.8149 43.8022C30.7889 43.9577 30.7939 44.1169 30.8294 44.2705C30.8649 44.4242 30.9304 44.5693 31.022 44.6977C31.1136 44.826 31.2296 44.9351 31.3634 45.0186L34.4088 46.9199L28.5154 48.6053L24.9954 43.3333C24.8647 43.1374 24.6792 42.9844 24.4621 42.8933L17.4141 39.9573L19.6034 31.1999H25.3341C25.4917 31.1999 25.6477 31.1689 25.7933 31.1086C25.9389 31.0483 26.0712 30.9599 26.1826 30.8484C26.294 30.737 26.3824 30.6047 26.4427 30.4591C26.503 30.3136 26.5341 30.1575 26.5341 29.9999C26.5341 29.8423 26.503 29.6863 26.4427 29.5407C26.3824 29.3951 26.294 29.2628 26.1826 29.1514C26.0712 29.04 25.9389 28.9516 25.7933 28.8913C25.6477 28.831 25.4917 28.7999 25.3341 28.7999H19.2674L16.5661 25.1999L21.3714 23.2773L28.9554 25.8053C29.1881 25.8824 29.4388 25.8864 29.6738 25.8168C29.9089 25.7472 30.1169 25.6073 30.2701 25.4159L34.9981 19.5066L41.4674 22.7413V27.8533L35.5554 30.2186C35.3933 30.2834 35.2472 30.3829 35.1275 30.51C35.0077 30.6371 34.9171 30.7888 34.8621 30.9546L33.5288 34.9546C33.478 35.1044 33.4573 35.2628 33.4679 35.4206C33.4785 35.5784 33.5203 35.7326 33.5907 35.8742C33.6611 36.0158 33.7588 36.1422 33.8783 36.2459C33.9977 36.3496 34.1364 36.4287 34.2865 36.4786C34.4366 36.5286 34.5951 36.5483 34.7529 36.5367C34.9106 36.5252 35.0645 36.4826 35.2058 36.4113C35.347 36.34 35.4727 36.2416 35.5757 36.1215C35.6788 36.0015 35.7571 35.8623 35.8061 35.7119L36.9608 32.2399L42.4834 30.0319H42.4861ZM32.5634 18.7093L28.9208 23.2639L22.9208 21.2639L24.7261 16.7519L32.5634 18.7093ZM39.2301 45.4373L44.3101 43.7439L46.0674 35.8399L41.0301 40.0373L39.2301 45.4373Z" fill="#2D9CDB"/>
<line x1="16.1213" y1="17" x2="48" y2="48.8787" stroke="#FE3501" stroke-width="3" stroke-linecap="round"/>
</svg>
