<svg width="65" height="65" viewBox="0 0 65 65" fill="none" xmlns="http://www.w3.org/2000/svg">
<rect width="65" height="65" rx="20" fill="white"/>
<path d="M48.6665 30.4166V29.8666L48.5165 28.8666L48.3665 28.2166C48.3665 27.9333 48.2332 27.6499 48.1499 27.3666C48.0665 27.0833 48.0165 26.9166 47.9332 26.6999C47.8867 26.5689 47.8477 26.4354 47.8165 26.2999V26.2166C46.9726 23.9716 45.6587 21.9329 43.9628 20.237C42.2669 18.5411 40.2282 17.2272 37.9832 16.3833H37.8999L37.5165 16.2666L36.8165 16.0499C36.5665 16.0499 36.2999 15.9166 36.0499 15.8499L35.2832 15.6833L34.5165 15.5666C34.2499 15.5666 33.9999 15.5666 33.7165 15.4666C33.4332 15.3666 33.1332 15.4666 32.8499 15.4666L31.9999 15.3333H30.4832C30.1999 15.3333 29.9499 15.3333 29.6832 15.4333L28.9165 15.5499L28.1499 15.7166C27.8999 15.7166 27.6332 15.8333 27.3832 15.9166L26.6832 16.1333L26.2999 16.2499H26.2165C23.9716 17.0939 21.9329 18.4078 20.237 20.1037C18.5411 21.7996 17.2271 23.8383 16.3832 26.0833V26.1666C16.352 26.3021 16.3131 26.4356 16.2665 26.5666C16.2665 26.7833 16.1165 26.9999 16.0499 27.2333C15.9832 27.4666 15.8999 27.7999 15.8332 28.0833L15.6832 28.7333L15.5332 29.7333V33.9999L15.6832 34.9999L15.8332 35.6499C15.8332 35.9333 15.9665 36.2166 16.0499 36.4999C16.1332 36.7833 16.1832 36.9499 16.2665 37.1666C16.3131 37.2976 16.352 37.4311 16.3832 37.5666C16.3864 37.6054 16.3864 37.6444 16.3832 37.6833C17.2198 39.9259 18.5296 41.962 20.2236 43.653C21.9175 45.3441 23.9558 46.6505 26.1999 47.4833H26.2832L26.6832 47.5999L27.3499 47.8166L28.1999 48.0333L28.8499 48.1833L29.8499 48.3333H30.3999C30.9165 48.3333 31.4499 48.4166 31.9832 48.4166C32.5165 48.4166 33.0499 48.4166 33.5665 48.3333H34.1165L35.1165 48.1833L35.7665 48.0333L36.6165 47.8166L37.2832 47.5999L37.6832 47.4833H37.7665C40.0106 46.6505 42.0489 45.3441 43.7428 43.653C45.4368 41.962 46.7466 39.9259 47.5832 37.6833C47.58 37.6444 47.58 37.6054 47.5832 37.5666C47.5832 37.4333 47.6665 37.2999 47.6999 37.1666C47.7332 37.0333 47.8499 36.7333 47.9165 36.4999C47.9832 36.2666 48.0665 35.9333 48.1332 35.6499L48.2832 34.9999L48.4332 33.9999V33.4499C48.4332 32.9333 48.5165 32.3999 48.5165 31.8666C48.5165 31.3333 48.6665 30.9333 48.6665 30.4166ZM38.1665 20.1499C40.6439 21.4227 42.6604 23.4393 43.9332 25.9166L39.1665 27.5833C38.4756 26.4758 37.5407 25.5409 36.4332 24.8499L38.1665 20.1499ZM29.2332 18.9833C29.5832 18.8999 29.9165 18.8499 30.2499 18.7999H30.6499C31.6028 18.6999 32.5636 18.6999 33.5165 18.7999H33.9165C34.2499 18.7999 34.5832 18.8999 34.9332 18.9833H35.0332L33.3665 23.7499C32.9145 23.6804 32.457 23.6525 31.9999 23.6666C31.5922 23.666 31.1853 23.6995 30.7832 23.7666L29.1165 18.9999L29.2332 18.9833ZM25.9999 20.1499L27.6665 24.9166C26.553 25.6056 25.6123 26.5406 24.9165 27.6499L20.1499 25.9833C21.4114 23.4812 23.4291 21.4401 25.9165 20.1499H25.9999ZM18.9832 34.8499C18.9034 34.5211 18.8477 34.1869 18.8165 33.8499V33.4333C18.7054 32.4809 18.7054 31.5189 18.8165 30.5666V30.1499C18.8477 29.813 18.9034 29.4788 18.9832 29.1499V29.0499L23.7499 30.7166C23.6165 31.5222 23.6165 32.3443 23.7499 33.1499L18.9832 34.8166V34.8499ZM25.9165 43.8499C23.4392 42.5772 21.4226 40.5606 20.1499 38.0833L24.9165 36.4166C25.6075 37.524 26.5424 38.459 27.6499 39.1499L25.9165 43.8499ZM34.8499 45.0166C34.4999 45.0999 34.1665 45.1499 33.8332 45.1999H33.4332C32.4803 45.2999 31.5195 45.2999 30.5665 45.1999H30.1665C29.8332 45.1999 29.4999 45.0999 29.1499 45.0166H29.0499L30.7165 40.2499C31.5222 40.3833 32.3442 40.3833 33.1499 40.2499L34.8165 45.0166H34.8499ZM33.7332 36.6833C33.4499 36.7833 33.1665 36.8499 32.8999 36.9166C32.3491 37.0192 31.784 37.0192 31.2332 36.9166C30.9665 36.9166 30.6832 36.7833 30.3999 36.6833C29.6964 36.4403 29.0561 36.0435 28.5255 35.5216C27.995 34.9997 27.5876 34.3659 27.3332 33.6666C27.2323 33.3901 27.1543 33.1058 27.0999 32.8166C26.9933 32.2661 26.9933 31.7004 27.0999 31.1499C27.1506 30.8724 27.223 30.5994 27.3165 30.3333C27.5678 29.6421 27.9684 29.0149 28.4899 28.4964C29.0113 27.9778 29.6407 27.5807 30.3332 27.3333C30.6165 27.2333 30.8999 27.1666 31.1665 27.0999C31.7174 26.9973 32.2824 26.9973 32.8332 27.0999C33.0999 27.0999 33.3832 27.2333 33.6665 27.3333C34.356 27.5828 34.9821 27.9808 35.5005 28.4993C36.0189 29.0177 36.417 29.6438 36.6665 30.3333C36.7674 30.6097 36.8455 30.894 36.8999 31.1833C37.0065 31.7337 37.0065 32.2995 36.8999 32.8499C36.8455 33.1392 36.7674 33.4234 36.6665 33.6999C36.4129 34.3832 36.013 35.0027 35.4948 35.5152C34.9766 36.0276 34.3526 36.4206 33.6665 36.6666L33.7332 36.6833ZM38.0832 43.8666L36.4165 39.0999C37.524 38.409 38.4589 37.474 39.1499 36.3666L43.9165 38.0333C42.6348 40.5393 40.5929 42.5754 38.0832 43.8499V43.8666ZM45.3332 33.4333V33.8499C45.3021 34.1869 45.2464 34.5211 45.1665 34.8499V34.9499L40.3999 33.2833C40.5332 32.4776 40.5332 31.6556 40.3999 30.8499L45.1665 29.1833V29.2833C45.2464 29.6121 45.3021 29.9463 45.3332 30.2833V30.6999C45.4443 31.6522 45.4443 32.6143 45.3332 33.5666V33.4333Z" fill="#F2994A"/>
</svg>
