<svg width="65" height="65" viewBox="0 0 65 65" fill="none" xmlns="http://www.w3.org/2000/svg">
<rect width="65" height="65" rx="20" fill="white"/>
<path d="M20.0958 24.1C17.473 26.7274 16 30.2879 16 34C16 37.7121 17.473 41.2726 20.0958 43.9C22.8362 46.64 26.4168 48 29.9973 48C33.5778 48 37.1584 46.64 39.8988 43.9C46.8598 36.94 48 16 48 16C48 16 27.0569 17.14 20.0958 24.1ZM37.0784 41.08C35.1781 42.96 32.6777 44 29.9973 44C28.217 44 26.5368 43.5 25.0366 42.64C26.8768 36.88 30.2774 31.82 34.798 28C29.5372 30.72 25.1166 34.92 22.0561 40C19.0957 36.08 19.3557 30.5 22.9363 26.92C26.4168 23.44 36.0782 21.3 43.5993 20.4C42.6992 27.92 40.5589 37.58 37.0784 41.08Z" fill="#27AE60"/>
</svg>
