<svg width="65" height="65" viewBox="0 0 65 65" fill="none" xmlns="http://www.w3.org/2000/svg">
<rect width="65" height="65" rx="20" fill="white"/>
<path d="M47.6055 32.8477C48.2617 31.9805 48.625 30.918 48.625 29.8125C48.625 28.0586 47.6445 26.3985 46.0664 25.4727C45.6601 25.2344 45.1976 25.109 44.7266 25.1094H35.3594L35.5938 20.3086C35.6484 19.1485 35.2383 18.0469 34.4414 17.2071C34.0503 16.7931 33.5785 16.4638 33.0551 16.2393C32.5318 16.0149 31.9679 15.9003 31.3984 15.9024C29.3672 15.9024 27.5703 17.2696 27.0312 19.2266L23.6758 31.375H18.625C17.9336 31.375 17.375 31.9336 17.375 32.625V46.8438C17.375 47.5352 17.9336 48.0938 18.625 48.0938H42.1133C42.4727 48.0938 42.8242 48.0235 43.1484 47.8828C45.0078 47.0899 46.207 45.2735 46.207 43.2578C46.207 42.7657 46.1367 42.2813 45.9961 41.8125C46.6523 40.9453 47.0156 39.8828 47.0156 38.7774C47.0156 38.2852 46.9453 37.8008 46.8047 37.3321C47.4609 36.4649 47.8242 35.4024 47.8242 34.2969C47.8164 33.8047 47.7461 33.3164 47.6055 32.8477ZM20.1875 45.2813V34.1875H23.3516V45.2813H20.1875ZM45.0469 31.4922L44.1914 32.2344L44.7344 33.2266C44.9133 33.5534 45.006 33.9204 45.0039 34.293C45.0039 34.9375 44.7227 35.5508 44.2383 35.9727L43.3828 36.7149L43.9258 37.7071C44.1047 38.0339 44.1974 38.4009 44.1953 38.7735C44.1953 39.418 43.9141 40.0313 43.4297 40.4532L42.5742 41.1953L43.1172 42.1875C43.2961 42.5144 43.3888 42.8814 43.3867 43.2539C43.3867 44.1289 42.8711 44.918 42.0742 45.2774H25.8516V34.0625L29.7383 19.9805C29.8385 19.6196 30.0536 19.3011 30.3511 19.0735C30.6486 18.8458 31.0121 18.7213 31.3867 18.7188C31.6836 18.7188 31.9766 18.8047 32.2109 18.9805C32.5977 19.2696 32.8047 19.7071 32.7812 20.1719L32.4062 27.9219H44.6875C45.3828 28.3477 45.8125 29.0664 45.8125 29.8125C45.8125 30.4571 45.5312 31.0664 45.0469 31.4922Z" fill="#2F80ED"/>
<path d="M20.1875 45.2813V34.1875H23.3516V45.2813H20.1875Z" fill="#2F80ED"/>
</svg>
