<svg width="65" height="65" viewBox="0 0 65 65" fill="none" xmlns="http://www.w3.org/2000/svg">
<rect width="65" height="65" rx="20" fill="white"/>
<path d="M45.334 18.6667H40.0507H36.1673H27.834H23.9507H18.6673C16.834 18.6667 15.334 20.1667 15.334 22.0001V42.0001C15.334 43.8334 16.834 45.3334 18.6673 45.3334H45.334C47.1673 45.3334 48.6673 43.8334 48.6673 42.0001V22.0001C48.6673 20.1667 47.1673 18.6667 45.334 18.6667ZM45.334 42.0001H33.634C33.2673 40.6001 32.7673 39.0667 33.4173 38.1167C34.7673 36.2501 37.8673 41.0667 39.7673 37.9667C41.0507 35.3501 37.134 35.8167 37.034 34.4334C36.9507 33.0334 43.1673 34.7167 42.1007 31.6667C41.084 28.7834 38.0673 32.4667 37.5007 30.7834C36.534 27.8834 45.334 27.9834 42.2507 24.1001C39.3173 20.4001 38.134 28.8501 34.9007 27.9834C32.6673 27.3834 33.2173 23.1834 30.484 23.9167C27.3507 24.7667 32.2007 27.5834 30.484 28.6834C28.884 29.7334 27.6173 27.1501 26.3007 26.7001C25.9673 26.5834 25.1507 26.6167 24.784 27.0167C23.484 28.4501 25.2507 28.9501 25.2007 30.2001C25.1673 31.4501 22.5507 31.0167 22.684 32.6834C22.884 35.3501 26.3173 33.4334 26.684 34.7501C27.6007 38.0501 23.534 38.3334 25.8507 40.2001C28.4007 41.3834 29.034 36.9667 30.5173 37.9501C31.484 38.5834 31.0173 40.3667 30.784 42.0001H18.6673V22.0001H25.4173H28.6673H35.334H38.584H45.334V42.0001Z" fill="#EB5757"/>
</svg>
