<svg width="65" height="65" viewBox="0 0 65 65" fill="none" xmlns="http://www.w3.org/2000/svg">
<rect width="65" height="65" rx="20" fill="white"/>
<path d="M34.1985 15L29.7045 22.4077L26.9295 19.6681L25.875 20.8526C20.6505 26.7052 18 32.0227 18 36.6582C18 44.014 24.729 50 33 50C41.271 50 48 44.014 48 36.6582C48 29.5989 40.2045 20.8941 35.5575 16.3342L34.1985 15ZM34.7865 19.7927C38.6505 23.7745 45 31.1554 45 36.6582C45 40.2027 42.93 43.335 39.7845 45.2088C40.233 44.1504 40.5 42.9852 40.5 41.7429C40.5 38.2133 37.9725 34.0254 35.853 31.1362L34.5885 29.4077L31.266 34.3338L29.157 32.248L28.167 33.8638C26.3955 36.7486 25.5 39.4007 25.5 41.7429C25.5 42.9837 25.767 44.1504 26.2155 45.2088C23.07 43.335 21 40.2012 21 36.6582C21 33.1167 23.097 28.7673 27.0855 24.0131L30.2955 27.19L34.7865 19.7927ZM34.656 34.654C36.501 37.4958 37.5 39.9699 37.5 41.7429C37.5 44.6618 35.481 47.0352 33 47.0352C30.519 47.0352 28.5 44.6618 28.5 41.7429C28.5 40.3761 28.935 38.8107 29.7975 37.0748L31.734 38.9871L34.656 34.654Z" fill="#FE3501"/>
<path d="M34.656 34.654C36.501 37.4958 37.5 39.9699 37.5 41.7429C37.5 44.6618 35.481 47.0352 33 47.0352C30.519 47.0352 28.5 44.6618 28.5 41.7429C28.5 40.3761 28.935 38.8107 29.7975 37.0748L31.734 38.9871L34.656 34.654Z" fill="#FE3501"/>
</svg>
