<svg width="23" height="23" viewBox="0 0 23 23" fill="none" xmlns="http://www.w3.org/2000/svg">
<path fill-rule="evenodd" clip-rule="evenodd" d="M6.67716 19.8726C7.14478 19.8726 7.52486 20.2526 7.52486 20.7203C7.52486 21.1879 7.14478 21.5669 6.67716 21.5669C6.20954 21.5669 5.83057 21.1879 5.83057 20.7203C5.83057 20.2526 6.20954 19.8726 6.67716 19.8726Z" stroke="white" stroke-width="1.66216" stroke-linecap="round" stroke-linejoin="round"/>
<path fill-rule="evenodd" clip-rule="evenodd" d="M19.1475 19.8726C19.6151 19.8726 19.9952 20.2526 19.9952 20.7203C19.9952 21.1879 19.6151 21.5669 19.1475 21.5669C18.6799 21.5669 18.2998 21.1879 18.2998 20.7203C18.2998 20.2526 18.6799 19.8726 19.1475 19.8726Z" stroke="white" stroke-width="1.66216" stroke-linecap="round" stroke-linejoin="round"/>
<path d="M1.5 1.51074L3.80486 1.90966L4.87197 14.623C4.9584 15.6591 5.82384 16.4547 6.86324 16.4547H18.9549C19.9478 16.4547 20.7899 15.7255 20.9329 14.7415L21.9845 7.47458C22.1141 6.57812 21.4193 5.77585 20.514 5.77585H4.17497" stroke="white" stroke-width="1.66216" stroke-linecap="round" stroke-linejoin="round"/>
<path d="M14.105 9.87144H17.1778" stroke="white" stroke-width="1.66216" stroke-linecap="round" stroke-linejoin="round"/>
</svg>
