<svg width="21" height="21" viewBox="0 0 21 21" fill="none" xmlns="http://www.w3.org/2000/svg">
<path fill-rule="evenodd" clip-rule="evenodd" d="M5.67245 18.1602C6.09445 18.1602 6.43745 18.5032 6.43745 18.9252C6.43745 19.3472 6.09445 19.6892 5.67245 19.6892C5.25045 19.6892 4.90845 19.3472 4.90845 18.9252C4.90845 18.5032 5.25045 18.1602 5.67245 18.1602Z" stroke="#0052B9" stroke-width="1.5" stroke-linecap="round" stroke-linejoin="round"/>
<path fill-rule="evenodd" clip-rule="evenodd" d="M16.9249 18.1602C17.3469 18.1602 17.6899 18.5032 17.6899 18.9252C17.6899 19.3472 17.3469 19.6892 16.9249 19.6892C16.5029 19.6892 16.1599 19.3472 16.1599 18.9252C16.1599 18.5032 16.5029 18.1602 16.9249 18.1602Z" stroke="#0052B9" stroke-width="1.5" stroke-linecap="round" stroke-linejoin="round"/>
<path d="M1 1.58984L3.08 1.94984L4.043 13.4228C4.121 14.3578 4.902 15.0758 5.84 15.0758H16.752C17.648 15.0758 18.408 14.4178 18.537 13.5298L19.486 6.97184C19.603 6.16284 18.976 5.43884 18.159 5.43884H3.414" stroke="#0052B9" stroke-width="1.5" stroke-linecap="round" stroke-linejoin="round"/>
<path d="M12.3755 9.13489H15.1485" stroke="#0052B9" stroke-width="1.5" stroke-linecap="round" stroke-linejoin="round"/>
</svg>
