<svg width="21" height="21" viewBox="0 0 21 21" fill="none" xmlns="http://www.w3.org/2000/svg">
<path fill-rule="evenodd" clip-rule="evenodd" d="M2.54557 19.8485L19.516 2.87805C19.9847 2.40942 19.9847 1.64963 19.516 1.181C19.0474 0.712377 18.2876 0.712376 17.819 1.181L0.848524 18.1515C0.379897 18.6201 0.379897 19.3799 0.848524 19.8485C1.31715 20.3172 2.07694 20.3172 2.54557 19.8485Z" fill="white"/>
<path fill-rule="evenodd" clip-rule="evenodd" d="M19.819 17.819L2.84852 0.848524C2.3799 0.379897 1.6201 0.379897 1.15148 0.848524C0.68285 1.31715 0.68285 2.07694 1.15148 2.54557L18.1219 19.516C18.5906 19.9847 19.3504 19.9847 19.819 19.516C20.2876 19.0474 20.2876 18.2876 19.819 17.819Z" fill="white"/>
</svg>
