<svg width="350" height="236" viewBox="0 0 350 236" fill="none" xmlns="http://www.w3.org/2000/svg">
<rect width="350" height="236" rx="40" fill="url(#paint0_radial_353_91768)"/>
<path d="M321 199.676H29V199.822H321V199.676Z" fill="#DCDCDC"/>
<path d="M78.9906 209.053H59.6602V209.198H78.9906V209.053Z" fill="#DCDCDC"/>
<path d="M134.004 210.684H108.016V210.829H134.004V210.684Z" fill="#DCDCDC"/>
<path d="M120.688 203.695H79.5742V203.84H120.688V203.695Z" fill="#DCDCDC"/>
<path d="M291.741 204.627H284.324V204.772H291.741V204.627Z" fill="#DCDCDC"/>
<path d="M279.128 204.627H257.637V204.772H279.128V204.627Z" fill="#DCDCDC"/>
<path d="M209.047 207.131H190.885V207.277H209.047V207.131Z" fill="#DCDCDC"/>
<g filter="url(#filter0_d_353_91768)">
<path d="M167.408 173.702H54.6374C53.7592 173.687 52.9212 173.332 52.3002 172.713C51.6791 172.093 51.3236 171.258 51.3086 170.382V12.3202C51.3086 11.8842 51.3947 11.4526 51.562 11.0498C51.7293 10.647 51.9745 10.2811 52.2836 9.97283C52.5927 9.66457 52.9596 9.42005 53.3635 9.25322C53.7674 9.0864 54.2003 9.00053 54.6374 9.00053H167.408C167.847 8.99263 168.284 9.0731 168.691 9.23714C169.098 9.40117 169.469 9.6454 169.779 9.95524C170.09 10.2651 170.335 10.6342 170.499 11.0405C170.664 11.4468 170.745 11.8821 170.737 12.3202V170.382C170.737 171.262 170.386 172.107 169.762 172.729C169.137 173.352 168.291 173.702 167.408 173.702ZM54.6374 9.11701C53.7957 9.13227 52.9936 9.47647 52.4038 10.0755C51.814 10.6746 51.4837 11.4806 51.4838 12.3202V170.382C51.4838 171.216 51.816 172.016 52.4075 172.606C52.9989 173.195 53.801 173.527 54.6374 173.527H167.408C168.25 173.527 169.058 173.197 169.659 172.609C170.259 172.021 170.605 171.221 170.62 170.382V12.3202C170.62 11.4706 170.281 10.6559 169.679 10.0552C169.077 9.45448 168.26 9.11701 167.408 9.11701H54.6374Z" fill="#B8D1FB"/>
</g>
<g filter="url(#filter1_d_353_91768)">
<path d="M293.726 173.702H180.956C180.078 173.687 179.24 173.332 178.619 172.713C177.998 172.093 177.642 171.258 177.627 170.382V12.3202C177.627 11.4398 177.978 10.5954 178.602 9.97283C179.226 9.35028 180.073 9.00053 180.956 9.00053H293.726C294.165 8.99263 294.602 9.0731 295.009 9.23714C295.417 9.40117 295.787 9.6454 296.098 9.95524C296.408 10.2651 296.653 10.6342 296.818 11.0405C296.982 11.4468 297.063 11.8821 297.055 12.3202V170.382C297.055 171.262 296.704 172.107 296.08 172.729C295.456 173.352 294.609 173.702 293.726 173.702ZM180.956 9.11701C180.114 9.13227 179.312 9.47647 178.722 10.0755C178.132 10.6746 177.802 11.4806 177.802 12.3202V170.382C177.802 170.795 177.884 171.204 178.042 171.585C178.201 171.967 178.433 172.314 178.726 172.606C179.019 172.898 179.366 173.129 179.749 173.287C180.132 173.445 180.542 173.527 180.956 173.527H293.726C294.568 173.527 295.376 173.197 295.977 172.609C296.578 172.021 296.923 171.221 296.938 170.382V12.3202C296.938 11.4706 296.6 10.6559 295.997 10.0552C295.395 9.45448 294.578 9.11701 293.726 9.11701H180.956Z" fill="#B8D1FB"/>
</g>
<path d="M214.479 141.845V17.0376L60.6296 17.0376V141.845H214.479Z" fill="#DCDCDC"/>
<path d="M215.354 141.845V17.0376H214.425V141.845H215.354Z" fill="#D0D0D0"/>
<path d="M68.1867 134.274L206.887 134.274V24.5972L68.1867 24.5972V134.274Z" fill="#F5F5F5"/>
<path d="M131.375 134.274H149.947L118.936 24.5505H100.307L131.375 134.274Z" fill="white"/>
<path d="M116.424 134.274H127.17L96.1597 24.5505H85.4141L116.424 134.274Z" fill="white"/>
<path d="M176.11 134.274H180.548L149.538 24.5505H145.041L176.11 134.274Z" fill="white"/>
<path d="M277.726 194.901H115.316C114.757 194.901 114.203 194.789 113.688 194.57C113.173 194.351 112.708 194.031 112.32 193.628C111.933 193.226 111.631 192.749 111.434 192.227C111.236 191.705 111.146 191.148 111.17 190.591L115.024 74.811C115.083 73.6725 115.575 72.5993 116.4 71.8095C117.224 71.0198 118.319 70.5728 119.463 70.5596H281.873C282.427 70.5594 282.976 70.67 283.487 70.8851C283.998 71.1001 284.46 71.4152 284.847 71.8116C285.233 72.208 285.536 72.6777 285.738 73.1929C285.939 73.7081 286.035 74.2583 286.019 74.811L282.165 190.591C282.12 191.74 281.634 192.827 280.809 193.63C279.983 194.432 278.879 194.887 277.726 194.901Z" fill="#D0D0D0"/>
<g opacity="0.6">
<path opacity="0.6" d="M276.382 194.901H114.03C113.468 194.91 112.91 194.803 112.392 194.587C111.873 194.371 111.404 194.051 111.015 193.647C110.626 193.242 110.325 192.762 110.13 192.237C109.935 191.711 109.851 191.151 109.884 190.591L113.68 74.811C113.739 73.6725 114.231 72.5993 115.055 71.8095C115.88 71.0198 116.975 70.5728 118.118 70.5596H280.528C281.083 70.5594 281.632 70.67 282.143 70.8851C282.654 71.1001 283.116 71.4152 283.503 71.8116C283.889 72.208 284.192 72.6777 284.393 73.1929C284.595 73.7081 284.69 74.2583 284.675 74.811L280.82 190.591C280.79 191.745 280.309 192.841 279.48 193.646C278.651 194.451 277.539 194.901 276.382 194.901Z" fill="#FAFAFA"/>
</g>
<path d="M274.28 194.668H78.1729C77.2072 194.672 76.2622 194.947 75.4462 195.462C74.6302 195.977 73.9762 196.711 73.5593 197.58C73.4489 197.804 73.3984 198.053 73.4125 198.303C73.4266 198.552 73.5049 198.794 73.6398 199.005C73.7748 199.215 73.9618 199.388 74.1829 199.505C74.4041 199.623 74.6519 199.682 74.9025 199.676H277.55C277.8 199.676 278.047 199.615 278.267 199.497C278.487 199.379 278.675 199.209 278.814 199.002C278.953 198.795 279.038 198.556 279.062 198.308C279.086 198.06 279.048 197.81 278.952 197.58C278.52 196.711 277.854 195.978 277.029 195.464C276.204 194.95 275.253 194.674 274.28 194.668Z" fill="#D0D0D0"/>
<path opacity="0.6" d="M78.1729 194.668H234.685C235.651 194.672 236.596 194.947 237.411 195.462C238.227 195.977 238.881 196.711 239.298 197.58C239.409 197.804 239.459 198.053 239.445 198.303C239.431 198.552 239.353 198.794 239.218 199.005C239.083 199.215 238.896 199.388 238.675 199.505C238.454 199.623 238.206 199.682 237.955 199.676H74.9025C74.6519 199.682 74.4041 199.623 74.1829 199.505C73.9618 199.388 73.7748 199.215 73.6398 199.005C73.5049 198.794 73.4266 198.552 73.4125 198.303C73.3984 198.053 73.4489 197.804 73.5593 197.58C73.9762 196.711 74.6302 195.977 75.4462 195.462C76.2622 194.947 77.2072 194.672 78.1729 194.668Z" fill="#FAFAFA"/>
<path opacity="0.3" d="M171.728 197.871H131.023C130.543 197.871 130.083 198.061 129.743 198.4C129.404 198.738 129.213 199.197 129.213 199.676H173.539C173.539 199.197 173.348 198.738 173.008 198.4C172.669 198.061 172.208 197.871 171.728 197.871Z" fill="#D0D0D0"/>
<path opacity="0.9" d="M113.737 186.398L117.3 79.0042C117.329 78.5613 117.527 78.1463 117.852 77.8434C118.178 77.5406 118.607 77.3726 119.052 77.3735H279.185C279.618 77.3735 280.034 77.5454 280.341 77.8512C280.648 78.157 280.82 78.5718 280.82 79.0042L277.199 186.398C277.199 186.846 277.021 187.275 276.703 187.592C276.385 187.909 275.955 188.087 275.505 188.087H115.373C115.153 188.087 114.935 188.043 114.733 187.957C114.531 187.872 114.348 187.746 114.195 187.589C114.043 187.431 113.923 187.244 113.845 187.04C113.766 186.835 113.73 186.617 113.737 186.398Z" fill="white"/>
<path d="M118.001 181.855L121.272 83.4305C121.279 83.1627 121.34 82.8991 121.45 82.6547C121.559 82.4103 121.716 82.1898 121.912 82.0059C122.107 81.822 122.337 81.6783 122.587 81.583C122.838 81.4876 123.106 81.4426 123.374 81.4503H274.455C274.736 81.4502 275.014 81.5063 275.273 81.6153C275.532 81.7243 275.767 81.884 275.963 82.0849C276.159 82.2857 276.312 82.5238 276.414 82.7849C276.517 83.0461 276.565 83.325 276.557 83.6052L273.287 181.972C273.272 182.517 273.044 183.036 272.651 183.417C272.258 183.797 271.732 184.01 271.185 184.01H120.104C119.82 184.018 119.538 183.968 119.275 183.862C119.013 183.756 118.775 183.597 118.577 183.394C118.379 183.191 118.226 182.95 118.127 182.685C118.028 182.42 117.985 182.137 118.001 181.855Z" fill="#F0F0F0"/>
<path d="M241.225 188.145H267.797L237.195 77.3735H210.682L241.225 188.145Z" fill="white"/>
<path d="M224.348 188.145H233.867L203.324 77.3735H193.746L224.348 188.145Z" fill="white"/>
<path d="M169.979 188.145H179.556L148.955 77.3735H139.377L169.979 188.145Z" fill="white"/>
<path opacity="0.4" d="M200.462 140.738C200.462 141.078 200.326 141.404 200.086 141.644C199.845 141.884 199.518 142.019 199.177 142.019C199.011 142.02 198.847 141.986 198.694 141.921C198.541 141.856 198.403 141.761 198.289 141.641C198.174 141.521 198.085 141.379 198.027 141.224C197.969 141.069 197.943 140.904 197.951 140.738C197.951 140.398 198.086 140.072 198.327 139.832C198.568 139.592 198.895 139.457 199.235 139.457C199.402 139.457 199.566 139.49 199.719 139.555C199.871 139.62 200.009 139.716 200.124 139.835C200.239 139.955 200.328 140.097 200.386 140.252C200.444 140.407 200.47 140.573 200.462 140.738Z" fill="white"/>
<path d="M174.001 226C236.541 226 287.239 223.054 287.239 219.419C287.239 215.785 236.541 212.838 174.001 212.838C111.462 212.838 60.7637 215.785 60.7637 219.419C60.7637 223.054 111.462 226 174.001 226Z" fill="#F5F5F5"/>
<path opacity="0.5" d="M120.27 144.582C111.112 135.452 104.874 123.82 102.346 111.155C99.8176 98.4895 101.112 85.3612 106.067 73.43C111.021 61.4989 119.412 51.301 130.178 44.126C140.945 36.951 153.603 33.1213 166.552 33.1213C179.502 33.1213 192.16 36.951 202.926 44.126C213.693 51.301 222.084 61.4989 227.038 73.43C231.992 85.3612 233.287 98.4895 230.759 111.155C228.231 123.82 221.993 135.452 212.834 144.582C206.759 150.648 199.545 155.461 191.604 158.745C183.662 162.028 175.149 163.718 166.552 163.718C157.955 163.718 149.443 162.028 141.501 158.745C133.56 155.461 126.345 150.648 120.27 144.582Z" fill="white"/>
<path fill-rule="evenodd" clip-rule="evenodd" d="M166.302 127.955C159.971 124.114 154.082 119.594 148.739 114.475C144.983 110.788 142.123 106.294 140.379 101.337C137.241 91.7196 140.907 80.7099 151.165 77.4516C156.557 75.7408 162.445 76.7186 166.988 80.0792C171.533 76.7227 177.419 75.7452 182.811 77.4516C193.069 80.7099 196.761 91.7196 193.623 101.337C191.879 106.294 189.02 110.788 185.263 114.475C179.921 119.594 174.031 124.114 167.7 127.955L167.014 128.375L166.302 127.955Z" fill="#A0C0F7"/>
<path d="M261.423 181.156C261.17 179.986 260.651 178.89 259.905 177.953C258.386 176.38 256.81 174.866 255.233 173.294C253.656 171.721 252.021 170.265 250.327 168.809C248.634 167.353 247.057 165.839 245.363 164.441C241.976 161.529 238.53 158.734 234.968 156.113L230.004 152.561C230.392 151.478 230.467 150.308 230.219 149.185C229.971 148.063 229.411 147.032 228.602 146.212L226.091 143.766C225.672 143.317 225.178 142.943 224.631 142.66C235.832 127.97 241.015 109.583 239.131 91.2249C237.247 72.8664 228.436 55.9084 214.483 43.7858C200.531 31.6633 182.479 25.2825 163.986 25.936C145.492 26.5896 127.939 34.2285 114.881 47.3056C101.824 60.3826 94.2388 77.92 93.6624 96.3655C93.0859 114.811 99.5612 132.785 111.777 146.648C123.992 160.51 141.034 169.225 159.451 171.025C177.868 172.826 196.283 167.579 210.966 156.346C211.263 156.868 211.615 157.356 212.017 157.802L214.47 160.248C215.288 161.06 216.321 161.623 217.448 161.871C218.576 162.118 219.751 162.04 220.835 161.646C222.003 163.335 223.171 164.966 224.398 166.596C227.084 170.207 229.887 173.643 232.749 177.021L237.129 181.971L241.684 186.805C243.202 188.378 244.721 190.008 246.356 191.523C247.258 192.28 248.347 192.783 249.51 192.979C251.135 193.321 252.819 193.261 254.415 192.804C256.069 192.397 257.579 191.547 258.783 190.346C259.988 189.145 260.84 187.639 261.248 185.99C261.647 184.409 261.706 182.762 261.423 181.156ZM118.343 146.445C108.817 136.938 102.331 124.828 99.7055 111.645C97.0799 98.4627 98.4325 84.7997 103.592 72.3836C108.752 59.9675 117.487 49.3557 128.694 41.8898C139.901 34.4239 153.075 30.4391 166.552 30.4391C180.03 30.4391 193.204 34.4239 204.411 41.8898C215.617 49.3557 224.353 59.9675 229.513 72.3836C234.672 84.7997 236.025 98.4627 233.399 111.645C230.774 124.828 224.288 136.938 214.762 146.445C201.971 159.188 184.632 166.346 166.552 166.346C148.473 166.346 131.133 159.188 118.343 146.445Z" fill="#D2E2F8"/>
<path opacity="0.2" d="M261.423 181.156C261.17 179.986 260.651 178.89 259.905 177.953C258.386 176.38 256.81 174.866 255.233 173.294C253.656 171.721 252.021 170.265 250.327 168.809C248.634 167.353 247.057 165.839 245.363 164.441C241.976 161.529 238.53 158.734 234.968 156.113L230.004 152.561C230.392 151.478 230.467 150.308 230.219 149.185C229.971 148.063 229.411 147.032 228.602 146.212L226.091 143.766C225.672 143.317 225.178 142.943 224.631 142.66C235.832 127.97 241.015 109.583 239.131 91.2249C237.247 72.8664 228.436 55.9084 214.483 43.7858C200.531 31.6633 182.479 25.2825 163.986 25.936C145.492 26.5896 127.939 34.2285 114.881 47.3056C101.824 60.3826 94.2388 77.92 93.6624 96.3655C93.0859 114.811 99.5612 132.785 111.777 146.648C123.992 160.51 141.034 169.225 159.451 171.025C177.868 172.826 196.283 167.579 210.966 156.346C211.263 156.868 211.615 157.356 212.017 157.802L214.47 160.248C215.288 161.06 216.321 161.623 217.448 161.871C218.576 162.118 219.751 162.04 220.835 161.646C222.003 163.335 223.171 164.966 224.398 166.596C227.084 170.207 229.887 173.643 232.749 177.021L237.129 181.971L241.684 186.805C243.202 188.378 244.721 190.008 246.356 191.523C247.258 192.28 248.347 192.783 249.51 192.979C251.135 193.321 252.819 193.261 254.415 192.804C256.069 192.397 257.579 191.547 258.783 190.346C259.988 189.145 260.84 187.639 261.248 185.99C261.647 184.409 261.706 182.762 261.423 181.156ZM118.343 146.445C108.817 136.938 102.331 124.828 99.7055 111.645C97.0799 98.4627 98.4325 84.7997 103.592 72.3836C108.752 59.9675 117.487 49.3557 128.694 41.8898C139.901 34.4239 153.075 30.4391 166.552 30.4391C180.03 30.4391 193.204 34.4239 204.411 41.8898C215.617 49.3557 224.353 59.9675 229.513 72.3836C234.672 84.7997 236.025 98.4627 233.399 111.645C230.774 124.828 224.288 136.938 214.762 146.445C201.971 159.188 184.632 166.346 166.552 166.346C148.473 166.346 131.133 159.188 118.343 146.445Z" fill="black"/>
<path opacity="0.3" d="M220.834 161.646L230.003 152.561C230.003 152.561 227.55 159.491 220.834 161.646Z" fill="black"/>
<path d="M234.909 68.4045C234.033 66.4244 233.041 64.4442 231.989 62.5806L232.573 62.2894C233.632 64.1977 234.587 66.1613 235.435 68.1715L234.909 68.4045ZM229.478 58.2708C226.557 53.7577 223.171 49.5611 219.375 45.7494L219.784 45.2834C223.65 49.1266 227.077 53.3846 230.004 57.9796L229.478 58.2708Z" fill="#D2E2F8"/>
<path opacity="0.2" d="M234.909 68.4045C234.033 66.4244 233.041 64.4442 231.989 62.5806L232.573 62.2894C233.632 64.1977 234.587 66.1613 235.435 68.1715L234.909 68.4045ZM229.478 58.2708C226.557 53.7577 223.171 49.5611 219.375 45.7494L219.784 45.2834C223.65 49.1266 227.077 53.3846 230.004 57.9796L229.478 58.2708Z" fill="black"/>
<defs>
<filter id="filter0_d_353_91768" x="48.3086" y="9" width="127.428" height="172.702" filterUnits="userSpaceOnUse" color-interpolation-filters="sRGB">
<feFlood flood-opacity="0" result="BackgroundImageFix"/>
<feColorMatrix in="SourceAlpha" type="matrix" values="0 0 0 0 0 0 0 0 0 0 0 0 0 0 0 0 0 0 127 0" result="hardAlpha"/>
<feOffset dx="1" dy="4"/>
<feGaussianBlur stdDeviation="2"/>
<feComposite in2="hardAlpha" operator="out"/>
<feColorMatrix type="matrix" values="0 0 0 0 0 0 0 0 0 0 0 0 0 0 0 0 0 0 0.32 0"/>
<feBlend mode="normal" in2="BackgroundImageFix" result="effect1_dropShadow_353_91768"/>
<feBlend mode="normal" in="SourceGraphic" in2="effect1_dropShadow_353_91768" result="shape"/>
</filter>
<filter id="filter1_d_353_91768" x="174.627" y="9" width="127.428" height="172.702" filterUnits="userSpaceOnUse" color-interpolation-filters="sRGB">
<feFlood flood-opacity="0" result="BackgroundImageFix"/>
<feColorMatrix in="SourceAlpha" type="matrix" values="0 0 0 0 0 0 0 0 0 0 0 0 0 0 0 0 0 0 127 0" result="hardAlpha"/>
<feOffset dx="1" dy="4"/>
<feGaussianBlur stdDeviation="2"/>
<feComposite in2="hardAlpha" operator="out"/>
<feColorMatrix type="matrix" values="0 0 0 0 0 0 0 0 0 0 0 0 0 0 0 0 0 0 0.32 0"/>
<feBlend mode="normal" in2="BackgroundImageFix" result="effect1_dropShadow_353_91768"/>
<feBlend mode="normal" in="SourceGraphic" in2="effect1_dropShadow_353_91768" result="shape"/>
</filter>
<radialGradient id="paint0_radial_353_91768" cx="0" cy="0" r="1" gradientUnits="userSpaceOnUse" gradientTransform="translate(175 118) rotate(90) scale(118 175)">
<stop stop-color="#C8DCFF"/>
<stop offset="1" stop-color="#C0D7FF" stop-opacity="0"/>
</radialGradient>
</defs>
</svg>
