<svg width="32" height="32" viewBox="0 0 32 32" fill="none" xmlns="http://www.w3.org/2000/svg">
<path d="M12.702 7.63818L12.6793 7.13869L12.6792 7.1387L12.702 7.63818ZM19.2966 7.63818L19.3195 7.1387L19.3193 7.13869L19.2966 7.63818ZM21.24 8.00985L21.0591 8.476L21.0592 8.47604L21.24 8.00985ZM22.6567 8.93236L22.3031 9.28591L22.3032 9.28604L22.6567 8.93236ZM23.58 10.3495L24.0464 10.1692L24.0459 10.168L23.58 10.3495ZM23.9517 12.2912L24.4512 12.2688L24.4511 12.2678L23.9517 12.2912ZM23.9517 18.888L24.4511 18.9114L24.4512 18.9104L23.9517 18.888ZM23.58 20.8296L24.0459 21.0112L24.0464 21.0099L23.58 20.8296ZM22.6567 22.2467L22.3032 21.893L22.3029 21.8933L22.6567 22.2467ZM21.2405 23.17L21.0594 22.7039L21.0593 22.704L21.2405 23.17ZM19.2978 23.5417L19.3205 24.0412L19.3207 24.0412L19.2978 23.5417ZM12.7014 23.5417L12.6785 24.0412L12.6786 24.0412L12.7014 23.5417ZM10.7594 23.17L10.9405 22.704L10.9405 22.704L10.7594 23.17ZM9.34268 22.2467L9.69643 21.8933L9.69617 21.893L9.34268 22.2467ZM8.42 20.8295L7.95396 21.0106L7.95397 21.0106L8.42 20.8295ZM8.04833 18.8878L7.54885 18.9104L7.54886 18.9108L8.04833 18.8878ZM8.04817 12.2911L7.54867 12.2686L7.54867 12.2687L8.04817 12.2911ZM8.41984 10.3494L8.8857 10.531L8.88571 10.5309L8.41984 10.3494ZM9.34318 8.93236L9.6966 9.28604L9.6968 9.28584L9.34318 8.93236ZM10.7604 8.00985L10.9414 8.47594L10.9416 8.47584L10.7604 8.00985ZM1.5 15.5898C1.5 7.58172 7.99187 1.08984 16 1.08984V0.0898438C7.43959 0.0898438 0.5 7.02943 0.5 15.5898H1.5ZM16 30.0898C7.99187 30.0898 1.5 23.598 1.5 15.5898H0.5C0.5 24.1503 7.43959 31.0898 16 31.0898V30.0898ZM30.5 15.5898C30.5 23.598 24.0081 30.0898 16 30.0898V31.0898C24.5604 31.0898 31.5 24.1503 31.5 15.5898H30.5ZM16 1.08984C24.0081 1.08984 30.5 7.58172 30.5 15.5898H31.5C31.5 7.02943 24.5604 0.0898438 16 0.0898438V1.08984ZM16.0007 7.08984C13.8255 7.08984 13.544 7.09935 12.6793 7.13869L12.7248 8.13766C13.5668 8.09934 13.8306 8.08984 16.0007 8.08984V7.08984ZM15.9983 8.08984H16.0007V7.08984H15.9983V8.08984ZM19.3193 7.13869C18.4547 7.09935 18.1742 7.08984 15.9983 7.08984V8.08984C18.169 8.08984 18.4318 8.09934 19.2739 8.13766L19.3193 7.13869ZM21.4208 7.54369C20.8542 7.32391 20.2184 7.17986 19.3195 7.1387L19.2737 8.13765C20.0782 8.17449 20.6057 8.30011 21.0591 8.476L21.4208 7.54369ZM23.0102 8.5788C22.5129 8.0815 22.0079 7.77129 21.4207 7.54365L21.0592 8.47604C21.5254 8.65675 21.9104 8.89321 22.3031 9.28591L23.0102 8.5788ZM24.0459 10.168C23.8177 9.58233 23.5078 9.07601 23.0101 8.57867L22.3032 9.28604C22.6955 9.67805 22.9323 10.0644 23.1141 10.5311L24.0459 10.168ZM24.4511 12.2678C24.4089 11.3691 24.2647 10.734 24.0464 10.1692L23.1136 10.5298C23.2886 10.9824 23.4144 11.51 23.4522 12.3147L24.4511 12.2678ZM24.5 15.5899C24.5 13.4144 24.49 13.1331 24.4512 12.2688L23.4522 12.3137C23.49 13.156 23.5 13.4201 23.5 15.5899H24.5ZM24.4512 18.9104C24.49 18.0461 24.5 17.7655 24.5 15.5899H23.5C23.5 17.7598 23.49 18.0232 23.4522 18.8655L24.4512 18.9104ZM24.0464 21.0099C24.2647 20.445 24.4089 19.8097 24.4511 18.9114L23.4522 18.8645C23.4144 19.6689 23.2886 20.1966 23.1136 20.6494L24.0464 21.0099ZM23.0101 22.6003C23.5078 22.103 23.8177 21.5967 24.0459 21.0112L23.1141 20.6481C22.9323 21.1146 22.6955 21.501 22.3032 21.893L23.0101 22.6003ZM21.4215 23.6361C22.008 23.4083 22.5136 23.0974 23.0104 22.6L22.3029 21.8933C21.9107 22.286 21.525 22.5231 21.0594 22.7039L21.4215 23.6361ZM19.3207 24.0412C20.2194 24 20.8558 23.856 21.4216 23.636L21.0593 22.704C20.6072 22.8797 20.0795 23.0054 19.2749 23.0422L19.3207 24.0412ZM15.9998 24.09C18.1752 24.09 18.4559 24.0805 19.3205 24.0412L19.2751 23.0422C18.433 23.0805 18.17 23.09 15.9998 23.09V24.09ZM12.6786 24.0412C13.5433 24.0805 13.8246 24.09 15.9998 24.09V23.09C13.8298 23.09 13.5662 23.0805 12.7241 23.0422L12.6786 24.0412ZM10.5782 23.636C11.144 23.8559 11.7798 24 12.6785 24.0412L12.7243 23.0422C11.9199 23.0054 11.3927 22.8797 10.9405 22.704L10.5782 23.636ZM8.98893 22.6C9.48588 23.0975 9.99224 23.4083 10.5783 23.6361L10.9405 22.704C10.4748 22.523 10.0885 22.2858 9.69643 21.8933L8.98893 22.6ZM7.95397 21.0106C8.18171 21.5966 8.4917 22.103 8.98919 22.6003L9.69617 21.893C9.30398 21.501 9.0673 21.1147 8.88604 20.6484L7.95397 21.0106ZM7.54886 18.9108C7.59019 19.8095 7.73423 20.4452 7.95396 21.0106L8.88605 20.6484C8.71044 20.1965 8.58481 19.6694 8.54781 18.8648L7.54886 18.9108ZM7.5 15.5899C7.5 17.7653 7.50967 18.0459 7.54885 18.9104L8.54782 18.8652C8.50966 18.023 8.5 17.7599 8.5 15.5899H7.5ZM7.54867 12.2687C7.51001 13.133 7.5 13.4144 7.5 15.5899H8.5C8.5 13.4201 8.50999 13.1558 8.54767 12.3134L7.54867 12.2687ZM7.95398 10.1678C7.73341 10.7337 7.58914 11.3698 7.54867 12.2686L8.54766 12.3136C8.58386 11.5096 8.7096 10.9828 8.8857 10.531L7.95398 10.1678ZM8.98976 8.57867C8.49206 9.076 8.18216 9.58231 7.95397 10.1678L8.88571 10.5309C9.06752 10.0644 9.30429 9.67806 9.6966 9.28604L8.98976 8.57867ZM10.5794 7.54376C9.99328 7.77136 9.48686 8.08138 8.98956 8.57887L9.6968 9.28584C10.0888 8.89366 10.4751 8.65701 10.9414 8.47594L10.5794 7.54376ZM12.6792 7.1387C11.7804 7.17986 11.1447 7.3239 10.5791 7.54385L10.9416 8.47584C11.3934 8.30012 11.9204 8.1745 12.7249 8.13765L12.6792 7.1387Z" fill="white"/>
<path d="M15.7341 9.03146L15.7339 9.53146H15.734L15.7341 9.03146ZM15.2831 9.03154H14.7831V9.53232L15.2839 9.53154L15.2831 9.03154ZM16.0008 9.03154L16.0006 9.53154H16.0008V9.03154ZM19.2335 9.07754L19.2563 8.57806L19.2562 8.57806L19.2335 9.07754ZM20.7188 9.35304L20.8999 8.88696L20.8998 8.88695L20.7188 9.35304ZM21.6382 9.95138L21.2845 10.3048L21.2846 10.3049L21.6382 9.95138ZM22.2368 10.8714L22.7029 10.6902L22.7028 10.69L22.2368 10.8714ZM22.5124 12.3564L23.0118 12.3337L23.0118 12.3337L22.5124 12.3564ZM22.5124 18.8198L23.0118 18.8426L23.0118 18.8425L22.5124 18.8198ZM22.2368 20.3048L21.7708 20.1237L21.7708 20.1238L22.2368 20.3048ZM21.6382 21.2238L21.2847 20.8702L21.2846 20.8703L21.6382 21.2238ZM20.7188 21.8222L20.5379 21.3561L20.5369 21.3564L20.7188 21.8222ZM19.2335 22.0978L19.2562 22.5973L19.2563 22.5973L19.2335 22.0978ZM12.7681 22.0978L12.745 22.5973L12.7454 22.5973L12.7681 22.0978ZM11.2826 21.822L11.1015 22.2881L11.1017 22.2881L11.2826 21.822ZM9.76389 20.3042L9.29786 20.4853L9.29792 20.4855L9.76389 20.3042ZM9.48838 18.8191L8.9889 18.8418L8.9889 18.8419L9.48838 18.8191ZM9.48838 12.3544L8.98891 12.3316L8.9889 12.3317L9.48838 12.3544ZM9.76389 10.8691L9.29781 10.688L9.29779 10.6881L9.76389 10.8691ZM11.2826 9.35038L11.464 9.81632L11.4643 9.81619L11.2826 9.35038ZM12.7681 9.07454L12.7455 8.57505L12.7451 8.57507L12.7681 9.07454ZM15.2831 9.02954H15.7831V8.52898L15.2826 8.52954L15.2831 9.02954ZM20.271 10.3599V10.8599H20.771V10.3599H20.271ZM20.271 10.3596V9.85956H19.771V10.3596H20.271ZM16.0005 11.4816V10.9816H16.0005L16.0005 11.4816ZM15.7344 8.53146C15.5727 8.53139 15.4223 8.53132 15.2823 8.53154L15.2839 9.53154C15.4226 9.53132 15.572 9.53139 15.7339 9.53146L15.7344 8.53146ZM16.0009 8.53154L15.7343 8.53146L15.734 9.53146L16.0006 9.53154L16.0009 8.53154ZM19.2562 8.57806C18.401 8.53919 18.1387 8.53154 16.0008 8.53154V9.53154C18.1349 9.53154 18.3789 9.53922 19.2108 9.57703L19.2562 8.57806ZM20.8998 8.88695C20.5682 8.75818 20.0915 8.61625 19.2563 8.57806L19.2106 9.57702C19.9355 9.61016 20.3055 9.72891 20.5379 9.81914L20.8998 8.88695ZM21.9918 9.59794C21.6624 9.2683 21.3373 9.05685 20.8999 8.88696L20.5378 9.81912C20.8471 9.93924 21.0543 10.0745 21.2845 10.3048L21.9918 9.59794ZM22.7028 10.69C22.5327 10.2531 22.3215 9.92756 21.9917 9.59783L21.2846 10.3049C21.5149 10.5352 21.6503 10.743 21.7709 11.0528L22.7028 10.69ZM23.0118 12.3337C22.9738 11.4984 22.8317 11.0216 22.7029 10.6902L21.7708 11.0526C21.861 11.2845 21.9799 11.6544 22.0129 12.3791L23.0118 12.3337ZM23.059 15.5881C23.059 13.4508 23.0507 13.1885 23.0118 12.3337L22.0129 12.3791C22.0507 13.211 22.059 13.4553 22.059 15.5881H23.059ZM23.0118 18.8425C23.0507 17.9877 23.059 17.7254 23.059 15.5881H22.059C22.059 17.7209 22.0507 17.9652 22.0129 18.7971L23.0118 18.8425ZM22.7029 20.486C22.8317 20.1545 22.9736 19.6778 23.0118 18.8426L22.0129 18.797C21.9797 19.5219 21.861 19.8918 21.7708 20.1237L22.7029 20.486ZM21.9916 21.5775C22.3209 21.2484 22.5329 20.9237 22.7029 20.4858L21.7708 20.1238C21.6508 20.4327 21.5154 20.6396 21.2847 20.8702L21.9916 21.5775ZM20.8998 22.2883C21.3376 22.1183 21.6623 21.9068 21.9917 21.5774L21.2846 20.8703C21.0541 21.1009 20.8471 21.236 20.5379 21.3561L20.8998 22.2883ZM19.2563 22.5973C20.0911 22.5592 20.5685 22.4177 20.9007 22.2879L20.5369 21.3564C20.3059 21.4467 19.9359 21.5652 19.2106 21.5984L19.2563 22.5973ZM16.0008 22.6445C18.139 22.6445 18.4014 22.6362 19.2562 22.5973L19.2108 21.5984C18.3789 21.6362 18.1346 21.6445 16.0008 21.6445V22.6445ZM12.7454 22.5973C13.6002 22.6362 13.8624 22.6445 16.0008 22.6445V21.6445C13.8668 21.6445 13.6227 21.6362 12.7908 21.5984L12.7454 22.5973ZM11.1017 22.2881C11.4334 22.4169 11.9099 22.5588 12.745 22.5973L12.7911 21.5984C12.0662 21.5649 11.6961 21.4462 11.4635 21.3559L11.1017 22.2881ZM10.009 21.5772C10.3387 21.907 10.6644 22.1183 11.1015 22.2881L11.4636 21.3559C11.1541 21.2357 10.9464 21.1004 10.7161 20.8701L10.009 21.5772ZM9.29792 20.4855C9.46813 20.9229 9.67951 21.2477 10.009 21.5772L10.7161 20.8701C10.4856 20.6396 10.3503 20.4324 10.2299 20.1228L9.29792 20.4855ZM8.9889 18.8419C9.02692 19.6772 9.16904 20.154 9.29786 20.4853L10.2299 20.123C10.1397 19.891 10.0209 19.5211 9.98787 18.7964L8.9889 18.8419ZM8.94238 15.5861C8.94238 17.7244 8.95004 17.9869 8.9889 18.8418L9.98787 18.7964C9.95006 17.9648 9.94238 17.7206 9.94238 15.5861H8.94238ZM8.9889 12.3317C8.95004 13.1867 8.94238 13.4478 8.94238 15.5861H9.94238C9.94238 13.4517 9.95006 13.2088 9.98787 12.3771L8.9889 12.3317ZM9.29779 10.6881C9.16902 11.0197 9.02709 11.4964 8.98891 12.3316L9.98786 12.3772C10.021 11.6524 10.1397 11.2824 10.23 11.05L9.29779 10.6881ZM10.009 9.5955C9.67946 9.92504 9.4677 10.2506 9.29781 10.688L10.23 11.0501C10.3501 10.7408 10.4856 10.5331 10.7161 10.3026L10.009 9.5955ZM11.1012 8.88444C10.6643 9.05452 10.3387 9.26577 10.009 9.5955L10.7161 10.3026C10.9464 10.0723 11.1542 9.93691 11.464 9.81632L11.1012 8.88444ZM12.7451 8.57507C11.9104 8.61342 11.4333 8.75491 11.1009 8.88456L11.4643 9.81619C11.6959 9.72584 12.0658 9.60733 12.791 9.57401L12.7451 8.57507ZM15.2826 8.52954C13.7867 8.53121 13.493 8.54129 12.7455 8.57505L12.7906 9.57403C13.5192 9.54113 13.7975 9.5312 15.2837 9.52954L15.2826 8.52954ZM15.7831 9.03154V9.02954H14.7831V9.03154H15.7831ZM19.811 11.3196C19.811 11.0658 20.0169 10.8599 20.271 10.8599V9.85989C19.4652 9.85989 18.811 10.513 18.811 11.3196H19.811ZM20.271 11.7796C20.0172 11.7796 19.811 11.5734 19.811 11.3196H18.811C18.811 12.1257 19.4649 12.7796 20.271 12.7796V11.7796ZM20.7311 11.3196C20.7311 11.5734 20.5249 11.7796 20.271 11.7796V12.7796C21.0772 12.7796 21.7311 12.1257 21.7311 11.3196H20.7311ZM20.271 10.8596C20.5249 10.8596 20.7311 11.0657 20.7311 11.3196H21.7311C21.7311 10.5134 21.0772 9.85956 20.271 9.85956V10.8596ZM20.771 10.3599V10.3596H19.771V10.3599H20.771ZM16.0005 10.9816C13.4556 10.9817 11.3923 13.045 11.3923 15.5899H12.3923C12.3923 13.5973 14.0079 11.9816 16.0006 11.9816L16.0005 10.9816ZM20.6084 15.5899C20.6084 13.045 18.5456 10.9816 16.0005 10.9816V11.9816C17.9932 11.9816 19.6084 13.5971 19.6084 15.5899H20.6084ZM16.0007 20.1975C18.5457 20.1975 20.6084 18.135 20.6084 15.5899H19.6084C19.6084 17.5826 17.9935 19.1975 16.0007 19.1975V20.1975ZM11.3923 15.5899C11.3923 18.1351 13.4558 20.1975 16.0007 20.1975V19.1975C14.0079 19.1975 12.3923 17.5825 12.3923 15.5899H11.3923Z" fill="white"/>
</svg>
