<svg width="160" height="32" viewBox="0 0 160 32" fill="none" xmlns="http://www.w3.org/2000/svg">
<path d="M47.3423 25.2381V5.94481H50.8452V25.2381H47.3423Z" fill="white"/>
<path d="M68.9138 31.0671L66.2593 26.7706C65.7302 25.9314 64.8636 25.5117 63.6595 25.5117C61.7986 25.5117 60.1748 25.1012 58.7883 24.2803C57.4017 23.4593 56.3253 22.3099 55.559 20.8321C54.7928 19.3361 54.4096 17.5846 54.4096 15.5778C54.4096 13.5526 54.7928 11.8012 55.559 10.3234C56.3253 8.84564 57.4017 7.70537 58.7883 6.90263C60.1748 6.08164 61.8077 5.67114 63.6868 5.67114C65.566 5.67114 67.1988 6.08164 68.5854 6.90263C69.972 7.70537 71.0484 8.84564 71.8146 10.3234C72.5809 11.8012 72.964 13.5435 72.964 15.5504C72.964 17.7397 72.5079 19.6189 71.5957 21.1879C70.7017 22.7569 69.4611 23.9062 67.8739 24.636C68.6584 24.8914 69.3334 25.5026 69.899 26.4696L71.8967 29.6441L68.9138 31.0671ZM63.6868 22.5014C65.4565 22.5014 66.834 21.8903 67.8191 20.6679C68.8043 19.4455 69.2969 17.7488 69.2969 15.5778C69.2969 13.3885 68.8043 11.6917 67.8191 10.4876C66.8522 9.2835 65.4748 8.68144 63.6868 8.68144C61.9171 8.68144 60.5397 9.2835 59.5545 10.4876C58.5693 11.6917 58.0767 13.3885 58.0767 15.5778C58.0767 17.7488 58.5693 19.4455 59.5545 20.6679C60.5397 21.8903 61.9171 22.5014 63.6868 22.5014Z" fill="white"/>
<path d="M85.5021 25.5117C83.4952 25.5117 81.7711 25.1104 80.3298 24.3076C78.9068 23.4866 77.8121 22.3372 77.0459 20.8595C76.2796 19.3634 75.8965 17.6029 75.8965 15.5778C75.8965 13.5526 76.2796 11.8012 77.0459 10.3234C77.8121 8.84564 78.9068 7.70537 80.3298 6.90263C81.7711 6.08164 83.4952 5.67114 85.5021 5.67114C86.7974 5.67114 88.0198 5.87183 89.1692 6.2732C90.3368 6.67458 91.2946 7.24927 92.0426 7.99728L90.8933 10.7886C90.0723 10.0954 89.233 9.59365 88.3755 9.2835C87.5181 8.9551 86.5967 8.79091 85.6115 8.79091C83.6594 8.79091 82.1725 9.38384 81.1508 10.5697C80.1292 11.7373 79.6183 13.4067 79.6183 15.5778C79.6183 17.7488 80.1292 19.4273 81.1508 20.6132C82.1725 21.799 83.6594 22.392 85.6115 22.392C86.5967 22.392 87.5181 22.2369 88.3755 21.9268C89.233 21.5984 90.0723 21.0875 90.8933 20.3942L92.0426 23.1856C91.2946 23.9154 90.3368 24.4901 89.1692 24.9097C88.0198 25.3111 86.7974 25.5117 85.5021 25.5117Z" fill="white"/>
<path d="M98.6963 25.5117C97.7294 25.5117 96.8628 25.3293 96.0965 24.9644C95.3485 24.5813 94.7555 24.0704 94.3177 23.4319C93.8981 22.7933 93.6883 22.0727 93.6883 21.27C93.6883 20.2848 93.9437 19.5094 94.4545 18.9438C94.9653 18.36 95.7955 17.9404 96.9449 17.685C98.0942 17.4295 99.6359 17.3018 101.57 17.3018H102.528V16.7271C102.528 15.8149 102.327 15.1581 101.926 14.7568C101.524 14.3554 100.849 14.1547 99.9004 14.1547C99.1524 14.1547 98.3861 14.2733 97.6016 14.5105C96.8171 14.7294 96.0235 15.076 95.2208 15.5504L94.2356 13.2243C94.7099 12.8959 95.2664 12.6131 95.9049 12.3759C96.5617 12.1205 97.2459 11.9289 97.9574 11.8012C98.6872 11.6552 99.3713 11.5823 100.01 11.5823C101.962 11.5823 103.412 12.0384 104.361 12.9506C105.31 13.8446 105.784 15.2402 105.784 17.1376V25.2381H102.582V23.1035C102.272 23.8515 101.78 24.4445 101.105 24.8823C100.429 25.3019 99.6268 25.5117 98.6963 25.5117ZM99.4078 23.1582C100.302 23.1582 101.041 22.8481 101.624 22.2278C102.227 21.6075 102.528 20.823 102.528 19.8743V19.2722H101.597C99.8822 19.2722 98.6872 19.409 98.0121 19.6827C97.3553 19.9381 97.0269 20.4125 97.0269 21.1058C97.0269 21.7078 97.2368 22.2004 97.6564 22.5835C98.076 22.9667 98.6598 23.1582 99.4078 23.1582Z" fill="white"/>
<path d="M109.256 25.2381V11.8559H112.595V14.2094C113.252 12.6222 114.657 11.7465 116.809 11.5823L117.849 11.5002L118.068 14.401L116.098 14.5926C113.854 14.8115 112.732 15.9609 112.732 18.0407V25.2381H109.256Z" fill="white"/>
<path d="M119.973 30.164V11.8559H123.312V13.9905C123.695 13.2607 124.27 12.6769 125.036 12.2391C125.82 11.8012 126.705 11.5823 127.69 11.5823C128.858 11.5823 129.88 11.8651 130.755 12.4306C131.649 12.9962 132.343 13.7989 132.835 14.8389C133.328 15.8605 133.574 17.092 133.574 18.5333C133.574 19.9564 133.328 21.197 132.835 22.2551C132.343 23.2951 131.658 24.0978 130.783 24.6634C129.907 25.229 128.876 25.5117 127.69 25.5117C126.742 25.5117 125.884 25.3111 125.118 24.9097C124.37 24.4901 123.795 23.9336 123.394 23.2403V30.164H119.973ZM126.732 22.9119C127.754 22.9119 128.575 22.5471 129.195 21.8173C129.816 21.0693 130.126 19.9746 130.126 18.5333C130.126 17.0738 129.816 15.9883 129.195 15.2767C128.575 14.547 127.754 14.1821 126.732 14.1821C125.711 14.1821 124.89 14.547 124.269 15.2767C123.649 15.9883 123.339 17.0738 123.339 18.5333C123.339 19.9746 123.649 21.0693 124.269 21.8173C124.89 22.5471 125.711 22.9119 126.732 22.9119Z" fill="white"/>
<path d="M142.977 25.5117C141.463 25.5117 140.159 25.229 139.064 24.6634C137.969 24.0978 137.121 23.2951 136.519 22.2551C135.935 21.2152 135.643 19.9837 135.643 18.5607C135.643 17.1741 135.926 15.9609 136.492 14.921C137.075 13.881 137.869 13.0692 138.872 12.4854C139.894 11.8833 141.053 11.5823 142.348 11.5823C144.245 11.5823 145.741 12.1843 146.836 13.3884C147.949 14.5926 148.505 16.2346 148.505 18.3144V19.3269H138.927C139.183 21.7169 140.551 22.9119 143.032 22.9119C143.78 22.9119 144.528 22.8025 145.276 22.5835C146.024 22.3464 146.708 21.9815 147.329 21.4889L148.286 23.7877C147.648 24.3167 146.845 24.7364 145.878 25.0465C144.911 25.3567 143.944 25.5117 142.977 25.5117ZM142.485 13.9084C141.481 13.9084 140.669 14.2186 140.049 14.8389C139.429 15.4592 139.055 16.2984 138.927 17.3566H145.659C145.586 16.2437 145.276 15.3953 144.729 14.8115C144.2 14.2094 143.452 13.9084 142.485 13.9084Z" fill="white"/>
<path d="M157.291 25.5117C153.752 25.5117 151.982 23.7603 151.982 20.2574V14.4284H149.41V11.8559H151.982V7.86045H155.403V11.8559H159.453V14.4284H155.403V20.0658C155.403 20.9416 155.594 21.5984 155.977 22.0362C156.361 22.4741 156.981 22.693 157.838 22.693C158.094 22.693 158.358 22.6656 158.632 22.6109C158.906 22.5379 159.188 22.465 159.48 22.392L160 24.9097C159.672 25.0921 159.252 25.2381 158.741 25.3475C158.249 25.457 157.765 25.5117 157.291 25.5117Z" fill="white"/>
<path fill-rule="evenodd" clip-rule="evenodd" d="M2.48866 6.74159V24.6583H33.8429V6.74159H2.48866ZM1.49329 5.24854C1.21843 5.24854 0.995605 5.47136 0.995605 5.74622V25.6537C0.995605 25.9285 1.21843 26.1514 1.49329 26.1514H34.8383C35.1131 26.1514 35.336 25.9285 35.336 25.6537V5.74622C35.336 5.47136 35.1131 5.24854 34.8383 5.24854H1.49329Z" fill="white"/>
<path fill-rule="evenodd" clip-rule="evenodd" d="M32.848 7.73719L3.4845 7.73719V23.6632H32.848V7.73719ZM3.4845 7.2395C3.20964 7.2395 2.98682 7.46232 2.98682 7.73719V23.6632C2.98682 23.938 3.20964 24.1608 3.4845 24.1608H32.848C33.1229 24.1608 33.3457 23.938 33.3457 23.6632V7.73719C33.3457 7.46232 33.1229 7.2395 32.848 7.2395H3.4845Z" fill="white"/>
<g filter="url(#filter0_d_1524_20773)">
<path fill-rule="evenodd" clip-rule="evenodd" d="M14.9126 0.949031C16.0261 0.795283 17.2162 0.716553 18.4161 0.716553C19.6159 0.716553 20.806 0.795283 21.9196 0.949031C23.0321 1.10263 24.0538 1.32914 24.9247 1.61942C25.7898 1.9078 26.5172 2.26272 27.0376 2.68155C27.5543 3.09731 27.9249 3.62714 27.9249 4.25315C27.9249 4.55718 27.6784 4.80364 27.3744 4.80364C27.0704 4.80364 26.8239 4.55718 26.8239 4.25315C26.8239 4.09489 26.7311 3.84811 26.3474 3.53928L26.6925 3.11042L26.3474 3.53928C25.9674 3.23353 25.3751 2.93007 24.5765 2.66388C23.7836 2.39959 22.8303 2.18618 21.769 2.03965C20.7088 1.89327 19.5691 1.81752 18.4161 1.81752C17.263 1.81752 16.1234 1.89327 15.0631 2.03965C14.0019 2.18618 13.0485 2.39959 12.2556 2.66388C11.4571 2.93007 10.8647 3.23353 10.4847 3.53928C10.101 3.84811 10.0082 4.09489 10.0082 4.25315C10.0082 4.55718 9.76173 4.80364 9.45771 4.80364C9.15369 4.80364 8.90723 4.55718 8.90723 4.25315C8.90723 3.62714 9.27787 3.09731 9.7945 2.68155C10.315 2.26272 11.0423 1.9078 11.9075 1.61942C12.7783 1.32914 13.8001 1.10263 14.9126 0.949031Z" fill="white"/>
</g>
<path fill-rule="evenodd" clip-rule="evenodd" d="M36.3313 8.73255H35.3359V8.23486H36.3313V8.73255Z" fill="white"/>
<path fill-rule="evenodd" clip-rule="evenodd" d="M36.3313 7.23939H35.3359V6.7417H36.3313V7.23939Z" fill="white"/>
<path fill-rule="evenodd" clip-rule="evenodd" d="M36.3313 10.2252H35.3359V9.72754H36.3313V10.2252Z" fill="white"/>
<path fill-rule="evenodd" clip-rule="evenodd" d="M36.3313 11.7181H35.3359V11.2205H36.3313V11.7181Z" fill="white"/>
<path fill-rule="evenodd" clip-rule="evenodd" d="M36.3313 13.2116H35.3359V12.7139H36.3313V13.2116Z" fill="white"/>
<path fill-rule="evenodd" clip-rule="evenodd" d="M36.3313 14.7042H35.3359V14.2065H36.3313V14.7042Z" fill="white"/>
<path fill-rule="evenodd" clip-rule="evenodd" d="M36.3313 16.1974H35.3359V15.6997H36.3313V16.1974Z" fill="white"/>
<path fill-rule="evenodd" clip-rule="evenodd" d="M36.3313 17.6906H35.3359V17.1929H36.3313V17.6906Z" fill="white"/>
<path fill-rule="evenodd" clip-rule="evenodd" d="M36.3313 19.1837H35.3359V18.686H36.3313V19.1837Z" fill="white"/>
<path fill-rule="evenodd" clip-rule="evenodd" d="M36.3313 20.6766H35.3359V20.179H36.3313V20.6766Z" fill="white"/>
<path fill-rule="evenodd" clip-rule="evenodd" d="M36.3313 22.1698H35.3359V21.6721H36.3313V22.1698Z" fill="white"/>
<path fill-rule="evenodd" clip-rule="evenodd" d="M36.3313 23.663H35.3359V23.1653H36.3313V23.663Z" fill="white"/>
<path fill-rule="evenodd" clip-rule="evenodd" d="M36.3313 25.1559H35.3359V24.6582H36.3313V25.1559Z" fill="white"/>
<path fill-rule="evenodd" clip-rule="evenodd" d="M0.995373 8.73255H0V8.23486H0.995373V8.73255Z" fill="white"/>
<path fill-rule="evenodd" clip-rule="evenodd" d="M0.995373 7.23939H0V6.7417H0.995373V7.23939Z" fill="white"/>
<path fill-rule="evenodd" clip-rule="evenodd" d="M0.995373 10.2252H0V9.72754H0.995373V10.2252Z" fill="white"/>
<path fill-rule="evenodd" clip-rule="evenodd" d="M0.995373 11.7181H0V11.2205H0.995373V11.7181Z" fill="white"/>
<path fill-rule="evenodd" clip-rule="evenodd" d="M0.995373 13.2116H0V12.7139H0.995373V13.2116Z" fill="white"/>
<path fill-rule="evenodd" clip-rule="evenodd" d="M0.995373 14.7042H0V14.2065H0.995373V14.7042Z" fill="white"/>
<path fill-rule="evenodd" clip-rule="evenodd" d="M0.995373 16.1974H0V15.6997H0.995373V16.1974Z" fill="white"/>
<path fill-rule="evenodd" clip-rule="evenodd" d="M0.995373 17.6906H0V17.1929H0.995373V17.6906Z" fill="white"/>
<path fill-rule="evenodd" clip-rule="evenodd" d="M0.995373 19.1837H0V18.686H0.995373V19.1837Z" fill="white"/>
<path fill-rule="evenodd" clip-rule="evenodd" d="M0.995373 20.6766H0V20.179H0.995373V20.6766Z" fill="white"/>
<path fill-rule="evenodd" clip-rule="evenodd" d="M0.995373 22.1698H0V21.6721H0.995373V22.1698Z" fill="white"/>
<path fill-rule="evenodd" clip-rule="evenodd" d="M0.995373 23.663H0V23.1653H0.995373V23.663Z" fill="white"/>
<path fill-rule="evenodd" clip-rule="evenodd" d="M0.995373 25.1559H0V24.6582H0.995373V25.1559Z" fill="white"/>
<path d="M4.47949 9.23011C4.47949 8.95524 4.70231 8.73242 4.97718 8.73242H6.47024C6.7451 8.73242 6.96792 8.95524 6.96792 9.23011V10.7232C6.96792 10.998 6.7451 11.2209 6.47024 11.2209H4.97718C4.70231 11.2209 4.47949 10.998 4.47949 10.7232V9.23011Z" fill="white"/>
<path d="M4.47949 20.6771C4.47949 20.4023 4.70231 20.1794 4.97718 20.1794H6.47024C6.7451 20.1794 6.96792 20.4023 6.96792 20.6771V22.1702C6.96792 22.4451 6.7451 22.6679 6.47024 22.6679H4.97718C4.70231 22.6679 4.47949 22.4451 4.47949 22.1702V20.6771Z" fill="white"/>
<path d="M29.3618 20.6771C29.3618 20.4023 29.5846 20.1794 29.8595 20.1794H31.3526C31.6274 20.1794 31.8502 20.4023 31.8502 20.6771V22.1702C31.8502 22.4451 31.6274 22.6679 31.3526 22.6679H29.8595C29.5846 22.6679 29.3618 22.4451 29.3618 22.1702V20.6771Z" fill="white"/>
<path d="M29.3618 9.23011C29.3618 8.95524 29.5846 8.73242 29.8595 8.73242H31.3526C31.6274 8.73242 31.8502 8.95524 31.8502 9.23011V10.7232C31.8502 10.998 31.6274 11.2209 31.3526 11.2209H29.8595C29.5846 11.2209 29.3618 10.998 29.3618 10.7232V9.23011Z" fill="white"/>
<path fill-rule="evenodd" clip-rule="evenodd" d="M18.4141 8.61157L25.5024 15.6999L18.4141 22.7882L11.3257 15.6999L18.4141 8.61157ZM18.4141 10.7231L13.4372 15.6999L18.4141 20.6767L23.3909 15.6999L18.4141 10.7231Z" fill="white"/>
<path d="M18.0621 13.5636C18.2565 13.3692 18.5716 13.3692 18.766 13.5636L20.5505 15.3481C20.7449 15.5425 20.7449 15.8576 20.5505 16.052L18.766 17.8365C18.5716 18.0309 18.2565 18.0309 18.0621 17.8365L16.2776 16.052C16.0832 15.8576 16.0832 15.5425 16.2776 15.3481L18.0621 13.5636Z" fill="white"/>
<path fill-rule="evenodd" clip-rule="evenodd" d="M20.1986 15.7001L18.4141 13.9155L18.4141 13.9155L16.6295 15.7001L18.4141 17.4846L20.1986 15.7001ZM18.766 13.5636C18.5716 13.3692 18.2565 13.3692 18.0621 13.5636L16.2776 15.3481C16.0832 15.5425 16.0832 15.8576 16.2776 16.052L18.0621 17.8365C18.2565 18.0309 18.5716 18.0309 18.766 17.8365L20.5505 16.052C20.7449 15.8576 20.7449 15.5425 20.5505 15.3481L18.766 13.5636Z" fill="white"/>
<defs>
<filter id="filter0_d_1524_20773" x="7.91185" y="0.218866" width="21.0083" height="6.0779" filterUnits="userSpaceOnUse" color-interpolation-filters="sRGB">
<feFlood flood-opacity="0" result="BackgroundImageFix"/>
<feColorMatrix in="SourceAlpha" type="matrix" values="0 0 0 0 0 0 0 0 0 0 0 0 0 0 0 0 0 0 127 0" result="hardAlpha"/>
<feOffset dy="0.497686"/>
<feGaussianBlur stdDeviation="0.497686"/>
<feComposite in2="hardAlpha" operator="out"/>
<feColorMatrix type="matrix" values="0 0 0 0 0 0 0 0 0 0 0 0 0 0 0 0 0 0 0.19 0"/>
<feBlend mode="normal" in2="BackgroundImageFix" result="effect1_dropShadow_1524_20773"/>
<feBlend mode="normal" in="SourceGraphic" in2="effect1_dropShadow_1524_20773" result="shape"/>
</filter>
</defs>
</svg>
