<svg width="351" height="319" viewBox="0 0 351 319" fill="none" xmlns="http://www.w3.org/2000/svg">
<g opacity="0.8" clip-path="url(#clip0_365_29794)">
<rect y="-22" width="352" height="352" fill="url(#paint0_radial_365_29794)"/>
<path d="M267.952 254.351C262.262 260.335 256.886 264.2 252.626 267.253C202.653 303.107 143.52 292.66 130.954 290.104C112.392 286.331 76.5275 279.049 50.5925 248.55C11.3502 202.41 17.4561 129.707 47.8945 81.7215C53.4629 72.9379 82.8667 24.2223 142.638 16.4124C178.817 11.6858 220.981 21.22 251.51 46.8C315.612 100.496 311.048 208.983 267.952 254.351Z" fill="url(#paint1_radial_365_29794)"/>
<path d="M95.7057 190.574C95.7057 190.574 96.5678 154.465 79.9337 144.799C63.2996 135.133 31.6846 129.098 30.4979 77.2486C29.8082 46.9015 29.0576 33.6246 28.5505 27.8433C28.5038 27.3174 28.5796 26.7878 28.7719 26.296C28.9641 25.8043 29.2677 25.3638 29.6588 25.0091C30.0499 24.6544 30.5178 24.3951 31.0259 24.2515C31.534 24.108 32.0684 24.0841 32.5873 24.1817C48.339 27.1536 99.4991 39.3654 110.23 74.2869C122.949 115.69 95.7057 190.574 95.7057 190.574Z" fill="#91B3FA"/>
<path d="M44.7703 38.6047C62.0535 54.0217 82.0449 81.3158 92.7049 108.6C94.0742 113.103 98.0705 122.668 99.815 139.657C101.367 153.837 100.596 168.807 98.7095 178.717C98.6528 179.018 98.479 179.284 98.226 179.457C97.9731 179.63 97.6617 179.696 97.3605 179.64C96.2853 179.437 96.4273 178.281 96.4375 178.311C98.5877 161.373 97.6952 140.296 92.7658 121.278C86.4773 97.9195 72.4499 75.2708 57.9356 56.0705L56.4345 54.1738C45.1963 39.7407 42.833 39.6291 43.8777 38.625C43.9969 38.5103 44.1547 38.4445 44.3201 38.4408C44.4854 38.437 44.6461 38.4955 44.7703 38.6047Z" fill="#7D97F4"/>
<path d="M122.433 259.991C124.685 261.096 101.133 231.479 93.7494 184.965C90.2806 163.046 90.2298 135.59 77.7441 125.001C67.3579 116.197 32.0003 121.755 20.4274 123.875C20.1034 123.933 19.8026 124.082 19.5603 124.305C19.3179 124.528 19.144 124.816 19.0589 125.134C18.9738 125.452 18.981 125.787 19.0797 126.102C19.1783 126.416 19.3644 126.695 19.616 126.908C25.1641 131.563 37.0311 142.558 40.1247 153.634C44.202 168.229 58.0875 177.52 70.5123 180.035C82.9372 182.551 89.8546 184.985 95.9098 204.855C101.965 224.724 116.043 256.856 122.433 259.991Z" fill="#BDD0FB"/>
<path d="M36.6973 130.042C51.4651 130.66 67.3081 137.395 75.3412 150.023L76.1019 151.23C77.8566 154.05 87.7965 174.142 93.3141 190.797C93.3491 190.896 93.3431 191.006 93.2974 191.101C93.2518 191.196 93.1702 191.269 93.0707 191.304C92.9712 191.339 92.8618 191.333 92.7667 191.287C92.6716 191.242 92.5985 191.16 92.5636 191.06C88.7195 181.658 83.2018 169.72 78.7998 160.805C74.0835 151.068 70.7871 144.475 60.0256 138.166C48.0572 131.37 36.6161 130.67 36.6567 130.67C36.6153 130.667 36.5751 130.655 36.5384 130.635C36.5017 130.616 36.4692 130.589 36.4428 130.557C36.4164 130.525 36.3966 130.488 36.3846 130.448C36.3725 130.409 36.3685 130.367 36.3727 130.326C36.3753 130.286 36.3857 130.247 36.4035 130.211C36.4212 130.175 36.4458 130.143 36.476 130.116C36.5061 130.09 36.5412 130.07 36.5792 130.057C36.6172 130.044 36.6573 130.039 36.6973 130.042Z" fill="#91B3FA"/>
<path d="M112.341 263.885C113.669 264.595 104.815 249.351 104.135 235.922C103.456 222.493 100.423 199.57 88.85 185.857C77.2771 172.144 64.5784 170.897 48.6035 183.362C35.2861 193.748 26.9792 198.992 22.1107 199.966C21.8299 200.024 21.5667 200.147 21.3422 200.326C21.1177 200.504 20.9381 200.733 20.8178 200.993C20.6975 201.253 20.6398 201.538 20.6495 201.825C20.6591 202.111 20.7357 202.392 20.8732 202.643C23.9972 208.405 32.8315 221.621 47.6602 220.687C66.5866 219.501 89.5092 207.198 96.4976 217.462C103.486 227.726 102.593 233.467 102.806 238.326C103.019 243.184 103.496 259.23 112.341 263.885Z" fill="#91B3FA"/>
<path d="M53.9684 199.824C59.77 194.266 69.2028 188.809 77.459 189.823C88.19 191.557 95.3407 198.718 99.2355 209.388C100.767 213.922 101.396 216.336 102.288 221.894C102.37 222.341 101.71 222.473 101.599 222.036C100.95 219.43 100.3 216.701 99.3268 213.871C93.6671 195.645 81.5871 193.19 81.1205 192.815C80.2077 192.906 74.6697 188.768 61.5349 195.827C59.0686 197.17 56.7026 198.688 54.4552 200.371H54.4451C54.4085 200.403 54.366 200.427 54.3202 200.441C54.2744 200.456 54.2261 200.462 54.1781 200.458C54.13 200.455 54.0832 200.441 54.0403 200.419C53.9973 200.398 53.9591 200.368 53.9278 200.331C53.8965 200.294 53.8727 200.252 53.8578 200.206C53.8429 200.16 53.8372 200.112 53.841 200.064C53.8447 200.016 53.8579 199.969 53.8798 199.926C53.9017 199.883 53.9318 199.845 53.9684 199.814V199.824Z" fill="#7D97F4"/>
<path d="M296.292 41.6536L287.999 41.9959C287.999 41.9959 298.492 58.4568 301.815 56.7308L305.137 55.0048L296.292 41.6536Z" fill="#9BC8FF"/>
<path d="M320.068 139.898C318.224 135.555 314.315 131.552 314.315 131.552L316.8 130.41C318.833 129.481 323.841 137.429 325.716 140.536C323.878 139.983 322.026 139.644 320.068 139.898Z" fill="#E72F89"/>
<path d="M278.661 88.5624C280.535 84.1288 280.645 78.3855 280.645 78.3855L283.298 79.3932C285.424 80.1936 283.214 89.5579 282.284 93.127C281.363 91.3907 280.262 89.8143 278.661 88.5624Z" fill="#E72F89"/>
<path d="M221.052 61.4462C222.926 57.0125 223.035 51.2693 223.035 51.2693L225.689 52.2769C227.814 53.0774 225.605 62.4416 224.675 66.0108C223.753 64.2744 222.653 62.698 221.052 61.4462Z" fill="#E72F89"/>
<path d="M307.933 98.731C311.884 96.0107 315.055 91.2855 315.055 91.2855L316.714 93.501C318.057 95.3004 311.174 101.918 308.46 104.416C308.652 102.495 308.592 100.595 307.933 98.731Z" fill="#00AAE4"/>
<path d="M276.481 160.099C278.42 155.822 278.638 150.176 278.638 150.176L281.24 151.288C283.337 152.166 280.973 161.276 279.984 164.77C279.113 163.007 278.035 161.407 276.481 160.099Z" fill="#F9D169"/>
<path d="M286.825 209.587C288.874 205.574 289.404 200.219 289.404 200.219L291.756 201.39C293.658 202.347 290.928 210.944 289.81 214.214C289.098 212.509 288.207 210.913 286.825 209.587Z" fill="#00AAE4"/>
<path d="M257.349 89.1672C259.226 88.5261 265.115 86.8575 267.905 90.1834L269.152 93.5867C268.712 93.0269 265.412 90.1667 258.663 92.7549L257.349 89.1672Z" fill="#F1A742"/>
<path d="M271.398 99.7166C271.398 99.7166 271.021 97.3433 263.572 98.7232C256.123 100.103 254.585 98.5969 254.585 98.5969L256.162 102.902C256.162 102.902 261.239 103.949 267.923 101.826L271.398 99.7166Z" fill="#F1A742"/>
<path d="M267.906 90.1832L269.423 94.3245C269.423 94.3245 258.71 96.5974 256.162 102.902L254.585 98.5967C254.585 98.5967 254.827 93.2996 267.906 90.1832Z" fill="#F7C544"/>
<path d="M274.89 109.25C274.89 109.25 274.514 106.876 267.064 108.256C259.615 109.636 258.078 108.13 258.078 108.13L259.655 112.435C259.655 112.435 264.731 113.482 271.416 111.359L274.89 109.25Z" fill="#F1A742"/>
<path d="M271.398 99.7164L272.915 103.858C272.915 103.858 262.203 106.131 259.654 112.435L258.078 108.13C258.078 108.13 258.32 102.833 271.398 99.7164Z" fill="#F7C544"/>
<path d="M278.388 118.803C278.388 118.803 278.004 116.409 270.562 117.81C263.12 119.21 261.568 117.663 261.568 117.663L263.145 121.968C263.145 121.968 268.221 123.015 274.913 120.913L278.388 118.803Z" fill="#F1A742"/>
<path d="M266.645 131.522C266.645 131.522 268.182 134.307 272.954 131.257L271.685 127.792C271.685 127.792 266.645 131.522 265.061 127.196L266.645 131.522Z" fill="#F1A742"/>
<path d="M278.389 118.803L279.906 122.944C279.906 122.944 269.194 125.217 266.646 131.522L265.061 127.196C265.061 127.196 265.303 121.899 278.389 118.803Z" fill="#F7C544"/>
<path d="M274.89 109.249L276.407 113.391C276.407 113.391 265.702 115.684 263.147 121.968L261.57 117.663C261.57 117.663 261.812 112.366 274.89 109.249Z" fill="#F7C544"/>
<path d="M296.18 141.589C297.09 140.646 301.972 138.731 304.14 140.526C304.986 141.596 305.765 142.718 306.472 143.884C306.021 143.212 302.219 140.595 298.435 144.037C297.745 143.167 296.992 142.348 296.18 141.589Z" fill="#0052B9"/>
<path d="M309.527 150.48C309.596 150.53 308.898 147.715 303.608 148.866C298.319 150.017 297.188 149.238 297.149 149.202C297.769 150.195 298.305 151.238 298.752 152.32C298.75 152.244 302.377 153.124 307.139 152.141C307.968 151.609 308.759 151.04 309.527 150.48Z" fill="#0052B9"/>
<path d="M304.131 140.503C305.174 141.81 306.111 143.198 306.932 144.654C306.759 144.464 299.999 147.473 298.752 152.32C298.305 151.238 297.769 150.195 297.149 149.202C297.334 149.287 296.062 145.185 304.131 140.503Z" fill="#9BC8FF"/>
<path d="M311.278 161.487C311.303 161.554 311.576 158.662 306.232 158.057C300.888 157.451 300.053 156.361 300.036 156.316C300.273 157.446 300.436 158.59 300.523 159.742C302.997 161.059 305.696 161.911 308.487 162.255C309.423 162.014 310.359 161.773 311.278 161.487Z" fill="#0052B9"/>
<path d="M309.528 150.48C310.06 152.013 310.465 153.587 310.74 155.187C310.658 154.964 303.288 155.608 300.525 159.741C300.438 158.59 300.275 157.446 300.039 156.316C300.164 156.448 300.371 152.26 309.528 150.48Z" fill="#9BC8FF"/>
<path d="M309.3 172.515C309.302 172.59 310.523 169.91 305.672 167.575C300.822 165.241 300.408 163.971 300.392 163.926C300.268 165.082 300.044 166.225 299.723 167.344C299.774 167.274 302.056 170.219 306.4 172.359C307.355 172.449 308.322 172.501 309.3 172.515Z" fill="#0052B9"/>
<path d="M296.354 174.44C296.422 174.415 295.076 176.684 298.683 178.281C299.421 177.376 300.099 176.424 300.713 175.432C300.608 175.495 296.514 174.457 298.209 171.324C297.679 172.411 297.059 173.454 296.354 174.44Z" fill="#0052B9"/>
<path d="M309.3 172.515C308.736 174.082 308.053 175.605 307.255 177.07C307.317 176.819 301.22 172.759 296.355 174.439C297.059 173.454 297.68 172.411 298.21 171.324C298.23 171.519 301.017 168.291 309.3 172.515Z" fill="#9BC8FF"/>
<path d="M311.278 161.486C311.257 163.107 311.122 164.725 310.875 166.329C310.861 166.08 303.699 164.288 299.722 167.344C300.044 166.225 300.268 165.082 300.391 163.926C300.479 164.097 302.048 160.198 311.278 161.486Z" fill="#9BC8FF"/>
<path d="M101.904 27.7317C95.2198 28.3098 90.0977 33.9086 90.0775 40.6231C89.9659 81.6404 89.7732 223.142 92.4508 273.217C92.5897 275.769 93.6939 278.173 95.5397 279.942C97.3854 281.711 99.8346 282.711 102.391 282.741C128.671 283.025 204.254 283.542 247.168 280.793C251.472 280.522 255.51 278.62 258.459 275.475C261.409 272.329 263.048 268.177 263.042 263.865C262.991 219.775 262.271 93.8117 255.972 40.4811C255.721 38.3614 254.743 36.3944 253.204 34.9149C251.665 33.4355 249.661 32.535 247.534 32.3669C222.521 30.3688 140.751 24.3541 101.904 27.7317Z" fill="#CFDDEF"/>
<path d="M100.624 51.3643C100.107 86.4582 98.646 203.181 101.202 246.267C101.577 252.566 106.476 257.536 112.511 257.749C137.381 258.611 201.149 260.285 237.48 256.288C244.022 255.568 249.022 249.899 249.205 243.032C250.108 207.228 252.562 98.5078 250.077 55.9083C249.672 49.1126 244.479 43.6862 237.977 43.2501C211.048 41.4345 141.905 37.2557 111.01 39.8218C105.208 40.3087 100.715 45.2989 100.624 51.3643Z" fill="#F6FAFF"/>
<path opacity="0.4" fill-rule="evenodd" clip-rule="evenodd" d="M147.932 215.559C147.932 212.767 150.192 210.507 152.984 210.507C155.743 210.507 158.003 212.767 158.003 215.559C158.003 218.317 155.743 220.577 152.984 220.577C150.192 220.577 147.932 218.317 147.932 215.559ZM185.327 215.559C185.327 212.767 187.588 210.507 190.38 210.507C193.139 210.507 195.399 212.767 195.399 215.559C195.399 218.317 193.139 220.577 190.38 220.577C187.588 220.577 185.327 218.317 185.327 215.559Z" fill="#A0C0F7"/>
<path fill-rule="evenodd" clip-rule="evenodd" d="M195.4 168.212C197.428 168.212 198.757 168.91 200.087 170.439C201.416 171.968 201.649 174.161 201.35 176.152L198.192 197.954C197.594 202.145 194.004 205.233 189.783 205.233H153.519C149.098 205.233 145.442 201.843 145.076 197.459L142.018 161.229L136.999 160.365C135.669 160.133 134.739 158.836 134.971 157.507C135.204 156.144 136.5 155.247 137.863 155.446L145.791 156.643C146.921 156.846 147.752 157.773 147.851 158.903L148.483 166.348C148.583 167.414 149.447 168.212 150.511 168.212H195.4ZM175.258 185.491H184.465C185.861 185.491 186.958 184.361 186.958 182.998C186.958 181.603 185.861 180.506 184.465 180.506H175.258C173.862 180.506 172.765 181.603 172.765 182.998C172.765 184.361 173.862 185.491 175.258 185.491Z" fill="#A0C0F7"/>
<path d="M160.711 33.8376C160.721 34.3034 160.91 34.7475 161.239 35.0779C161.567 35.4082 162.01 35.5997 162.476 35.6126C167.263 35.7647 180.743 36.1705 186.768 36.3936C187.045 36.4034 187.321 36.3495 187.574 36.236C187.827 36.1225 188.051 35.9525 188.229 35.7389C188.406 35.5254 188.532 35.2741 188.597 35.0043C188.662 34.7344 188.664 34.4533 188.603 34.1825C188.583 34.1521 188.431 32.6611 186.91 32.5495C182.832 32.2655 170.539 31.5048 162.415 31.9714C160.751 32.0728 160.66 33.9695 160.711 33.8376Z" fill="#1F5AA9"/>
<path d="M174.928 140.989C172.944 141.103 171.091 140.302 170.065 138.875L152.814 114.824C151.196 112.567 152.066 109.478 154.754 107.923C157.442 106.367 160.939 106.941 162.549 109.191L174.519 125.887L190.308 97.9778C191.726 95.4708 195.128 94.323 197.911 95.4103C200.695 96.4977 201.8 99.4049 200.382 101.904L179.973 138.007C179.043 139.66 177.181 140.801 175.128 140.974L174.928 140.989Z" fill="#6FCF97"/>
<path d="M231.093 196.639C230.87 196.639 230.657 196.552 230.498 196.397C230.338 196.241 230.246 196.03 230.241 195.807C230.231 195.493 230.038 188.099 232.209 180.198C235.15 169.548 241.033 163.249 249.228 161.951C253.245 161.322 256.825 162.265 259.868 164.77C269.788 172.935 270.731 194.823 270.771 195.746C270.788 195.866 270.779 195.988 270.746 196.103C270.713 196.219 270.655 196.327 270.578 196.419C270.5 196.512 270.404 196.587 270.295 196.64C270.187 196.693 270.069 196.722 269.948 196.727C269.827 196.731 269.707 196.71 269.595 196.665C269.483 196.62 269.382 196.552 269.298 196.465C269.214 196.378 269.149 196.275 269.108 196.162C269.066 196.048 269.049 195.928 269.057 195.807C269.047 195.594 268.104 173.767 258.783 166.089C256.135 163.918 253.011 163.087 249.492 163.645C231.275 166.515 231.945 195.462 231.955 195.756C231.961 195.983 231.876 196.203 231.721 196.369C231.565 196.534 231.35 196.631 231.123 196.639H231.093Z" fill="url(#paint2_linear_365_29794)"/>
<path d="M195.034 290.358L209.751 188.93L264.999 187.997L282.809 295.997H199.821C196.87 295.997 194.608 293.33 195.034 290.358Z" fill="url(#paint3_linear_365_29794)"/>
<path d="M275.731 188.93L265 187.997L282.811 295.997H293.471C295.631 295.997 297.244 293.979 296.798 291.829L275.731 188.93Z" fill="url(#paint4_linear_365_29794)"/>
<path d="M258.041 196.406C257.82 196.403 257.608 196.317 257.448 196.165C257.288 196.012 257.192 195.805 257.179 195.584C257.179 195.361 256.235 173.534 246.904 165.866C244.257 163.685 241.133 162.864 237.623 163.411C219.417 166.282 220.066 195.229 220.077 195.523C220.061 195.736 219.967 195.935 219.812 196.082C219.658 196.229 219.455 196.314 219.242 196.321C219.029 196.327 218.822 196.254 218.659 196.116C218.497 195.978 218.391 195.785 218.362 195.574C218.362 195.26 218.16 187.865 220.34 179.964C223.272 169.324 229.154 163.016 237.36 161.717C241.376 161.089 244.957 162.042 248 164.537C257.919 172.702 258.862 194.59 258.893 195.513C258.898 195.626 258.881 195.739 258.843 195.845C258.804 195.951 258.745 196.048 258.669 196.131C258.592 196.214 258.5 196.281 258.398 196.328C258.295 196.375 258.184 196.402 258.071 196.406H258.041Z" fill="url(#paint5_linear_365_29794)"/>
<path d="M106.252 12.0003C105.542 11.9901 104.883 12.264 104.498 12.8928C96.414 26.1088 88.3201 39.8016 80.2363 52.4496L103.686 52.6828C109.934 40.0247 116.192 25.9161 122.45 12.1626L106.252 12.0003Z" fill="#FFADAA"/>
<path d="M127.125 53.2306L103.686 52.9871L122.45 12.2538L139.773 12.4364C135.568 26.0277 131.352 39.6257 127.125 53.2306Z" fill="#0052B9"/>
<path d="M150.577 53.4638L127.127 53.2306C131.346 39.6258 135.562 26.0277 139.775 12.4364L157.109 12.6088C154.932 26.2272 152.754 39.8455 150.577 53.4638Z" fill="#FFADAA"/>
<path d="M174.026 53.6971L150.576 53.4638C152.76 39.8455 154.938 26.2272 157.108 12.6088L174.442 12.7813C174.3 26.4267 174.161 40.0653 174.026 53.6971Z" fill="#0052B9"/>
<path d="M197.477 53.9406L174.027 53.6971C174.169 40.0653 174.308 26.4266 174.443 12.7813L191.767 12.9638C193.674 26.616 195.577 40.2749 197.477 53.9406Z" fill="#FFADAA"/>
<path d="M220.926 54.1738L197.476 53.9406C195.569 40.2749 193.666 26.616 191.766 12.9638L209.1 13.1363L220.926 54.1738Z" fill="#0052B9"/>
<path d="M244.366 54.4071L220.926 54.1738L209.1 13.1363L226.434 13.3087C232.411 27.0149 238.388 40.7144 244.366 54.4071Z" fill="#FFADAA"/>
<path d="M244.366 14.3128C243.991 13.6738 243.342 13.3898 242.632 13.3797L226.434 13.2174C232.408 27.0927 238.382 41.323 244.376 54.1028L267.177 54.3361C267.431 54.3361 267.583 53.9507 267.42 53.687C259.732 41.0694 252.044 27.4578 244.366 14.3128Z" fill="#0052B9"/>
<path d="M80.4614 52.4496C80.1469 52.4394 79.8934 52.764 79.8934 53.1596L79.8325 59.5292C79.7717 65.4323 85.3806 69.9458 91.8415 70.0067H92.0951C98.556 70.0777 103.78 65.6757 103.83 59.7726L103.911 52.6829L80.4614 52.4496Z" fill="url(#paint6_linear_365_29794)"/>
<path d="M103.912 52.6829L103.83 59.7726C103.78 65.6757 108.719 70.1791 115.069 70.24H115.322C121.672 70.3008 126.753 65.8989 126.814 59.9958L126.885 52.906L103.912 52.6829Z" fill="#003D89"/>
<path d="M126.884 52.9161L126.813 60.0059C126.752 65.909 132.239 70.4124 138.69 70.4834H138.944C145.405 70.5544 150.415 66.1423 150.476 60.2392L150.547 53.1596L126.884 52.9161Z" fill="url(#paint7_linear_365_29794)"/>
<path d="M150.546 53.1596L150.475 60.2392C150.414 66.1423 155.577 70.6558 161.926 70.7167H162.17C168.519 70.7877 173.732 66.3857 173.793 60.4826L173.864 53.3928L150.546 53.1596Z" fill="#003D89"/>
<path d="M173.866 53.3928L173.795 60.4826C173.735 66.3857 179.09 70.8891 185.551 70.9601H185.794C192.255 71.0209 197.053 66.619 197.114 60.7159L197.185 53.6261L173.866 53.3928Z" fill="url(#paint8_linear_365_29794)"/>
<path d="M197.185 53.6261L197.114 60.7159C197.053 66.619 202.429 71.1224 208.778 71.1934H209.021C215.371 71.2542 220.716 66.8624 220.777 60.9593L220.848 53.8696L197.185 53.6261Z" fill="#003D89"/>
<path d="M220.847 53.8696L220.776 60.9593C220.715 66.8624 225.939 71.3658 232.4 71.4267H232.653C239.104 71.4875 244.378 67.0856 244.439 61.1825L244.51 54.0927L220.847 53.8696Z" fill="url(#paint9_linear_365_29794)"/>
<path d="M244.509 54.1028L244.438 61.1926C244.377 67.0957 249.276 71.5991 255.626 71.6701H255.879C262.228 71.7309 267.361 67.329 267.422 61.4259L267.493 54.3361L244.509 54.1028Z" fill="#003D89"/>
</g>
<defs>
<radialGradient id="paint0_radial_365_29794" cx="0" cy="0" r="1" gradientUnits="userSpaceOnUse" gradientTransform="translate(176 154) rotate(90) scale(176)">
<stop stop-color="#C8DCFF"/>
<stop offset="1" stop-color="#C0D7FF" stop-opacity="0"/>
</radialGradient>
<radialGradient id="paint1_radial_365_29794" cx="0" cy="0" r="1" gradientUnits="userSpaceOnUse" gradientTransform="translate(161.576 154.369) rotate(90) scale(139.124 138.478)">
<stop offset="0.0332473" stop-color="#C8DCFF"/>
<stop offset="1" stop-color="#C0D7FF" stop-opacity="0"/>
</radialGradient>
<linearGradient id="paint2_linear_365_29794" x1="122651" y1="54605.3" x2="110817" y2="88179.8" gradientUnits="userSpaceOnUse">
<stop stop-color="#E1473D"/>
<stop offset="1" stop-color="#E9605A"/>
</linearGradient>
<linearGradient id="paint3_linear_365_29794" x1="270.432" y1="207.067" x2="190.995" y2="323.483" gradientUnits="userSpaceOnUse">
<stop stop-color="#FF928E"/>
<stop offset="1" stop-color="#FF7360"/>
</linearGradient>
<linearGradient id="paint4_linear_365_29794" x1="132242" y1="256531" x2="95160.5" y2="259995" gradientUnits="userSpaceOnUse">
<stop stop-color="#FF928E"/>
<stop offset="1" stop-color="#FE7062"/>
</linearGradient>
<linearGradient id="paint5_linear_365_29794" x1="118508" y1="53024.8" x2="106725" y2="86530.5" gradientUnits="userSpaceOnUse">
<stop stop-color="#E1473D"/>
<stop offset="1" stop-color="#E9605A"/>
</linearGradient>
<linearGradient id="paint6_linear_365_29794" x1="31475" y1="5803.29" x2="31334.4" y2="15411.7" gradientUnits="userSpaceOnUse">
<stop stop-color="#FF928E"/>
<stop offset="1" stop-color="#FE7062"/>
</linearGradient>
<linearGradient id="paint7_linear_365_29794" x1="41985.5" y1="5920.52" x2="41844.5" y2="15533.7" gradientUnits="userSpaceOnUse">
<stop stop-color="#FF928E"/>
<stop offset="1" stop-color="#FE7062"/>
</linearGradient>
<linearGradient id="paint8_linear_365_29794" x1="52179.2" y1="6031.27" x2="52037.5" y2="15643.7" gradientUnits="userSpaceOnUse">
<stop stop-color="#FF928E"/>
<stop offset="1" stop-color="#FE7062"/>
</linearGradient>
<linearGradient id="paint9_linear_365_29794" x1="63988.5" y1="6155.73" x2="63847.6" y2="15763.8" gradientUnits="userSpaceOnUse">
<stop stop-color="#FF928E"/>
<stop offset="1" stop-color="#FE7062"/>
</linearGradient>
<clipPath id="clip0_365_29794">
<rect width="351" height="319" fill="white"/>
</clipPath>
</defs>
</svg>
