<svg width="58" height="58" viewBox="0 0 58 58" fill="none" xmlns="http://www.w3.org/2000/svg">
<path d="M56 29C56 43.9117 43.9117 56 29 56C14.0883 56 2 43.9117 2 29C2 14.0883 14.0883 2 29 2C43.9117 2 56 14.0883 56 29Z" fill="black" fill-opacity="0.3" stroke="white" stroke-width="4"/>
<path d="M42.0837 28.8334L21.917 42.4272V29.0808V15.2396L42.0837 28.8334Z" fill="white"/>
<path d="M21.9167 43.3335C21.77 43.3335 21.6224 43.2991 21.4886 43.2284C21.1879 43.0716 21 42.7635 21 42.4272V15.2397C21 14.9034 21.1879 14.5953 21.4886 14.4385C21.7893 14.2808 22.1522 14.3026 22.4337 14.4911L42.6003 28.0849C42.8497 28.2534 43 28.5335 43 28.8334C43 29.1334 42.8497 29.4135 42.5994 29.582L22.4327 43.1758C22.2778 43.28 22.0972 43.3335 21.9167 43.3335ZM22.8333 16.9552V40.7126L40.4562 28.8334L22.8333 16.9552Z" fill="white"/>
</svg>
