<svg width="350" height="285" viewBox="0 0 350 285" fill="none" xmlns="http://www.w3.org/2000/svg">
<path d="M0 10C0 4.47715 4.47715 0 10 0H340C345.523 0 350 4.47715 350 10V285H0V10Z" fill="#EBEFF6"/>
<path d="M146.758 84.7661H115.385V136.648H146.758V84.7661Z" fill="#B8B8B8"/>
<path d="M150.722 84.7661H111.422V104.35H150.722V84.7661Z" fill="#FFAD54"/>
<path d="M146.758 104.581H115.385L123.641 112.507H146.758V104.581Z" fill="#8A8A8A"/>
<path d="M110.103 131.001H70.4727V175.254H110.103V131.001Z" fill="#B8B8B8"/>
<path d="M90 32H80V131H90V32Z" fill="#A1A1A1"/>
<path d="M100 32H90V131H100V32Z" fill="#8A8A8A"/>
<path d="M57.5918 182.19V274.329H278.198V182.19L167.895 132.982L57.5918 182.19Z" fill="#FFD580"/>
<path d="M167.895 123.735L57.5918 172.943V182.189L167.895 132.982L278.198 182.189V172.943L167.895 123.735Z" fill="#FFAD54"/>
<path d="M247.155 256.165H57.5918V274.362H247.155V256.165Z" fill="#D3AD6E"/>
<path d="M191.014 198.042H145.109V256.066H191.014V198.042Z" fill="#5C5C5C"/>
<path d="M191.014 167.328H145.109V179.449H191.014V167.328Z" fill="#5C5C5C"/>
<path d="M166.246 169.64H148.082V176.708H166.246V169.64Z" fill="#95B7DB"/>
<path d="M188.041 169.64H169.877V176.708H188.041V169.64Z" fill="#95B7DB"/>
<path d="M115.388 192.097H90.2891V217.229H115.388V192.097Z" fill="#95B7DB"/>
<path d="M245.833 192.097H220.734V217.229H245.833V192.097Z" fill="#95B7DB"/>
<path d="M250.458 233.048H236.588V274.329H250.458V233.048Z" fill="#2D71C6"/>
<path d="M264.331 233.048H250.461V274.329H264.331V233.048Z" fill="#003D89"/>
<path d="M286.126 233.048H272.256V274.329H286.126V233.048Z" fill="#2D71C6"/>
<path d="M299.997 233.048H286.127V274.329H299.997V233.048Z" fill="#003D89"/>
<path d="M191.014 256.165V274.329H209.177L191.014 256.165Z" fill="#BB904D"/>
<path d="M201.251 274.329H134.541L145.109 256.165H191.014L201.251 274.329Z" fill="#E7E7E7"/>
<path d="M272.254 240.974L264.328 233.048V256.165H272.254V240.974Z" fill="#A9C497"/>
<path d="M272.254 256.165H264.328V274.362H272.254V256.165Z" fill="#8A8A8A"/>
<path d="M167.899 112.837L50 165.347V176.906L167.899 124.066V112.837Z" fill="#B97474"/>
<path d="M167.9 112.837V124.066L286.13 176.906V165.347L167.9 112.837Z" fill="#875858"/>
</svg>
