<svg width="350" height="285" viewBox="0 0 350 285" fill="none" xmlns="http://www.w3.org/2000/svg">
<path d="M0 10C0 4.47715 4.47715 0 10 0H340C345.523 0 350 4.47715 350 10V285H0V10Z" fill="#EBEFF6"/>
<path d="M45.3573 241.548C45.1913 248.539 53.9907 253.532 62.956 257.028C71.8582 260.755 81.0839 263.652 90.5163 265.683C101.474 267.846 112.93 268.679 124.053 270.177C135.177 271.675 148.625 273.006 161.077 273.339C173.529 273.672 185.649 273.173 197.935 273.006C210.221 272.84 220.846 273.173 232.136 272.507C243.426 271.841 255.878 270.177 267.334 268.346C278.789 266.515 289.249 264.018 297.052 259.025C304.855 254.032 307.678 245.876 302.033 239.052C296.388 232.228 287.755 228.399 277.793 225.071C255.546 217.747 229.812 215.25 205.24 213.919C181.742 212.56 158.189 212.449 134.679 213.586C122.504 214.252 110.55 215.25 98.8176 216.582C88.5138 217.447 78.3298 219.399 68.4349 222.408C56.9791 226.069 45.6894 233.06 45.3573 241.548Z" fill="#C89A52"/>
<g opacity="0.4">
<path opacity="0.4" d="M63.121 241.216C63.4531 246.209 68.9319 248.706 72.9165 250.703C78.2139 252.936 83.6485 254.826 89.187 256.362C101.971 260.024 115.253 261.522 128.535 262.853C141.817 264.185 155.099 265.35 168.547 265.683C181.995 266.016 195.277 265.849 208.726 265.849C222.038 265.88 235.341 265.157 248.572 263.685C259.861 262.354 271.815 261.189 282.275 256.362C287.422 254.032 292.901 249.371 289.912 243.213C286.924 237.055 280.117 234.392 274.804 232.228C264.51 227.9 253.22 225.903 242.263 224.238C212.046 219.911 180.999 219.079 150.617 219.911C135.01 220.244 119.57 221.243 104.129 223.073C96.5489 223.784 89.0475 225.177 81.7159 227.234C75.2409 229.232 64.1172 233.226 63.121 241.216C63.121 241.881 61.9588 242.048 61.9588 241.216V240.883C61.9588 240.051 63.287 240.051 63.121 240.883V241.216C63.121 241.881 61.9588 241.881 61.9588 241.216V240.883H63.121V241.216H61.9588C62.955 232.228 74.2447 228.233 81.3839 226.069C93.3377 222.241 105.956 221.409 118.408 220.41C145.302 218.191 172.315 217.801 199.262 219.245C222.506 220.244 246.911 221.742 269.159 228.732C277.294 231.396 287.422 235.224 291.406 243.379C295.391 251.535 287.09 255.696 281.777 258.026C276.464 260.357 266.17 262.52 258.201 263.685C247.576 265.183 236.95 266.349 226.324 266.848C215.699 267.347 204.907 267.014 194.281 267.014C183.656 267.014 171.702 267.181 160.578 266.681C139.493 265.683 118.076 264.185 97.4883 259.691C89.1743 258.031 81.0519 255.521 73.2486 252.201C68.5999 250.037 62.1249 247.041 61.9588 241.216C61.9029 241.114 61.8743 241 61.8759 240.884C61.8775 240.768 61.9092 240.655 61.9678 240.555C62.0265 240.455 62.1102 240.373 62.2105 240.315C62.3108 240.258 62.4244 240.228 62.5399 240.228C62.6555 240.228 62.769 240.258 62.8694 240.315C62.9697 240.373 63.0533 240.455 63.112 240.555C63.1707 240.655 63.2024 240.768 63.204 240.884C63.2056 241 63.177 241.114 63.121 241.216Z" fill="#FFD580"/>
<path opacity="0.4" d="M165.394 259.025C178.51 259.524 191.626 259.192 204.742 259.192C217.858 259.192 228.317 259.025 240.271 257.86C250.348 257.078 260.344 255.464 270.156 253.033C272.978 252.201 282.11 249.871 279.453 244.711C276.797 239.551 269.99 237.887 265.839 236.389C255.379 232.561 244.256 231.063 233.298 229.731C222.34 228.4 210.885 227.567 199.595 227.068C173.202 225.737 146.752 226.071 120.401 228.067C108.945 229.065 97.1571 230.064 86.0334 233.393C82.9976 234.35 80.0963 235.693 77.4 237.388C76.2378 238.22 73.2494 240.217 74.0795 242.214C74.7612 243.156 75.6771 243.902 76.7359 244.378C80.8175 246.43 85.1022 248.048 89.5199 249.205C100.976 252.867 112.93 254.531 125.049 255.863C137.169 257.194 151.946 258.526 165.394 259.025C166.224 259.192 166.224 260.357 165.394 260.357C151.946 259.857 138.497 258.526 125.049 257.028C113.37 256.071 101.808 254.009 90.5161 250.869C86.5493 249.758 82.6657 248.368 78.8943 246.708C76.7359 245.876 73.0834 244.378 72.5853 241.715C72.0872 239.052 75.9058 236.722 77.8981 235.557C82.714 232.8 88.0113 230.992 93.5045 230.23C104.96 227.734 116.914 227.068 128.536 226.236C140.158 225.404 155.432 224.904 168.88 224.904C192.521 224.931 216.139 226.376 239.607 229.232C247.004 230.16 254.327 231.606 261.522 233.559C267.001 235.224 273.31 237.221 277.793 241.049C288.087 249.538 271.982 254.198 265.341 255.53C251.118 258.387 236.675 260.002 222.174 260.357C203.413 261.022 184.321 261.022 165.394 260.357C164.73 260.357 164.73 259.025 165.394 259.025Z" fill="#FFD580"/>
<path opacity="0.4" d="M167.884 254.365C180.502 254.864 193.12 254.365 205.737 254.365C217.05 254.474 228.359 253.919 239.607 252.7C245.086 252.035 250.564 251.369 255.877 250.204C258.052 249.914 260.143 249.177 262.02 248.04C267.831 244.711 258.866 240.55 256.375 239.551C245.418 235.39 233.132 234.558 221.676 233.559C195.736 231.175 169.661 230.619 143.644 231.895C132.476 232.308 121.337 233.308 110.273 234.891C107.948 235.224 90.5157 238.22 94.8324 242.381C99.149 246.542 104.296 246.875 108.612 247.873C114.919 249.251 121.292 250.306 127.705 251.036C141.154 252.534 154.436 253.865 167.884 254.365C168.548 254.365 168.548 255.53 167.884 255.53C154.436 255.03 141.154 253.699 127.705 252.201C117.412 251.036 106.952 249.704 97.3227 245.377C94.1683 244.045 90.6817 241.049 94.5003 238.22C98.3189 235.39 106.786 234.225 112.265 233.393C136.173 229.898 160.745 229.565 184.984 230.064C197.27 230.397 209.556 231.229 221.842 232.394C234.128 233.559 244.587 234.558 255.545 238.053C259.53 239.218 268.827 243.546 263.514 248.539C261.19 250.703 257.039 251.202 254.051 251.868L238.112 254.032C227.365 255.254 216.553 255.81 205.737 255.696C193.12 255.696 180.502 256.029 167.884 255.53C167.783 255.586 167.669 255.615 167.553 255.613C167.438 255.611 167.324 255.58 167.225 255.521C167.125 255.462 167.043 255.378 166.986 255.278C166.928 255.177 166.898 255.063 166.898 254.947C166.898 254.831 166.928 254.718 166.986 254.617C167.043 254.516 167.125 254.433 167.225 254.374C167.324 254.315 167.438 254.283 167.553 254.282C167.669 254.28 167.783 254.309 167.884 254.365Z" fill="#FFD580"/>
<path opacity="0.4" d="M168.546 249.371C180.998 249.704 193.45 249.371 205.902 249.371C212.875 249.371 219.682 249.205 226.655 248.706C233.628 248.206 238.941 248.04 244.586 246.043C250.231 244.045 244.586 242.714 242.428 241.881C237.281 239.884 231.304 239.551 225.825 239.052C201.548 236.724 177.152 235.891 152.774 236.555L134.511 237.554C128.368 237.887 122.059 238.053 116.414 240.883C110.769 243.712 116.746 244.045 118.407 244.378C120.067 244.711 122.225 245.044 124.051 245.377L139.658 247.041C149.287 248.04 158.917 248.872 168.546 249.371C168.647 249.315 168.761 249.287 168.877 249.288C168.992 249.29 169.106 249.322 169.205 249.38C169.305 249.439 169.387 249.523 169.444 249.624C169.502 249.724 169.532 249.838 169.532 249.954C169.532 250.07 169.502 250.184 169.444 250.284C169.387 250.385 169.305 250.469 169.205 250.527C169.106 250.586 168.992 250.618 168.877 250.62C168.761 250.621 168.647 250.593 168.546 250.537C155.264 249.871 141.982 248.539 128.7 247.041C124.716 246.542 116.248 247.041 113.592 243.379C110.935 239.718 126.376 237.055 127.87 236.888C140.488 235.557 153.106 235.224 165.558 235.057C188.7 234.497 211.85 235.777 234.791 238.886C236.783 239.218 248.571 240.716 247.907 244.711C247.242 248.706 240.435 248.373 238.277 248.706C231.399 249.68 224.469 250.236 217.524 250.37C201.419 250.869 184.817 251.036 168.546 250.537C167.882 250.37 167.882 249.205 168.546 249.371Z" fill="#FFD580"/>
<path opacity="0.4" d="M168.878 244.378C183.488 245.377 198.43 244.711 213.041 245.044H221.176C222.882 245.27 224.616 244.98 226.157 244.212L224.164 243.546C220.382 242.883 216.549 242.549 212.709 242.547C199.759 242.048 186.975 241.216 174.025 241.049L150.615 241.549C146.298 241.715 139.989 240.383 136.005 242.547V241.549C140.155 244.045 145.634 243.379 150.283 243.546L168.878 244.545C169.542 244.545 169.542 245.71 168.878 245.71L148.291 244.711C143.974 244.545 139.159 244.877 135.507 242.547C135.009 242.214 135.009 241.715 135.507 241.549C139.491 239.385 145.468 240.383 149.951 240.383C159.082 240.383 168.048 239.884 177.179 239.884C190.959 240.051 204.739 240.883 218.519 241.715C220.512 241.881 225.825 241.715 227.153 243.546C228.481 245.377 223.002 246.209 222.172 246.209C214.037 246.708 206.068 246.043 197.932 246.043C189.797 246.043 178.507 246.375 168.878 245.71C168.048 245.377 168.048 244.212 168.878 244.378Z" fill="#FFD580"/>
</g>
<path d="M188.139 153.833C186.605 153.235 184.968 152.952 183.324 153.001C181.11 153.106 178.925 153.555 176.849 154.332C174.656 154.986 172.697 156.257 171.204 157.994C170.872 158.327 171.536 160.491 171.536 160.824C171.536 161.157 172.034 164.985 172.366 167.149C172.698 169.312 172.864 171.31 173.196 173.473C173.528 175.637 173.03 175.471 173.694 175.97C174.358 176.469 176.683 176.136 177.679 175.97L184.154 175.471C186.976 175.138 188.471 174.472 189.467 171.642C190.714 168.69 191.39 165.527 191.459 162.322C191.547 160.168 191.208 158.018 190.463 155.997C189.954 155.033 189.135 154.27 188.139 153.833Z" fill="#76A4D1"/>
<path d="M179.837 149.006C182.391 150.884 184.397 153.413 185.648 156.33C186.513 158.137 187.003 160.101 187.089 162.104C187.174 164.107 186.854 166.106 186.146 167.981C184.956 170.356 183.164 172.375 180.949 173.836C178.734 175.297 176.175 176.148 173.528 176.303C175.614 177.37 177.856 178.1 180.169 178.467C183.021 178.974 185.934 179.03 188.803 178.633C194.281 177.801 194.779 175.97 199.926 174.805C203.419 174.047 207.019 173.934 210.552 174.472C216.197 174.971 217.857 176.469 224.664 177.634C227.819 178.134 230.475 178.134 232.135 178.3C233.611 174.431 234.068 170.247 233.463 166.15C232.888 161.997 231.415 158.021 229.147 154.499C223.004 153.334 216.695 152.169 209.888 151.17C199.915 149.928 189.885 149.206 179.837 149.006Z" fill="#9EC2E1"/>
<path d="M168.048 164.985C167.218 170.81 170.04 175.97 174.523 176.636C179.006 177.302 183.322 173.141 184.153 167.315C184.983 161.49 181.994 156.163 177.511 155.498C173.029 154.832 168.878 159.159 168.048 164.985Z" fill="#9EC2E1"/>
<path d="M179.835 158.993C180.771 160.777 181.302 162.748 181.388 164.762C181.474 166.777 181.114 168.786 180.333 170.644C179.005 173.141 175.02 174.639 173.028 172.475C171.036 170.311 171.036 165.151 172.032 161.49C173.028 157.828 175.352 156.33 177.345 159.159C179.337 161.989 180.167 167.481 178.507 170.311C178.26 170.807 177.864 171.214 177.375 171.474C176.886 171.734 176.328 171.834 175.779 171.761C175.231 171.687 174.719 171.444 174.315 171.065C173.911 170.685 173.635 170.189 173.526 169.645C173.028 167.814 172.364 160.824 175.02 159.992C177.677 159.159 176.847 167.814 176.515 168.979C176.183 170.145 175.85 169.479 175.684 169.146C175.185 168.113 175.012 166.952 175.186 165.817C175.232 165.748 175.294 165.692 175.366 165.653C175.438 165.614 175.519 165.594 175.601 165.594C175.684 165.594 175.765 165.614 175.837 165.653C175.909 165.692 175.971 165.748 176.017 165.817C175.792 166.77 175.909 167.772 176.349 168.647H175.684C176.37 166.38 176.485 163.978 176.017 161.656C174.356 161.323 173.692 161.989 174.19 163.82C174.052 164.924 173.997 166.036 174.024 167.149C173.858 168.979 175.186 169.645 178.009 169.312C178.256 168.16 178.422 166.992 178.507 165.817C178.405 164.644 178.239 163.477 178.009 162.322C177.677 161.157 175.85 156.163 173.36 160.491C170.87 164.818 170.372 173.806 176.681 172.641C182.99 171.476 180.997 162.655 179.005 159.492C178.839 158.993 179.503 158.494 179.835 158.993Z" fill="#76A4D1"/>
<path d="M177.849 60.2921H286.596V64.5697H177.849V60.2921Z" fill="#A28036"/>
<path d="M179.177 64.6197H226.66V74.0737H179.177V64.6197Z" fill="#BA924B"/>
<path d="M226.661 64.6197H280.785V74.0737H226.661V64.6197Z" fill="#A28036"/>
<path d="M186.815 42.8156C185.578 42.4291 184.262 42.3718 182.996 42.6492C181.197 42.7927 179.446 43.3024 177.85 44.1472C176.15 44.8686 174.664 46.0147 173.533 47.476C173.367 47.8089 174.031 49.4733 174.031 49.6398C174.031 49.8062 174.861 52.9686 175.193 54.6331C175.525 56.2975 176.023 58.1284 176.355 59.7928C176.687 61.4572 176.521 61.2908 177.019 61.7901C177.517 62.2894 179.344 61.6237 180.174 61.4572L185.321 60.4586C187.645 59.9592 188.641 59.4599 189.305 57.1297C190.123 54.6649 190.461 52.0658 190.301 49.4733C190.082 47.7375 189.577 46.0501 188.807 44.4801C188.604 44.0828 188.322 43.7307 187.98 43.4448C187.638 43.1588 187.241 42.9449 186.815 42.8156Z" fill="#76A4D1"/>
<path d="M179.84 39.6532C182.054 40.9212 183.888 42.7603 185.153 44.9794C186.687 47.832 187.102 51.1567 186.315 54.3002C185.546 56.312 184.269 58.0899 182.611 59.4608C180.953 60.8316 178.969 61.7488 176.852 62.123C178.643 62.6261 180.477 62.9604 182.331 63.1217C184.665 63.4112 187.034 63.2415 189.304 62.6223C193.62 61.6237 193.786 60.1257 197.937 58.6277C200.694 57.8744 203.548 57.5378 206.404 57.629C211.053 57.629 212.381 58.6277 218.026 58.9606C220.015 59.1305 222.014 59.1305 224.003 58.9606C224.866 55.7511 224.923 52.3774 224.169 49.1404C223.382 45.8396 221.848 42.7644 219.686 40.1525L204.08 38.9874C195.994 38.6888 187.898 38.9112 179.84 39.6532Z" fill="#9EC2E1"/>
<path d="M171.537 53.3015C171.371 58.1283 174.027 62.123 177.68 62.2894C181.332 62.4559 184.487 58.6277 184.653 53.9673C184.819 49.3069 182.162 45.1458 178.51 44.9794C174.857 44.8129 171.703 48.6411 171.537 53.3015Z" fill="#9EC2E1"/>
<path d="M180.672 47.6425C182.332 49.9727 183.328 54.3002 182 57.1297C180.672 59.9593 178.181 60.7915 176.023 58.9606C173.865 57.1297 174.031 53.3015 174.529 50.1391C175.027 46.9767 177.019 46.1445 179.011 48.3082C179.91 49.5378 180.5 50.9664 180.731 52.4729C180.962 53.9795 180.828 55.5198 180.339 56.9633C180.145 57.347 179.841 57.664 179.467 57.8737C179.092 58.0834 178.663 58.1763 178.235 58.1405C177.808 58.1048 177.4 57.942 177.065 57.673C176.73 57.4041 176.483 57.041 176.355 56.6304C175.797 54.9138 175.571 53.1058 175.691 51.3042C175.857 50.472 175.857 48.974 176.853 48.8076C177.849 48.6411 179.011 54.7995 178.679 55.9646C178.347 57.1297 178.181 56.2975 178.015 56.1311C177.565 55.3168 177.336 54.3986 177.351 53.468C177.396 53.3993 177.458 53.343 177.531 53.304C177.603 53.2651 177.684 53.2447 177.766 53.2447C177.848 53.2447 177.929 53.2651 178.002 53.304C178.074 53.343 178.136 53.3993 178.181 53.468C178.092 53.8427 178.091 54.2331 178.177 54.6084C178.263 54.9838 178.435 55.3341 178.679 55.6317H178.015C178.153 54.8071 178.208 53.9708 178.181 53.1351C178.207 52.63 178.151 52.1241 178.015 51.6371C178.126 50.6384 177.628 50.472 176.521 51.1378C176.466 52.6987 176.577 54.261 176.853 55.7982C179.177 56.9633 180.173 56.6304 180.007 54.7995C179.979 53.7934 179.868 52.7914 179.675 51.8035C179.52 50.8591 179.182 49.9544 178.679 49.1405L175.857 48.6411C175.537 49.1512 175.312 49.7151 175.193 50.3056C174.695 53.1351 174.529 60.7915 179.675 58.2948C184.822 55.7982 181.668 50.3056 180.007 47.8089C178.347 45.3123 180.339 46.9767 180.672 47.476V47.6425Z" fill="#76A4D1"/>
<path d="M197.77 50.8048C200.427 56.7968 205.574 60.4585 209.06 58.7941C212.547 57.1297 213.211 50.9713 210.554 44.9793C207.898 38.9874 202.751 35.3256 199.265 36.9901C195.778 38.6545 194.948 44.8129 197.77 50.8048Z" fill="#FFAA51"/>
<path d="M204.411 57.629C205.547 57.9872 206.771 57.9522 207.885 57.5296C208.999 57.107 209.939 56.3214 210.554 55.2988C212.048 52.9686 211.218 49.9727 210.222 47.6425C207.526 41.6735 202.825 36.843 196.94 33.9942C197.77 32.1633 200.094 31.4975 202.087 31.3311C206.634 30.6847 211.265 30.9678 215.701 32.1633C220.183 33.4948 224.5 35.4921 228.983 36.4908C240.106 38.9874 251.562 33.8277 262.852 32.4962C271.485 31.3311 271.485 46.9767 269.493 52.1364C267.501 57.2962 262.686 55.6317 258.867 56.1311C255.729 56.5735 252.571 56.8513 249.404 56.9633C242.431 57.1297 235.624 56.1311 228.651 57.2962C224.5 57.7955 220.183 58.9606 216.033 59.6264C212.803 60.2608 209.487 60.3171 206.237 59.7928C205.016 59.5246 203.841 59.0759 202.751 58.4613C201.084 57.3969 199.894 55.7265 199.43 53.8009C199.959 54.7437 200.673 55.5692 201.529 56.2272C202.385 56.8852 203.365 57.3621 204.411 57.629Z" fill="#FFBE65"/>
<path d="M201.588 38.4882C204.743 41.6506 208.395 45.8116 208.893 50.472C209.391 55.1324 208.395 57.2962 204.909 55.4653C203.058 54.4936 201.462 53.0979 200.25 51.3916C199.039 49.6853 198.246 47.7165 197.936 45.6452C197.604 43.8143 198.434 37.9888 201.588 41.1512C203.257 43.0234 204.604 45.1608 205.573 47.4761C206.071 48.6412 207.399 50.9714 206.735 52.3029C206.071 53.6345 201.754 49.6398 201.09 48.8076C200.426 47.9754 198.766 43.315 200.924 43.8143C203.083 44.3137 203.913 47.809 204.743 49.4734C205.573 51.1378 204.245 50.472 203.913 49.9727L202.916 47.809C202.75 47.4761 200.758 43.9808 200.592 45.6452C200.426 47.3096 203.083 49.9727 204.411 51.3043L205.905 50.9714C205.76 50.2288 205.537 49.5036 205.241 48.8076C204.634 47.1756 203.855 45.6133 202.916 44.1472L201.588 42.4828C199.264 42.3163 198.102 42.9821 198.6 44.6465C198.649 46.1596 199.047 47.6406 199.762 48.9741C200.289 50.0575 200.96 51.0652 201.754 51.97L203.747 53.8009C205.296 55.1324 206.79 54.6331 208.229 52.3029C208.727 47.3096 204.245 42.3163 201.09 39.1539C200.592 38.6546 201.256 38.1553 201.588 38.4882Z" fill="#FFD580"/>
<path d="M196.442 169.312C199.264 175.471 204.245 178.966 207.731 177.302C211.218 175.637 212.048 169.645 209.226 163.487C206.403 157.328 201.422 154 197.936 155.498C194.449 156.996 193.785 163.32 196.442 169.312Z" fill="#FFAA51"/>
<path d="M203.083 176.136C204.217 176.526 205.452 176.507 206.573 176.081C207.695 175.656 208.633 174.851 209.226 173.806C210.72 171.642 209.89 168.48 208.894 166.316C206.299 160.279 201.568 155.418 195.612 152.668C196.222 151.82 197.018 151.124 197.939 150.633C198.861 150.142 199.882 149.87 200.925 149.838C205.472 149.201 210.102 149.484 214.539 150.671C218.855 152.002 223.172 154.166 227.655 155.165C238.944 157.495 250.234 152.335 261.69 151.004C270.157 150.005 270.157 165.484 268.165 170.644C266.173 175.804 261.358 174.306 257.705 174.638C254.522 175.163 251.302 175.441 248.076 175.471C241.269 175.637 234.296 174.805 227.489 175.804L214.705 178.134C211.475 178.768 208.159 178.825 204.909 178.3C203.667 178.106 202.479 177.653 201.423 176.969C200.585 176.455 199.86 175.778 199.289 174.977C198.719 174.177 198.315 173.269 198.102 172.308C198.606 173.27 199.312 174.111 200.172 174.772C201.032 175.433 202.025 175.899 203.083 176.136Z" fill="#FFBE65"/>
<path d="M200.26 156.995C203.415 160.158 207.233 164.485 207.566 168.979C207.898 173.473 207.067 175.803 203.581 173.973C201.722 173.012 200.119 171.619 198.906 169.911C197.693 168.203 196.905 166.228 196.608 164.152C196.276 162.488 197.272 156.496 200.26 159.825C201.981 161.69 203.383 163.827 204.411 166.15C204.743 167.148 206.071 169.645 205.407 170.81C204.743 171.975 200.426 168.314 199.762 167.315C199.098 166.316 197.438 161.822 199.596 162.488C201.755 163.154 202.751 166.483 203.415 168.147C204.079 169.812 202.917 168.979 202.751 168.48C202.428 167.726 202.039 167.001 201.589 166.316C201.423 165.983 199.43 162.488 199.43 164.152C199.43 165.817 201.755 168.646 203.083 169.978L204.577 169.479C204.432 168.79 204.209 168.12 203.913 167.481C203.412 165.754 202.626 164.122 201.589 162.654L200.26 160.99C197.936 160.824 196.94 161.656 197.272 163.154C197.403 164.654 197.796 166.118 198.434 167.481C199 168.595 199.667 169.653 200.426 170.644L202.585 172.308C203.913 173.64 205.407 173.14 206.901 170.977C207.399 165.983 202.917 160.824 199.762 157.661C199.43 157.328 199.928 156.663 200.26 156.995Z" fill="#FFD580"/>
<path d="M180.67 110.059C183.493 116.05 188.64 119.712 192.126 118.048C195.613 116.383 196.277 110.225 193.454 104.233C190.632 98.2411 185.651 94.5794 182.165 96.2438C178.678 97.9082 178.014 104.067 180.67 110.059Z" fill="#FFAA51"/>
<path d="M187.478 116.883C188.588 117.262 189.797 117.236 190.89 116.81C191.984 116.384 192.892 115.584 193.455 114.552C194.949 112.389 194.119 109.226 193.289 106.896C190.568 100.928 185.794 96.1416 179.841 93.4142C180.41 92.5254 181.198 91.7983 182.128 91.3028C183.058 90.8073 184.1 90.56 185.154 90.5847C189.701 89.9475 194.331 90.2305 198.768 91.4169C203.25 92.7485 207.401 94.9122 211.884 95.7444C223.173 98.2411 234.463 93.0813 245.919 91.7498C254.386 90.5847 254.552 106.23 252.394 111.39C250.236 116.55 245.587 114.885 241.934 115.385C238.751 115.917 235.532 116.195 232.305 116.217C225.498 116.383 218.525 115.385 211.718 116.55L198.934 118.88C195.704 119.518 192.387 119.574 189.138 119.046C187.896 118.853 186.708 118.399 185.652 117.715C184.814 117.202 184.089 116.524 183.518 115.724C182.948 114.923 182.544 114.015 182.331 113.054C182.886 114.009 183.628 114.84 184.513 115.498C185.397 116.156 186.406 116.627 187.478 116.883Z" fill="#FFBE65"/>
<path d="M184.657 97.7417C187.645 100.904 191.464 105.065 191.962 109.726C192.46 114.386 191.298 116.55 187.977 114.719C186.112 113.746 184.496 112.353 183.257 110.649C182.019 108.946 181.191 106.977 180.838 104.899C180.672 103.068 181.502 97.2424 184.491 100.405C186.193 102.284 187.593 104.418 188.641 106.73C189.139 107.895 190.468 110.391 189.637 111.557C188.807 112.722 184.657 108.893 183.993 108.061C183.328 107.229 181.834 102.569 183.827 103.068C185.819 103.567 186.981 107.229 187.645 108.727C188.309 110.225 187.147 109.726 186.981 109.226L185.985 107.063C185.819 106.73 183.827 103.234 183.661 104.899C183.495 106.563 185.985 109.393 187.313 110.724L188.973 110.225C188.807 109.559 188.475 108.893 188.309 108.061C187.645 106.424 186.81 104.862 185.819 103.401L184.657 101.736C182.166 101.57 181.17 102.236 181.502 103.9C181.713 105.385 182.103 106.838 182.664 108.228C183.188 109.354 183.921 110.371 184.823 111.224C185.364 111.956 186.041 112.577 186.815 113.054C188.143 114.386 189.637 113.887 191.132 111.557C191.796 106.563 187.313 101.57 183.993 98.4075C183.948 98.3143 183.934 98.2097 183.951 98.1079C183.969 98.0061 184.017 97.9123 184.09 97.8392C184.163 97.7662 184.256 97.7176 184.358 97.7002C184.459 97.6827 184.564 97.6972 184.657 97.7417Z" fill="#FFD580"/>
<path d="M217.36 51.1378C219.518 57.2962 224.333 61.4573 227.986 60.1257C231.638 58.7942 232.8 52.8022 230.642 46.4774C228.484 40.1526 223.835 36.1579 220.182 37.4895C216.53 38.821 215.368 44.813 217.36 51.1378Z" fill="#E44035"/>
<path d="M218.69 54.1338C218.8 55.1137 219.108 56.0611 219.593 56.9192C220.078 57.7772 220.73 58.5282 221.512 59.1271C222.55 59.9122 223.736 60.4784 224.999 60.7915C227.693 61.5686 230.505 61.8505 233.3 61.6237H234.628C238.945 61.4573 243.261 60.7915 247.578 60.4586H248.74C252.628 60.4812 256.51 60.7592 260.362 61.2908H261.192L268.165 62.1231H277.795C279.455 61.9566 281.447 62.1231 283.273 62.1231H284.104C285.032 62.0858 285.935 61.8048 286.722 61.3083C287.508 60.8118 288.151 60.1171 288.586 59.2935C291.243 54.3002 292.571 38.8211 284.104 38.9875L279.787 39.3204H278.791L268.995 40.6519H268.165C264.479 41.1467 260.757 41.3138 257.041 41.1513H256.045C253.957 41.0214 251.893 40.63 249.902 39.9861C247.451 39.1035 245.065 38.0467 242.763 36.8237L241.269 36.158L237.118 34.3271C233.981 33.1152 230.678 32.3857 227.323 32.1633H223.67C221.678 32.3298 219.354 32.6627 218.191 34.4935C223.772 37.8129 228.005 42.9997 230.145 49.1405C230.809 51.4707 231.307 54.6331 229.647 56.7969C228.949 57.7624 227.94 58.4558 226.789 58.7592C225.639 59.0626 224.42 58.9574 223.338 58.4613C221.288 57.6772 219.621 56.1257 218.69 54.1338Z" fill="#FF5437"/>
<path d="M222.507 39.1539C225.496 42.9821 228.484 47.6425 228.65 52.8022C228.816 57.962 226.326 57.7955 223.504 55.9647C220.681 54.1338 217.859 48.4747 218.025 44.1472C218.191 39.8197 220.847 40.319 222.673 42.6492C223.93 44.5049 224.935 46.5199 225.662 48.6412C225.828 49.4734 227.156 52.6358 226.16 53.468C225.164 54.3002 221.179 50.1392 220.515 48.6412C219.851 47.1432 219.519 43.6479 221.345 44.4801C223.172 45.3123 223.836 48.8076 224.5 50.6385C225.164 52.4694 223.836 51.3043 223.67 50.8049C223.504 50.3056 223.172 49.1405 222.839 48.3083L221.843 46.311L221.511 45.8116C221.197 46.2789 221.029 46.8294 221.029 47.3929C221.029 47.9563 221.197 48.5068 221.511 48.9741C222.08 49.9296 222.748 50.8222 223.504 51.6371C223.836 52.1365 225.994 54.7996 225.33 50.9714C224.795 48.5221 223.9 46.1661 222.673 43.9808C221.179 41.4841 219.021 42.4828 218.855 45.1459C218.775 46.4421 218.944 47.7417 219.353 48.9741C219.851 50.6385 224.334 58.7942 227.322 54.966C230.311 51.1378 226.99 48.1418 225.994 45.9781C224.964 43.707 223.561 41.6253 221.843 39.8197C221.511 39.3204 222.175 38.821 222.507 39.1539Z" fill="#FF7360"/>
<path d="M197.602 107.063C199.76 113.387 204.575 117.382 208.228 116.217C211.88 115.052 213.043 108.893 210.884 102.569C208.726 96.2438 204.077 92.2491 200.425 93.4142C196.772 94.5793 195.61 100.904 197.602 107.063Z" fill="#D8B280"/>
<path d="M203.58 114.553C204.68 115.032 205.912 115.111 207.064 114.777C208.216 114.443 209.215 113.716 209.889 112.722C211.55 110.724 211.052 107.562 210.387 105.232C208.376 98.9772 204.115 93.6969 198.434 90.4183C199.085 89.6079 199.926 88.9713 200.882 88.5648C201.837 88.1583 202.879 87.9946 203.912 88.0881C208.491 87.9537 213.054 88.6878 217.361 90.2518C221.677 92.0827 225.662 94.5793 230.145 95.9109C241.102 99.4062 252.89 95.4116 264.346 95.2451C272.813 94.9122 271.485 110.558 268.828 115.385C266.172 120.212 261.689 118.381 258.037 118.381C254.829 118.547 251.615 118.547 248.407 118.381C241.6 117.715 234.793 116.217 227.82 116.55C223.504 116.716 219.187 117.382 214.87 117.715C211.637 117.935 208.389 117.654 205.241 116.883C203.978 116.57 202.792 116.003 201.754 115.218C200.981 114.625 200.344 113.872 199.885 113.011C199.427 112.149 199.158 111.199 199.098 110.225C199.99 112.186 201.592 113.733 203.58 114.553Z" fill="#EBCCA0"/>
<path d="M202.75 95.2452C205.738 99.0733 208.727 103.567 208.893 108.727C209.059 113.887 206.568 113.887 203.746 111.889C201.887 110.567 200.404 108.781 199.443 106.709C198.483 104.637 198.077 102.349 198.267 100.072C198.433 96.9096 201.089 96.2438 202.916 98.574C204.174 100.488 205.178 102.559 205.904 104.732C206.07 105.398 207.398 108.727 206.402 109.559C205.406 110.391 201.421 106.064 200.757 104.566C200.093 103.068 199.761 99.5727 201.587 100.571C203.414 101.57 204.078 104.732 204.742 106.563C205.406 108.394 204.078 107.229 203.912 106.73C203.746 106.23 203.414 105.065 203.082 104.4L202.085 102.236L201.753 101.736C201.439 102.204 201.272 102.754 201.272 103.318C201.272 103.881 201.439 104.432 201.753 104.899C202.322 105.906 202.989 106.854 203.746 107.728C204.078 108.061 206.236 110.724 205.572 107.063C205.037 104.613 204.142 102.257 202.916 100.072C201.421 97.4089 199.263 98.4076 199.097 101.071C199.004 102.367 199.174 103.669 199.595 104.899C200.093 106.73 204.576 114.719 207.564 111.057C210.553 107.395 207.232 104.233 206.236 102.069C205.168 99.7691 203.77 97.6381 202.085 95.7445C201.753 95.4116 202.418 94.7458 202.75 95.2452Z" fill="#EBCCA0"/>
<path d="M177.681 117.049H286.428V121.327H177.681V117.049Z" fill="#A28036"/>
<path d="M179.009 121.377H226.492V130.831H179.009V121.377Z" fill="#BA924B"/>
<path d="M226.493 121.377H280.617V130.831H226.493V121.377Z" fill="#A28036"/>
<path d="M177.849 178.134H286.596V182.411H177.849V178.134Z" fill="#A28036"/>
<path d="M179.177 182.461H226.66V191.932H179.177V182.461Z" fill="#BA924B"/>
<path d="M226.661 182.461H280.785V191.932H226.661V182.461Z" fill="#A28036"/>
<path d="M272.649 235.39H269.661C270.325 191.782 269.661 148.174 270.325 104.566C270.491 94.2465 269.993 78.4344 271.155 70.6116C275.804 67.2827 273.977 88.0881 273.811 93.7472L273.313 128.201C272.981 150.837 272.815 173.64 272.649 196.276V235.39Z" fill="#A28036"/>
<path d="M230.311 235.723H227.156C227.821 192.281 227.156 148.673 227.821 105.065C228.153 94.5794 227.488 78.9337 228.817 71.1109C233.299 67.7821 231.473 88.5874 231.307 94.2465L230.809 128.7C230.477 151.336 230.311 174.139 230.311 196.775C230.09 209.758 230.09 222.74 230.311 235.723Z" fill="#A28036"/>
<path d="M185.651 236.056H182.497C183.327 192.448 182.497 148.84 183.327 105.232C183.493 94.9123 182.995 79.1002 184.157 71.2774C188.64 67.9485 186.98 88.7539 186.814 94.4129L186.315 129.033C185.983 151.669 185.817 174.472 185.651 197.108V236.056Z" fill="#BA924B"/>
<path d="M238.119 92.4157C236.654 91.7913 235.051 91.5618 233.47 91.7499C231.221 91.8955 228.994 92.2861 226.829 92.915C224.667 93.7156 222.73 95.0291 221.184 96.7432C221.213 97.6392 221.325 98.5307 221.516 99.4063C221.848 101.57 222.18 103.734 222.346 105.731C222.513 107.728 223.011 110.059 223.177 112.056C223.343 114.053 223.177 114.053 223.841 114.719C224.505 115.385 226.829 114.719 227.825 114.719L234.134 114.053C237.123 113.887 238.617 113.221 239.447 110.392C240.807 107.469 241.542 104.294 241.605 101.071C241.556 98.9139 241.163 96.7789 240.443 94.7459C239.991 93.7021 239.16 92.8693 238.119 92.4157Z" fill="#AA5F5F"/>
<path d="M229.981 87.5888C232.534 89.467 234.541 91.9955 235.792 94.9123C236.29 96.4103 238.448 101.404 236.124 106.563C234.985 108.991 233.209 111.063 230.987 112.558C228.764 114.053 226.179 114.915 223.506 115.052C225.641 115.955 227.868 116.625 230.147 117.049C233.046 117.639 236.027 117.695 238.946 117.216C244.259 116.383 244.757 114.553 250.07 113.387C253.572 112.714 257.158 112.601 260.696 113.055C266.34 113.72 267.835 115.218 274.642 116.217C277.169 116.62 279.721 116.842 282.279 116.883C283.586 113.033 284.039 108.943 283.607 104.899C283.136 100.694 281.592 96.6811 279.124 93.2479C273.148 91.9163 266.673 90.7512 259.865 89.919C249.959 88.5442 239.98 87.7661 229.981 87.5888Z" fill="#B97474"/>
<path d="M218.026 103.567C217.196 109.393 220.185 114.719 224.667 115.385C229.15 116.05 233.301 111.723 234.131 105.897C234.961 100.072 232.139 94.9122 227.656 94.2465C223.173 93.5807 218.856 97.7418 218.026 103.567Z" fill="#B97474"/>
<path d="M229.817 97.7418C230.839 99.4965 231.419 101.475 231.506 103.505C231.593 105.536 231.184 107.557 230.315 109.393C229.152 111.889 225.168 113.387 223.01 111.057C220.851 108.727 221.183 103.9 222.179 100.238C223.176 96.5767 225.334 95.0787 227.492 97.9083C229.651 100.738 230.315 106.064 228.488 109.06C228.241 109.556 227.845 109.963 227.356 110.223C226.867 110.483 226.31 110.583 225.761 110.51C225.212 110.436 224.7 110.193 224.296 109.814C223.892 109.434 223.617 108.938 223.508 108.394C223.176 106.397 222.345 99.4063 225.002 98.7405C227.658 98.0747 226.828 106.563 226.496 107.728C226.164 108.893 225.998 108.061 225.832 107.728C225.279 106.773 225.046 105.664 225.168 104.566C225.334 104.067 226.164 104.067 225.998 104.566C225.838 105.539 226.013 106.537 226.496 107.396H225.666C226.435 105.201 226.55 102.83 225.998 100.571C224.338 100.238 223.84 100.904 224.172 102.735V106.064C223.84 107.895 225.168 108.561 227.99 108.061C228.412 107.005 228.582 105.866 228.488 104.732C228.487 103.495 228.319 102.263 227.99 101.071C227.824 99.9056 225.832 94.9123 223.342 99.0734C220.851 103.234 220.519 112.389 226.828 111.224C233.137 110.059 230.979 101.404 229.152 98.0747C228.82 97.5754 229.651 97.2425 229.817 97.7418Z" fill="#AB5F5F"/>
<path d="M238.113 153.833C236.638 153.235 235.055 152.952 233.464 153.001C231.198 153.122 228.962 153.57 226.823 154.332C224.333 154.998 223.171 156.33 221.178 157.994C221.207 158.945 221.319 159.892 221.511 160.824C221.843 162.821 222.175 164.985 222.341 167.149C222.507 169.312 223.005 171.31 223.171 173.473C223.337 175.637 223.171 175.471 223.835 175.97C224.499 176.469 226.823 176.136 227.819 175.97L234.128 175.471C237.117 175.138 238.611 174.472 239.441 171.643C240.82 168.727 241.556 165.548 241.6 162.322C241.55 160.165 241.158 158.03 240.437 155.997C239.965 155.006 239.134 154.233 238.113 153.833Z" fill="#9B9DC8"/>
<path d="M229.978 149.006C232.532 150.884 234.538 153.413 235.789 156.33C236.833 158.432 237.326 160.767 237.22 163.113C237.114 165.46 236.413 167.74 235.183 169.739C233.953 171.739 232.235 173.39 230.192 174.539C228.148 175.687 225.846 176.294 223.503 176.303C225.599 177.346 227.837 178.075 230.144 178.467C233.052 178.97 236.019 179.026 238.943 178.633C244.256 177.801 244.754 175.97 250.067 174.805C253.559 174.047 257.16 173.934 260.693 174.472C266.338 174.971 267.832 176.469 274.639 177.634C277.96 178.134 280.616 178.134 282.276 178.3C283.581 174.392 284.034 170.249 283.604 166.15C283.065 161.962 281.527 157.965 279.122 154.499C273.145 153.334 266.67 152.169 259.863 151.17C249.945 149.929 239.97 149.206 229.978 149.006Z" fill="#AAB6DC"/>
<path d="M218.022 164.985C217.192 170.81 220.181 175.97 224.663 176.636C229.146 177.302 233.297 173.141 234.127 167.315C234.957 161.49 232.135 156.163 227.652 155.498C223.169 154.832 218.853 159.159 218.022 164.985Z" fill="#AAB6DC"/>
<path d="M229.979 158.993C232.303 162.322 233.797 169.312 229.813 171.975C225.828 174.638 221.179 173.806 220.017 169.479C218.855 165.151 219.519 158.826 223.338 157.994C227.156 157.162 229.979 164.319 229.315 168.147C228.65 171.975 224.998 173.473 222.674 169.645C220.349 165.817 221.345 161.49 223.504 160.491C225.662 159.492 226.99 164.652 226.824 166.649C226.658 168.647 226.492 168.813 225.33 168.647C224.168 168.48 224.5 166.483 224.666 165.651C224.832 164.818 225.496 165.318 225.33 165.817C225.164 166.316 225.828 167.814 225.994 165.817C226.105 164.982 226.049 164.133 225.828 163.32V162.655C225.717 161.323 224.887 161.157 223.338 162.155C223.063 163.129 222.95 164.141 223.006 165.151C223.006 167.149 223.006 169.479 224.832 170.81C226.658 172.142 228.484 168.314 228.65 166.982C228.757 165.399 228.531 163.811 227.986 162.322C227.156 159.825 223.504 157.661 221.843 160.491C221.395 161.315 221.113 162.22 221.013 163.154C220.183 166.316 220.017 169.645 222.84 171.809C225.662 173.973 230.809 170.977 231.307 167.149C231.619 164.411 230.843 161.661 229.149 159.492C229.115 159.385 229.119 159.27 229.159 159.166C229.198 159.061 229.272 158.973 229.368 158.915C229.464 158.858 229.576 158.834 229.687 158.848C229.797 158.862 229.9 158.913 229.979 158.993Z" fill="#9C9EC9"/>
<path d="M107.286 231.395H98.9851C94.5837 230.515 90.507 228.443 87.1973 225.404V231.562H84.0428C83.9136 229.631 83.5226 227.728 82.8807 225.903C82.0313 223.858 80.9742 221.906 79.7262 220.077C76.5717 214.585 79.7262 205.43 83.2127 203.1C86.6992 200.77 88.0274 203.766 93.1742 208.759C93.4002 210.799 93.8455 212.808 94.5024 214.751C95.6646 217.581 96.9928 221.742 100.645 224.571C104.298 227.401 107.951 226.901 108.615 229.565C108.732 230.178 108.674 230.813 108.449 231.395H107.286Z" fill="#FF5437"/>
<path d="M125.546 231.395H117.245C112.844 230.515 108.767 228.443 105.457 225.404V230.064C105.438 230.567 105.383 231.067 105.291 231.562H102.303C102.104 229.626 101.658 227.724 100.974 225.903C100.233 223.84 99.2281 221.882 97.986 220.077C94.8315 214.585 97.986 205.43 101.472 203.1C104.959 200.77 106.121 203.766 111.434 208.759C111.66 210.799 112.105 212.808 112.762 214.751C113.806 218.557 115.942 221.972 118.905 224.571C122.558 227.234 126.21 226.901 126.708 229.565C126.826 230.178 126.768 230.813 126.542 231.395H125.546Z" fill="#FF5437"/>
<path d="M96.3261 135.191V137.189C96.4921 143.014 97.4883 149.006 97.6543 154.832C97.8203 160.657 97.9863 165.983 97.4883 185.79C97.3222 192.281 96.9902 200.77 96.6581 210.923L90.1831 212.255L76.7351 209.758C76.0425 204.18 75.6545 198.568 75.5729 192.947C75.0748 177.301 76.7351 169.978 74.4107 157.661C73.4146 153.001 72.2524 149.339 71.5883 147.009C69.8115 143.104 68.636 138.951 68.1017 134.692C67.6191 130.708 67.6749 126.677 68.2677 122.708C69.2639 117.049 69.596 109.06 77.0671 108.228C80.7197 107.728 84.2062 109.559 87.3607 111.723C90.36 113.651 92.9086 116.206 94.8318 119.213C97.6543 124.539 96.4921 129.699 96.3261 135.191Z" fill="#EBCCA0"/>
<path d="M110.605 121.377C115.752 138.354 115.752 153.001 115.586 164.153C115.42 175.304 114.756 182.295 114.092 190.118C113.428 197.94 112.93 203.1 112.432 207.428L104.96 210.59L95.165 207.927C94.999 197.441 94.5009 186.289 93.6707 174.805C92.3425 157.162 90.1842 140.684 87.6938 125.704C88.3579 122.375 93.5047 101.071 99.9797 101.071C106.455 101.071 108.115 112.722 110.605 121.377Z" fill="#EBCCA0"/>
<path d="M148.792 99.5727C152.445 101.736 156.762 104.566 158.09 108.561C157.184 107.96 156.128 107.626 155.042 107.597C153.956 107.567 152.884 107.844 151.947 108.394C151.103 109.042 150.465 109.922 150.112 110.927C149.758 111.932 149.703 113.018 149.955 114.053C148.128 116.883 144.144 117.549 140.989 116.55C137.871 115.332 135.083 113.393 132.854 110.891C128.703 107.063 124.553 103.068 122.062 98.0747C119.81 93.2458 119.169 87.8179 120.236 82.5955C121.232 78.6009 121.066 66.2841 125.881 70.7781C130.696 75.272 133.518 85.2586 136.673 89.2532C140.159 93.2979 144.247 96.7787 148.792 99.5727Z" fill="#95B7DB"/>
<path d="M72.9176 106.73C74.1307 99.1643 76.7194 91.8866 80.5548 85.2586C82.4647 81.9451 84.6887 78.8237 87.1958 75.9378C88.0259 74.7727 88.358 73.2747 89.1881 72.276C90.3627 71.0566 91.7757 70.0933 93.3387 69.4465C94.999 68.4478 96.1612 67.1163 98.4856 67.1163C105.957 66.7834 109.111 75.9378 110.107 81.7633C110.273 83.2613 110.771 85.2586 112.266 85.425C113.76 85.5915 114.756 84.2599 115.42 82.9284C116.084 81.5969 118.409 73.6076 120.069 70.2787C121.729 66.9499 122.227 70.1123 123.721 70.2787C124.289 70.3211 124.831 70.5345 125.275 70.8909C125.719 71.2474 126.046 71.7302 126.212 72.276C126.494 73.3617 126.606 74.4847 126.544 75.6049C126.184 79.0321 126.073 82.481 126.212 85.9244C126.876 91.5834 126.544 98.574 120.069 100.904C118.682 101.228 117.342 101.732 116.084 102.402C115.184 103.165 114.496 104.148 114.089 105.257C113.681 106.366 113.568 107.561 113.76 108.727C114.092 111.057 114.922 113.221 115.254 115.718C115.484 116.88 115.423 118.082 115.075 119.215C114.727 120.348 114.104 121.377 113.262 122.209C111.482 123.329 109.371 123.799 107.285 123.54H100.81C98.1492 123.596 95.4876 123.485 92.8407 123.208C88.9429 122.543 85.11 121.54 81.3849 120.212C78.7285 119.379 75.9061 118.381 74.2458 116.051C72.5855 113.72 72.4195 109.892 72.9176 106.73Z" fill="#9EC2E1"/>
<path d="M122.561 71.7767C125.55 71.4438 129.368 71.7767 131.859 70.9445C131.888 70.2676 132 69.5969 132.191 68.9472C132.643 67.5499 132.867 66.0886 132.855 64.6196C132.523 62.9552 131.527 61.6237 131.361 60.1257C131.486 58.9989 131.708 57.8851 132.025 56.7968C132.025 55.2988 132.689 54.1337 131.361 53.468C130.033 52.8022 127.21 52.8022 125.716 52.4693C124.886 57.2961 124.222 62.123 123.392 66.9498C123.059 68.9471 121.897 69.7794 122.561 71.7767Z" fill="#FFD580"/>
<path d="M106.622 74.6063C109.368 78.6313 110.87 83.3786 110.939 88.2546C113.613 86.4263 115.922 84.1116 117.746 81.4304L119.572 78.1016C120.485 76.1522 121.101 74.0762 121.398 71.9432C121.89 70.3222 121.947 68.6001 121.564 66.9499C120.9 62.6224 117.414 58.2948 114.591 58.6277C111.769 58.9606 112.101 60.7915 110.773 62.7888C109.956 64.2133 108.745 65.3696 107.286 66.1177C103.8 67.7821 100.811 66.4505 100.313 67.6156C99.815 68.7807 102.637 68.4479 106.622 74.6063Z" fill="#FF8F67"/>
<path d="M109.943 53.6344C110.057 52.445 110.446 51.2987 111.08 50.2871C111.714 49.2756 112.576 48.4269 113.596 47.8089C114.625 47.2656 115.776 46.9957 116.938 47.0248C118.101 47.054 119.236 47.3812 120.237 47.9754C121.897 48.8076 122.395 50.1391 124.222 49.3069C126.048 48.4747 127.044 47.8089 128.538 49.4733C129.119 50.2004 129.518 51.0566 129.7 51.97C131.693 58.2948 127.874 71.1109 119.407 70.2787C118.248 70.1386 117.131 69.7549 116.129 69.1526C115.128 68.5503 114.265 67.743 113.596 66.7834C112.177 64.9036 111.159 62.7504 110.607 60.4586C109.978 58.2425 109.753 55.9307 109.943 53.6344Z" fill="#FF8F67"/>
<path d="M108.282 134.526C109.112 137.688 110.274 140.85 111.436 144.013C111.75 145.093 112.139 146.149 112.599 147.175C112.914 148.201 113.302 149.202 113.761 150.171C113.927 150.837 114.259 151.336 114.425 152.002L115.919 155.497C116.405 156.694 116.959 157.861 117.579 158.993C119.074 162.488 120.9 165.983 122.726 169.312C123.013 170.083 123.404 170.811 123.888 171.476C124.719 173.14 125.715 174.638 126.711 176.303L128.371 179.132L132.19 185.124C132.686 185.694 133.131 186.306 133.518 186.955L136.008 190.45L139.495 195.111L143.479 200.104C144.144 201.103 144.974 201.935 145.638 202.767L147.464 205.097L150.453 208.759L153.773 212.754C155.765 215.084 157.592 217.581 159.418 219.911C161.244 222.241 161.41 222.408 162.24 223.739L166.059 228.899L168.217 232.228L171.538 237.887L172.534 239.551C173.888 242.149 175.107 244.816 176.187 247.54C189.004 243.476 202.587 242.45 215.867 244.544C222.84 245.71 229.647 247.707 236.786 248.705C243.925 249.704 251.23 249.538 257.705 246.542L250.566 236.222L248.574 233.393C246.415 230.563 244.423 227.567 242.431 224.738L240.272 221.908L236.288 216.249C235.831 215.408 235.273 214.625 234.628 213.919C232.469 210.59 230.145 207.428 227.82 204.099L226.16 201.769L222.674 196.775L221.844 195.61L219.021 191.616L216.531 188.12L211.882 181.629L206.403 173.64C206.068 173.235 205.789 172.788 205.573 172.308L202.751 168.314L200.924 165.65L197.77 160.824C197.585 160.415 197.363 160.025 197.106 159.659L189.967 148.34C189.469 147.675 189.136 146.842 188.638 146.01C187.49 144.294 186.437 142.516 185.484 140.684C185.167 140.359 184.938 139.958 184.82 139.519C183.947 138.189 183.171 136.799 182.495 135.358L180.503 132.029C180.503 131.863 180.503 131.696 180.337 131.696C178.345 127.868 175.522 123.041 170.874 122.209C168.52 121.877 166.227 121.204 164.067 120.212C164.897 120.544 162.738 124.373 162.406 124.706C161.208 126.239 159.594 127.395 157.758 128.034C156.429 128.534 154.935 128.367 153.441 128.867C149.389 130.36 145.225 131.529 140.989 132.362C130.158 133.916 119.223 134.64 108.282 134.526Z" fill="#2D71C6"/>
<g opacity="0.2">
<path d="M111.435 144.013C111.749 145.093 112.137 146.149 112.597 147.175C118.076 147.508 123.389 147.342 128.868 147.175C147.297 146.177 166.223 142.848 182.494 135.358L180.502 132.029C180.502 131.863 180.502 131.696 180.336 131.696C176.178 134.09 171.782 136.043 167.22 137.522C156.638 141.195 145.659 143.598 134.513 144.679C126.821 145.382 119.073 145.159 111.435 144.013Z" fill="white"/>
<path d="M113.759 150.171C113.925 150.837 114.257 151.336 114.423 152.002C125.024 153.261 135.744 153.093 146.3 151.503C156.131 150.367 165.815 148.191 175.189 145.012C178.692 143.747 182.127 142.303 185.482 140.684C185.165 140.359 184.937 139.958 184.818 139.519L183.49 140.185C177.452 142.74 171.237 144.853 164.895 146.51C148.314 151.418 130.868 152.667 113.759 150.171Z" fill="white"/>
<path d="M115.918 155.497C116.403 156.694 116.957 157.861 117.578 158.993C124.372 159.52 131.192 159.631 137.999 159.326C155.93 158.493 174.027 155.331 189.965 148.34C189.467 147.675 189.135 146.842 188.637 146.01C185.771 147.556 182.77 148.838 179.672 149.838C167.252 153.42 154.522 155.816 141.652 156.995C132.188 157.495 123.887 157.661 115.918 155.497Z" fill="white"/>
<path d="M139.493 195.111L143.478 200.104C150.526 200.985 157.627 201.375 164.729 201.269C183.324 201.103 202.417 198.44 219.02 191.616L216.529 188.12C212.312 190.211 207.924 191.937 203.413 193.28C192.954 196.11 181.996 198.773 170.54 199.106C159.084 199.438 149.953 198.939 139.493 195.111Z" fill="white"/>
<path d="M143.81 202.434C144.053 203.078 144.22 203.749 144.308 204.432L147.463 205.097C158.862 207.094 170.477 207.542 181.996 206.429C191.883 205.588 201.667 203.804 211.216 201.103C215.035 199.938 217.359 198.773 222.672 196.775L221.842 195.61L219.684 196.442C213.573 198.777 207.304 200.668 200.923 202.102C182.811 206.74 163.854 206.968 145.636 202.767L143.81 202.434Z" fill="white"/>
<path d="M150.451 208.759L153.772 212.754C160.267 213.58 166.816 213.914 173.363 213.753C192.123 213.586 211.216 211.089 227.819 204.099L226.159 201.769C222.785 203.554 219.22 204.95 215.533 205.93C202.969 209.093 190.121 210.989 177.181 211.589C167.386 211.755 158.586 211.589 150.451 208.759Z" fill="white"/>
<path d="M126.709 176.303L128.37 179.132C135.659 179.74 142.981 179.851 150.285 179.465C168.382 178.633 186.811 175.304 202.749 168.314L200.923 165.651C197.679 167.385 194.29 168.833 190.795 169.978C180.336 173.14 167.386 176.303 155.93 176.969C144.474 177.634 137.003 178.134 126.709 176.303Z" fill="white"/>
<path d="M122.725 169.312C123.011 170.083 123.403 170.811 123.887 171.476C135.399 173.059 147.074 173.059 158.586 171.476C168.404 170.26 178.079 168.086 187.475 164.985C190.961 163.82 193.286 162.655 197.768 160.824C197.584 160.415 197.361 160.025 197.104 159.659L195.942 160.158C189.894 162.688 183.682 164.801 177.347 166.483C159.61 171.688 140.903 172.657 122.725 169.312Z" fill="white"/>
<path d="M132.188 185.124C132.685 185.694 133.129 186.306 133.516 186.955C144.471 188.062 155.522 187.726 166.389 185.957C176.167 184.402 185.782 181.95 195.112 178.633C198.93 177.302 201.255 175.97 206.402 173.64C206.066 173.236 205.787 172.788 205.572 172.308L203.413 173.473C197.462 176.238 191.299 178.52 184.984 180.297C167.951 185.766 149.927 187.414 132.188 185.124Z" fill="white"/>
<path d="M159.416 219.911C160.413 221.242 161.409 222.408 162.239 223.739C176.019 226.402 189.965 228.566 203.745 226.069C214.205 224.238 224.166 217.581 234.792 216.083H236.286C235.829 215.241 235.272 214.459 234.626 213.753C229.313 214.085 223.834 216.915 218.854 218.746C199.792 226.119 178.751 226.531 159.416 219.911Z" fill="white"/>
<path d="M166.057 228.899L168.216 232.228C181 234.724 194.116 236.389 207.066 234.225C217.525 232.394 227.487 225.57 238.113 224.072L242.429 224.738L240.271 221.908H240.105C233.962 221.575 227.819 224.738 222.174 226.902C204.191 233.706 184.477 234.407 166.057 228.899Z" fill="white"/>
<path d="M171.536 237.887L172.532 239.551C175.521 238.053 180.668 237.887 183.158 237.72C188.146 237.273 193.172 237.497 198.1 238.386C207.398 239.718 216.529 241.881 225.661 241.049C234.792 240.217 242.097 237.387 250.564 236.222L248.572 233.393C239.275 236.888 230.641 239.385 220.68 239.052C211.592 238.804 202.54 237.802 193.618 236.056C185.814 234.391 181.166 236.555 171.536 237.887Z" fill="white"/>
</g>
<path d="M97.4889 115.551C98.8171 121.21 100.477 127.369 105.458 130.531C107.284 131.863 109.609 132.528 110.937 134.359C111.67 135.453 111.959 136.786 111.742 138.086C111.526 139.386 110.822 140.554 109.775 141.35C109.572 141.119 109.454 140.825 109.443 140.518C109.467 140.605 109.474 140.697 109.462 140.787C109.45 140.877 109.42 140.964 109.373 141.042C109.327 141.12 109.265 141.187 109.191 141.24C109.117 141.293 109.033 141.331 108.945 141.35C108.281 141.516 107.782 141.849 107.284 141.183C106.786 140.518 107.284 140.518 106.952 140.351C106.699 139.99 106.356 139.703 105.956 139.519C104.882 139.262 103.828 138.928 102.802 138.52C99.9793 137.522 98.153 135.025 96.3267 132.528L82.2146 113.387C84.0514 112.145 86.067 111.19 88.1915 110.558C89.2486 110.16 90.3836 110.012 91.507 110.128C92.6305 110.243 93.712 110.618 94.6665 111.224C95.6845 111.864 96.4926 112.79 96.9908 113.887C97.2911 114.923 97.5131 115.98 97.655 117.049C98.153 118.714 98.4851 120.212 98.9831 121.71L97.4889 115.551Z" fill="#FF8F67"/>
<path d="M100.313 67.6156C97.9883 66.4505 95.3319 67.782 94.0037 68.4478C90.775 70.1768 88.2068 72.927 86.6985 76.2706C84.5402 80.0988 83.046 84.0935 80.3896 93.4143C77.7332 102.735 77.2351 107.063 77.7332 110.059C78.2313 113.055 78.7293 116.383 82.2159 118.88C83.8971 119.69 85.6867 120.25 87.5287 120.544C86.2005 118.714 85.2043 118.048 84.8723 116.883L87.1966 115.052C88.0132 114.494 88.9388 114.116 89.912 113.944C90.8852 113.772 91.8837 113.809 92.8415 114.053C94.8427 114.448 96.6546 115.502 97.9883 117.049C98.4099 117.198 98.8636 117.23 99.3017 117.142C99.7399 117.054 100.146 116.849 100.479 116.55C100.949 115.747 101.125 114.806 100.977 113.887C100.229 110.739 99.1721 107.672 97.8222 104.732C95.996 100.738 94.9998 98.7404 95.1659 97.4089C95.3319 96.0773 98.6524 93.4143 100.147 88.421C101.641 83.4277 99.9806 85.425 100.977 81.4304C101.973 77.4357 103.135 77.1028 103.135 74.4398C103.135 71.7767 103.301 69.28 100.313 67.6156Z" fill="#95B7DB"/>
<path d="M159.251 118.048C160.912 118.714 163.07 119.546 161.908 121.543C160.745 123.54 161.742 122.209 161.908 122.542C162.074 122.875 162.572 122.875 162.904 122.708C163.236 122.542 163.402 121.71 164.066 121.543C164.569 121.443 165.091 121.501 165.56 121.71C166.39 122.209 167.054 122.875 166.722 123.873C166.39 124.872 166.39 124.706 166.556 125.205C166.61 125.326 166.687 125.435 166.783 125.525C166.88 125.616 166.993 125.687 167.116 125.733C167.24 125.78 167.371 125.801 167.503 125.796C167.635 125.791 167.765 125.76 167.885 125.704C168.383 125.538 169.545 124.706 169.545 124.04V125.371C169.907 125.418 170.275 125.389 170.625 125.286C170.975 125.184 171.301 125.01 171.581 124.775C171.862 124.541 172.091 124.252 172.255 123.925C172.419 123.597 172.513 123.24 172.533 122.875V124.206C173.539 123.584 174.271 122.601 174.579 121.456C174.888 120.312 174.75 119.094 174.194 118.048C173.22 116.61 171.829 115.506 170.209 114.885L153.108 106.064C152.473 105.592 151.745 105.259 150.973 105.087C150.201 104.915 149.401 104.908 148.626 105.065C147.959 105.286 147.362 105.679 146.895 106.205C146.429 106.731 146.109 107.372 145.969 108.061C144.973 111.889 146.135 112.722 149.456 114.053L159.251 118.048Z" fill="#FF8F67"/>
<path d="M96.6615 211.256C96.7496 211.256 96.834 211.221 96.8963 211.158C96.9586 211.096 96.9936 211.011 96.9936 210.923V207.261C98.1557 185.624 99.3179 163.154 96.8276 141.516C96.8276 141.35 96.6615 141.183 96.3295 141.183C95.9974 141.183 95.9974 141.35 95.9974 141.683C98.4878 163.154 97.3256 185.624 96.1634 207.261V210.757C96.1634 211.09 96.3295 211.256 96.4955 211.256H96.6615Z" fill="#AB3B38"/>
<path d="M120.234 70.6116H121.562C121.895 70.6116 121.895 70.2787 121.895 70.1123L121.562 69.7794C120.288 69.9223 118.999 69.8043 117.771 69.4323C116.544 69.0604 115.405 68.4423 114.423 67.6156C113.049 66.3989 112.115 64.7602 111.767 62.9552C111.601 62.7888 111.435 62.6223 111.269 62.7888C111.103 62.9552 110.937 62.9552 110.937 63.1217C111.395 65.1028 112.436 66.9004 113.925 68.2814C115.688 69.78 117.923 70.6054 120.234 70.6116Z" fill="#AB3B38"/>
<path d="M111.271 71.7767C111.138 70.8398 111.082 69.8934 111.105 68.9472C111.437 67.2828 112.101 66.9499 112.101 65.4519C112.101 63.9539 110.773 63.1217 111.105 61.7902C111.437 60.4586 112.267 60.7915 112.931 59.2935C113.229 58.8923 113.441 58.4343 113.555 57.9477C113.669 57.461 113.683 56.9561 113.595 56.464C113.415 55.7852 113.058 55.1662 112.563 54.6694C112.067 54.1726 111.45 53.8156 110.773 53.6345L106.788 52.9687C105.626 58.1284 104.464 63.1217 103.136 68.2814C105.744 69.6756 108.465 70.8449 111.271 71.7767Z" fill="#FFD580"/>
<path d="M128.537 58.2953C128.044 57.6688 127.332 57.2526 126.545 57.1302C126.047 57.1302 126.213 56.4645 126.711 56.4645C127.175 56.49 127.627 56.6236 128.03 56.8547C128.434 57.0859 128.778 57.4082 129.036 57.796C129.068 57.8288 129.094 57.8677 129.112 57.9106C129.13 57.9534 129.139 57.9993 129.139 58.0457C129.139 58.092 129.13 58.138 129.112 58.1808C129.094 58.2236 129.068 58.2626 129.036 58.2953C129.003 58.3281 128.964 58.3541 128.921 58.3719C128.879 58.3896 128.833 58.3988 128.786 58.3988C128.74 58.3988 128.694 58.3896 128.652 58.3719C128.609 58.3541 128.57 58.3281 128.537 58.2953Z" fill="#AB3B38"/>
<path d="M128.537 60.2922C127.598 60.4853 126.625 60.4279 125.715 60.1258C125.383 59.9593 125.549 59.2936 125.881 59.46C126.676 59.7601 127.543 59.818 128.371 59.6265C128.703 59.6265 129.035 60.2922 128.537 60.2922Z" fill="#AB3B38"/>
<path d="M120.068 59.6265C119.514 59.9022 118.894 60.0171 118.277 59.9583C117.661 59.8995 117.074 59.6693 116.582 59.2936C116.249 59.1271 116.582 58.4614 117.08 58.6278C117.434 58.9511 117.88 59.1565 118.355 59.2161C118.831 59.2757 119.313 59.1865 119.736 58.9607C120.234 58.7943 120.566 59.46 120.068 59.6265Z" fill="#AB3B38"/>
<path d="M123.559 58.4614C123.393 60.2923 123.393 62.1231 123.393 63.954H122.064C121.898 64.1204 121.732 63.7876 122.064 63.6211C122.396 63.4547 123.061 63.6211 123.061 63.2882V61.6238C123.033 60.4562 123.089 59.2882 123.227 58.1285C123.227 57.9621 123.559 57.9621 123.559 58.1285V58.4614Z" fill="#AB3B38"/>
<path d="M120.236 57.1298C119.064 56.9909 117.875 57.1044 116.75 57.4627C116.252 57.6291 116.086 56.9634 116.584 56.7969C117.88 56.4381 119.231 56.3252 120.568 56.464C120.656 56.5082 120.723 56.5856 120.754 56.6792C120.786 56.7729 120.778 56.8751 120.734 56.9634C120.69 57.0517 120.613 57.1188 120.52 57.15C120.426 57.1812 120.324 57.174 120.236 57.1298Z" fill="#AB3B38"/>
<path d="M105.792 51.8036H106.124C108.315 53.0474 110.66 53.9986 113.097 54.6331C116.864 55.5195 120.785 55.5195 124.553 54.6331C127.043 53.9673 127.873 52.9687 129.534 52.4693C129.909 52.4109 130.258 52.2364 130.53 51.97C130.663 51.655 130.72 51.3127 130.696 50.9713V50.1391C129.817 49.0486 129.142 47.8082 128.703 46.4774C128.514 45.999 128.402 45.4933 128.371 44.9794C128.206 43.1459 127.758 41.3491 127.043 39.6532C126.545 38.3217 126.213 37.6559 125.549 37.323C124.885 36.9901 124.055 36.9901 120.734 37.8224C117.414 38.6546 115.587 39.1539 114.425 38.9875C113.708 38.9019 112.984 38.9019 112.267 38.9875C111.345 39.3147 110.498 39.824 109.777 40.4854C108.614 41.4841 107.452 44.1472 106.456 47.8089C105.46 51.4707 105.958 50.472 105.792 51.8036Z" fill="white"/>
<path d="M138.498 54.4666L132.687 56.131C128.602 57.0343 124.412 57.3703 120.235 57.1297C116.168 56.881 112.121 56.3807 108.115 55.6317C105.67 55.0527 103.145 54.8839 100.644 55.1324L96.6596 55.7982C98.0467 54.9773 99.4891 54.2543 100.976 53.6344C102.803 52.8022 104.463 51.8035 105.957 51.3042C109.754 52.2557 113.669 52.6481 117.579 52.4693C120.084 52.2626 122.578 51.9293 125.05 51.4706L130.695 50.3055L138.498 54.4666Z" fill="white"/>
<path d="M120.402 52.1365C115.557 52.4051 110.697 52.0131 105.958 50.9714C106.217 49.9906 106.384 48.9875 106.456 47.9754C108.439 48.2024 110.439 48.2581 112.432 48.1419C115.32 48.2667 118.212 48.0994 121.066 47.6425C123.582 47.0725 126.031 46.2356 128.371 45.1459C128.401 45.6598 128.513 46.1655 128.703 46.6439C129.148 47.8879 129.763 49.0642 130.529 50.1392C127.236 51.1719 123.84 51.8416 120.402 52.1365Z" fill="#FFD580"/>
<path d="M103.635 72.6089C104.299 77.4358 102.473 82.5955 100.979 87.0895C100.106 89.6692 98.8163 92.0873 97.16 94.2465C93.0094 99.7391 99.4844 106.896 100.481 112.555C100.481 112.888 99.8164 113.055 99.8164 112.722C98.9863 107.895 92.6773 100.571 95.6657 95.2452C98.6542 89.919 104.133 80.7646 102.971 72.7754C102.971 72.4425 103.635 72.2761 103.635 72.6089Z" fill="white"/>
<path d="M127.043 81.0975C127.043 89.2532 127.707 101.237 116.749 101.404C116.661 101.404 116.577 101.369 116.515 101.306C116.452 101.244 116.417 101.159 116.417 101.071C116.417 100.982 116.452 100.898 116.515 100.835C116.577 100.773 116.661 100.738 116.749 100.738C127.375 100.571 126.379 88.7539 126.379 81.0975C126.379 81.0092 126.414 80.9246 126.476 80.8621C126.538 80.7997 126.623 80.7646 126.711 80.7646C126.799 80.7646 126.883 80.7997 126.946 80.8621C127.008 80.9246 127.043 81.0092 127.043 81.0975Z" fill="white"/>
<path d="M81.0528 91.7499C79.5586 99.7391 75.408 108.061 81.0528 115.385C81.3849 115.718 80.7208 116.051 80.5548 115.718C74.7439 108.228 78.7285 99.9056 80.3887 91.5834C80.5547 91.0841 81.2189 91.2505 81.0528 91.7499Z" fill="white"/>
<path d="M122.062 66.1176C121.896 65.7847 120.568 65.4518 120.07 65.4518C119.572 65.4518 118.576 65.2854 117.746 64.7861C118.042 65.7182 118.622 66.5335 119.406 67.1163C120.07 67.4492 122.229 67.4492 121.73 66.2841L122.062 66.1176Z" fill="#FF5437"/>
</svg>
