<svg width="20" height="20" viewBox="0 0 20 20" fill="none" xmlns="http://www.w3.org/2000/svg">
<path fill-rule="evenodd" clip-rule="evenodd" d="M2.06557 0H17.9344C19.0805 0 20 0.948651 20 2.10925V3.65591C20 4.21954 19.7806 4.75971 19.3892 5.15434L12.6223 12.0153L12.6229 17.2104C12.6229 17.4468 12.5034 17.6646 12.3098 17.7925L12.2223 17.8416L7.77927 19.9327C7.31653 20.1505 6.78448 19.8129 6.78448 19.3015L6.78419 11.9995L0.550823 5.1262C0.235434 4.77915 0.0455183 4.3356 0.00720859 3.86773L0 3.69128V2.10925C0 0.948651 0.919541 0 2.06557 0ZM17.9345 1.3954H2.06562C1.70013 1.3954 1.3954 1.70978 1.3954 2.10936V3.69139C1.3954 3.87806 1.46331 4.05564 1.584 4.18845L7.999 11.2615C8.1154 11.3898 8.17988 11.5569 8.17988 11.7302L8.17959 18.2012L11.227 16.7678L11.2276 11.7302C11.2276 11.5835 11.2738 11.4416 11.3582 11.3238L11.4285 11.2403L18.3971 4.17335C18.529 4.04033 18.6047 3.85396 18.6047 3.65602V2.10936C18.6047 1.70978 18.3 1.3954 17.9345 1.3954Z" fill="black"/>
</svg>
