<svg width="32" height="32" viewBox="0 0 32 32" fill="none" xmlns="http://www.w3.org/2000/svg">
<path d="M13.983 22.1063L13.6343 21.748L13.6342 21.7481L13.983 22.1063ZM13.25 22.4648L12.7511 22.4315L12.7155 22.9648H13.25V22.4648ZM14 22.0898L13.6514 21.7314L13.6513 21.7315L14 22.0898ZM15.8017 20.338L16.0988 19.9358L15.7574 19.6836L15.4531 19.9795L15.8017 20.338ZM19.5499 23.1072L19.2528 23.5094L19.2794 23.529L19.3083 23.545L19.5499 23.1072ZM20.9094 22.4668L20.4203 22.363L20.4199 22.3647L20.9094 22.4668ZM23.37 10.8714L22.8849 10.7504L22.8828 10.759L22.8809 10.7676L23.37 10.8714ZM22.3251 9.70287L22.505 10.1694L22.5186 10.1642L22.5318 10.1581L22.3251 9.70287ZM7.87635 15.2742L7.69645 14.8077L7.69022 14.8102L7.87635 15.2742ZM7.69658 16.4652L7.84555 15.9879L7.84296 15.9872L7.69658 16.4652ZM11.4045 17.6225L11.2555 18.0998L11.4759 18.1686L11.6712 18.0454L11.4045 17.6225ZM19.9886 12.2069L19.7293 11.7793L19.7218 11.784L19.9886 12.2069ZM20.4605 12.3642L20.1286 11.9902L20.1255 11.993L20.4605 12.3642ZM13.5053 18.6407L13.2392 19.0641L13.5594 19.2654L13.8403 19.0119L13.5053 18.6407ZM13.5052 18.6407L13.7713 18.2174L13.0659 17.774L13.0065 18.6051L13.5052 18.6407ZM13.5052 18.6408L13.8405 19.0118L13.9896 18.877L14.004 18.6764L13.5052 18.6408ZM13.5049 18.6411L13.1697 18.2701L12.716 18.6801L13.2079 19.0433L13.5049 18.6411ZM13.5052 18.6413L14.0041 18.6746L14.0223 18.4016L13.8022 18.2391L13.5052 18.6413ZM30.5 15.5898C30.5 23.598 24.0081 30.0898 16 30.0898V31.0898C24.5604 31.0898 31.5 24.1503 31.5 15.5898H30.5ZM16 1.08984C24.0081 1.08984 30.5 7.58172 30.5 15.5898H31.5C31.5 7.02943 24.5604 0.0898438 16 0.0898438V1.08984ZM1.5 15.5898C1.5 7.58172 7.99187 1.08984 16 1.08984V0.0898438C7.43959 0.0898438 0.5 7.02943 0.5 15.5898H1.5ZM16 30.0898C7.99187 30.0898 1.5 23.598 1.5 15.5898H0.5C0.5 24.1503 7.43959 31.0898 16 31.0898V30.0898ZM13.6342 21.7481C13.5251 21.8544 13.4767 21.8978 13.4273 21.9264C13.3952 21.945 13.3495 21.9648 13.25 21.9648V22.9648C13.5154 22.9648 13.7354 22.9035 13.9282 22.7919C14.1037 22.6903 14.2395 22.5545 14.3318 22.4646L13.6342 21.7481ZM13.6513 21.7315L13.6343 21.748L14.3317 22.4647L14.3487 22.4482L13.6513 21.7315ZM15.4531 19.9795L13.6514 21.7314L14.3486 22.4483L16.1502 20.6964L15.4531 19.9795ZM15.5045 20.7401L19.2528 23.5094L19.847 22.7051L16.0988 19.9358L15.5045 20.7401ZM19.3083 23.545C19.7115 23.7675 20.1873 23.8939 20.6294 23.6945C21.0742 23.494 21.2989 23.0481 21.3989 22.5688L20.4199 22.3647C20.348 22.7094 20.2379 22.7741 20.2184 22.7829C20.1962 22.7929 20.0781 22.8276 19.7915 22.6694L19.3083 23.545ZM21.3985 22.5706L23.8591 10.9752L22.8809 10.7676L20.4203 22.363L21.3985 22.5706ZM23.8552 10.9924C24.0064 10.3859 23.9211 9.80805 23.5371 9.43662C23.1461 9.05843 22.5893 9.03381 22.1184 9.24759L22.5318 10.1581C22.7208 10.0723 22.8125 10.127 22.8419 10.1554C22.8783 10.1907 22.9855 10.3469 22.8849 10.7504L23.8552 10.9924ZM22.1452 9.23635L7.69646 14.8077L8.05624 15.7408L22.505 10.1694L22.1452 9.23635ZM7.69022 14.8102C7.41102 14.9222 7.17084 15.0569 6.98846 15.2181C6.80931 15.3764 6.64677 15.5968 6.61882 15.8764C6.58899 16.1748 6.72309 16.4233 6.90497 16.595C7.0783 16.7586 7.30766 16.8691 7.55019 16.9433L7.84296 15.9872C7.68512 15.9388 7.61349 15.8886 7.59136 15.8677C7.58247 15.8593 7.59095 15.8645 7.60054 15.8867C7.61116 15.9113 7.61712 15.9433 7.61386 15.9759C7.60766 16.0379 7.57856 16.0312 7.6507 15.9674C7.7196 15.9065 7.84855 15.8241 8.06248 15.7383L7.69022 14.8102ZM7.5476 16.9425L11.2555 18.0998L11.5534 17.1452L7.84555 15.988L7.5476 16.9425ZM11.6712 18.0454L20.2554 12.6298L19.7218 11.784L11.1377 17.1997L11.6712 18.0454ZM20.2478 12.6344C20.3044 12.6001 20.3505 12.5849 20.3771 12.5794C20.4132 12.572 20.3902 12.5858 20.3287 12.5648C20.2952 12.5533 20.2294 12.5236 20.1696 12.4525C20.1031 12.3735 20.0692 12.2722 20.0729 12.1723C20.0762 12.0829 20.108 12.0245 20.1211 12.0036C20.1349 11.9817 20.1424 11.978 20.1286 11.9902L20.7924 12.7382C20.8968 12.6454 21.0626 12.4668 21.0722 12.2093C21.0776 12.0627 21.0292 11.9209 20.9347 11.8087C20.8469 11.7043 20.7395 11.6485 20.6532 11.6189C20.4863 11.5616 20.3133 11.5716 20.1753 11.6C20.0277 11.6304 19.8754 11.6908 19.7293 11.7794L20.2478 12.6344ZM20.1255 11.993L13.1703 18.2695L13.8403 19.0119L20.7955 12.7354L20.1255 11.993ZM13.2392 19.064L13.2392 19.0641L13.7714 18.2174L13.7713 18.2174L13.2392 19.064ZM14.004 18.6764L14.004 18.6763L13.0065 18.6051L13.0065 18.6051L14.004 18.6764ZM13.17 18.2698L13.1697 18.2701L13.8401 19.0121L13.8405 19.0118L13.17 18.2698ZM13.2079 19.0433L13.2082 19.0435L13.8022 18.2391L13.8019 18.2389L13.2079 19.0433ZM13.7489 22.4981L14.0041 18.6746L13.0063 18.608L12.7511 22.4315L13.7489 22.4981Z" fill="white"/>
</svg>
