<svg width="32" height="32" viewBox="0 0 32 32" fill="none" xmlns="http://www.w3.org/2000/svg">
<path fill-rule="evenodd" clip-rule="evenodd" d="M16 1C7.71573 1 1 7.71573 1 16C1 24.2843 7.71573 31 16 31C24.2843 31 31 24.2843 31 16C31 7.71573 24.2843 1 16 1ZM12.702 8.04833C13.5554 8.0095 13.8281 8 16.0007 8H15.9983C18.1716 8 18.4433 8.0095 19.2966 8.04833C20.1483 8.08733 20.73 8.22217 21.24 8.42C21.7666 8.62417 22.2116 8.89751 22.6567 9.34251C23.1017 9.78719 23.375 10.2335 23.58 10.7597C23.7767 11.2684 23.9117 11.8497 23.9517 12.7014C23.99 13.5547 24 13.8274 24 16.0001C24 18.1728 23.99 18.4448 23.9517 19.2981C23.9117 20.1495 23.7767 20.731 23.58 21.2398C23.375 21.7658 23.1017 22.2121 22.6567 22.6568C22.2121 23.1018 21.7665 23.3758 21.2405 23.5802C20.7315 23.778 20.1495 23.9128 19.2978 23.9518C18.4444 23.9907 18.1726 24.0002 15.9998 24.0002C13.8272 24.0002 13.5547 23.9907 12.7014 23.9518C11.8499 23.9128 11.2684 23.778 10.7594 23.5802C10.2335 23.3758 9.78719 23.1018 9.34268 22.6568C8.89784 22.2121 8.62451 21.7658 8.42 21.2396C8.22234 20.731 8.0875 20.1496 8.04833 19.298C8.00967 18.4446 8 18.1728 8 16.0001C8 13.8274 8.01 13.5546 8.04817 12.7012C8.0865 11.8499 8.2215 11.2684 8.41984 10.7595C8.62484 10.2335 8.89818 9.78719 9.34318 9.34251C9.78785 8.89768 10.2342 8.62434 10.7604 8.42C11.269 8.22217 11.8504 8.08733 12.702 8.04833Z" fill="black"/>
<path d="M12.702 8.04833L12.6793 7.54885L12.6792 7.54886L12.702 8.04833ZM19.2966 8.04833L19.3195 7.54886L19.3193 7.54885L19.2966 8.04833ZM21.24 8.42L21.0591 8.88616L21.0592 8.8862L21.24 8.42ZM22.6567 9.34251L22.3031 9.69607L22.3032 9.6962L22.6567 9.34251ZM23.58 10.7597L24.0464 10.5794L24.0459 10.5782L23.58 10.7597ZM23.9517 12.7014L24.4512 12.6789L24.4511 12.6779L23.9517 12.7014ZM23.9517 19.2981L24.4511 19.3216L24.4512 19.3206L23.9517 19.2981ZM23.58 21.2398L24.0459 21.4214L24.0464 21.4201L23.58 21.2398ZM22.6567 22.6568L22.3032 22.3031L22.3029 22.3035L22.6567 22.6568ZM21.2405 23.5802L21.0594 23.1141L21.0593 23.1141L21.2405 23.5802ZM19.2978 23.9518L19.3205 24.4513L19.3207 24.4513L19.2978 23.9518ZM12.7014 23.9518L12.6785 24.4513L12.6786 24.4513L12.7014 23.9518ZM10.7594 23.5802L10.9405 23.1141L10.9405 23.1141L10.7594 23.5802ZM9.34268 22.6568L9.69643 22.3035L9.69617 22.3032L9.34268 22.6568ZM8.42 21.2396L7.95396 21.4207L7.95397 21.4208L8.42 21.2396ZM8.04833 19.298L7.54885 19.3206L7.54886 19.3209L8.04833 19.298ZM8.04817 12.7012L7.54867 12.6787L7.54867 12.6789L8.04817 12.7012ZM8.41984 10.7595L8.8857 10.9411L8.88571 10.9411L8.41984 10.7595ZM9.34318 9.34251L9.6966 9.6962L9.6968 9.696L9.34318 9.34251ZM10.7604 8.42L10.9414 8.88609L10.9416 8.886L10.7604 8.42ZM1.5 16C1.5 7.99187 7.99187 1.5 16 1.5V0.5C7.43959 0.5 0.5 7.43959 0.5 16H1.5ZM16 30.5C7.99187 30.5 1.5 24.0081 1.5 16H0.5C0.5 24.5604 7.43959 31.5 16 31.5V30.5ZM30.5 16C30.5 24.0081 24.0081 30.5 16 30.5V31.5C24.5604 31.5 31.5 24.5604 31.5 16H30.5ZM16 1.5C24.0081 1.5 30.5 7.99187 30.5 16H31.5C31.5 7.43959 24.5604 0.5 16 0.5V1.5ZM16.0007 7.5C13.8255 7.5 13.544 7.5095 12.6793 7.54885L12.7248 8.54782C13.5668 8.5095 13.8306 8.5 16.0007 8.5V7.5ZM15.9983 8.5H16.0007V7.5H15.9983V8.5ZM19.3193 7.54885C18.4547 7.5095 18.1742 7.5 15.9983 7.5V8.5C18.169 8.5 18.4318 8.5095 19.2739 8.54782L19.3193 7.54885ZM21.4208 7.95385C20.8542 7.73407 20.2184 7.59002 19.3195 7.54886L19.2737 8.54781C20.0782 8.58465 20.6057 8.71027 21.0591 8.88616L21.4208 7.95385ZM23.0102 8.98896C22.5129 8.49166 22.0079 8.18144 21.4207 7.95381L21.0592 8.8862C21.5254 9.0669 21.9104 9.30336 22.3031 9.69607L23.0102 8.98896ZM24.0459 10.5782C23.8177 9.99249 23.5078 9.48616 23.0101 8.98883L22.3032 9.6962C22.6955 10.0882 22.9323 10.4746 23.1141 10.9412L24.0459 10.5782ZM24.4511 12.6779C24.4089 11.7793 24.2647 11.1442 24.0464 10.5794L23.1136 10.94C23.2886 11.3926 23.4144 11.9201 23.4522 12.7248L24.4511 12.6779ZM24.5 16.0001C24.5 13.8245 24.49 13.5433 24.4512 12.6789L23.4522 12.7238C23.49 13.5662 23.5 13.8302 23.5 16.0001H24.5ZM24.4512 19.3206C24.49 18.4562 24.5 18.1756 24.5 16.0001H23.5C23.5 18.1699 23.49 18.4333 23.4522 19.2757L24.4512 19.3206ZM24.0464 21.4201C24.2647 20.8551 24.4089 20.2199 24.4511 19.3216L23.4522 19.2747C23.4144 20.079 23.2886 20.6068 23.1136 21.0595L24.0464 21.4201ZM23.0101 23.0105C23.5078 22.5132 23.8177 22.0069 24.0459 21.4214L23.1141 21.0582C22.9323 21.5248 22.6955 21.9111 22.3032 22.3031L23.0101 23.0105ZM21.4215 24.0462C22.008 23.8184 22.5136 23.5075 23.0104 23.0102L22.3029 22.3035C21.9107 22.6961 21.525 22.9332 21.0594 23.1141L21.4215 24.0462ZM19.3207 24.4513C20.2194 24.4102 20.8558 24.2661 21.4216 24.0462L21.0593 23.1141C20.6072 23.2899 20.0795 23.4155 19.2749 23.4524L19.3207 24.4513ZM15.9998 24.5002C18.1752 24.5002 18.4559 24.4907 19.3205 24.4513L19.2751 23.4523C18.433 23.4907 18.17 23.5002 15.9998 23.5002V24.5002ZM12.6786 24.4513C13.5433 24.4907 13.8246 24.5002 15.9998 24.5002V23.5002C13.8298 23.5002 13.5662 23.4907 12.7241 23.4523L12.6786 24.4513ZM10.5782 24.0462C11.144 24.2661 11.7798 24.4101 12.6785 24.4513L12.7243 23.4524C11.9199 23.4155 11.3927 23.2899 10.9405 23.1141L10.5782 24.0462ZM8.98893 23.0102C9.48588 23.5077 9.99224 23.8185 10.5783 24.0462L10.9405 23.1141C10.4748 22.9332 10.0885 22.696 9.69643 22.3035L8.98893 23.0102ZM7.95397 21.4208C8.18171 22.0067 8.4917 22.5131 8.98919 23.0104L9.69617 22.3032C9.30398 21.9112 9.0673 21.5249 8.88604 21.0585L7.95397 21.4208ZM7.54886 19.3209C7.59019 20.2197 7.73423 20.8553 7.95396 21.4207L8.88605 21.0585C8.71044 20.6066 8.58481 20.0796 8.54781 19.275L7.54886 19.3209ZM7.5 16.0001C7.5 18.1755 7.50967 18.456 7.54885 19.3206L8.54782 19.2753C8.50966 18.4332 8.5 18.1701 8.5 16.0001H7.5ZM7.54867 12.6789C7.51001 13.5432 7.5 13.8245 7.5 16.0001H8.5C8.5 13.8303 8.50999 13.566 8.54767 12.7236L7.54867 12.6789ZM7.95398 10.5779C7.73341 11.1438 7.58914 11.7799 7.54867 12.6787L8.54766 12.7237C8.58386 11.9198 8.7096 11.3929 8.8857 10.9411L7.95398 10.5779ZM8.98976 8.98883C8.49206 9.48616 8.18216 9.99247 7.95397 10.578L8.88571 10.9411C9.06752 10.4746 9.30429 10.0882 9.6966 9.6962L8.98976 8.98883ZM10.5794 7.95392C9.99328 8.18152 9.48686 8.49154 8.98956 8.98903L9.6968 9.696C10.0888 9.30381 10.4751 9.06717 10.9414 8.88609L10.5794 7.95392ZM12.6792 7.54886C11.7804 7.59002 11.1447 7.73406 10.5791 7.95401L10.9416 8.886C11.3934 8.71028 11.9204 8.58465 12.7249 8.54781L12.6792 7.54886Z" fill="black"/>
<path fill-rule="evenodd" clip-rule="evenodd" d="M15.2831 9.44145C15.4225 9.44124 15.5724 9.4413 15.7341 9.44137L16.0008 9.44145C18.1368 9.44145 18.39 9.44912 19.2335 9.48745C20.0135 9.52312 20.4368 9.65346 20.7188 9.76296C21.0922 9.90796 21.3583 10.0813 21.6382 10.3613C21.9182 10.6413 22.0915 10.908 22.2368 11.2813C22.3464 11.563 22.4769 11.9863 22.5124 12.7663C22.5507 13.6097 22.559 13.863 22.559 15.998C22.559 18.133 22.5507 18.3864 22.5124 19.2297C22.4767 20.0097 22.3464 20.4331 22.2368 20.7147C22.0918 21.0881 21.9182 21.3539 21.6382 21.6337C21.3582 21.9137 21.0923 22.0871 20.7188 22.2321C20.4372 22.3421 20.0135 22.4721 19.2335 22.5078C18.3901 22.5461 18.1368 22.5544 16.0008 22.5544C13.8646 22.5544 13.6114 22.5461 12.7681 22.5078C11.9881 22.4718 11.5647 22.3414 11.2826 22.2319C10.9092 22.0869 10.6426 21.9136 10.3626 21.6336C10.0826 21.3536 9.90922 21.0876 9.76389 20.7141C9.65439 20.4324 9.52388 20.0091 9.48838 19.2291C9.45005 18.3857 9.44238 18.1324 9.44238 15.996C9.44238 13.8597 9.45005 13.6077 9.48838 12.7643C9.52405 11.9843 9.65439 11.561 9.76389 11.279C9.90889 10.9056 10.0826 10.639 10.3626 10.359C10.6426 10.079 10.9092 9.90562 11.2826 9.76029C11.5646 9.65029 11.9881 9.52029 12.7681 9.48445C13.5061 9.45112 13.7921 9.44112 15.2831 9.43945V9.44145ZM20.271 10.7698C19.741 10.7698 19.311 11.1993 19.311 11.7295C19.311 12.2595 19.741 12.6895 20.271 12.6895C20.8011 12.6895 21.2311 12.2595 21.2311 11.7295C21.2311 11.1995 20.8011 10.7695 20.271 10.7695V10.7698ZM11.8923 15.9999C11.8923 13.7311 13.7318 11.8916 16.0005 11.8915C18.2694 11.8915 20.1084 13.731 20.1084 15.9999C20.1084 18.2687 18.2696 20.1074 16.0007 20.1074C13.7319 20.1074 11.8923 18.2687 11.8923 15.9999Z" fill="black"/>
</svg>
