<svg width="30" height="30" viewBox="0 0 30 30" fill="none" xmlns="http://www.w3.org/2000/svg">
<path fill-rule="evenodd" clip-rule="evenodd" d="M15 0C6.71573 0 0 6.71573 0 15C0 23.2843 6.71573 30 15 30C23.2843 30 30 23.2843 30 15C30 6.71573 23.2843 0 15 0ZM10 13H12V21H10V13ZM13 10.4995C12.9827 9.64831 12.4209 9 11.5087 9C10.5964 9 10 9.64831 10 10.4995C10 11.333 10.5788 12 11.474 12H11.4911C12.4209 12 13 11.333 13 10.4995ZM18.9828 13C20.7072 13 22 14.1174 22 16.5182L21.9999 20.9998H19.3795V16.8181C19.3795 15.7677 19.0003 15.051 18.0517 15.051C17.3277 15.051 16.8965 15.5342 16.7071 16.0009C16.6378 16.1681 16.6208 16.4012 16.6208 16.6348V21H14C14 21 14.0345 13.9172 14 13.1837H16.6208V14.2909C16.9686 13.7586 17.5915 13 18.9828 13Z" fill="black"/>
</svg>
