<svg width="30" height="30" viewBox="0 0 30 30" fill="none" xmlns="http://www.w3.org/2000/svg">
<path fill-rule="evenodd" clip-rule="evenodd" d="M15 30C23.2843 30 30 23.2843 30 15C30 6.71573 23.2843 0 15 0C6.71573 0 0 6.71573 0 15C0 23.2843 6.71573 30 15 30ZM12.25 21.875C12.6148 21.875 12.7815 21.7127 12.983 21.5165L13 21.5L14.8017 19.7481L18.5499 22.5174C19.2397 22.898 19.7376 22.7009 19.9094 21.8769L22.37 10.2816C22.622 9.27153 21.985 8.81343 21.3251 9.11303L6.87635 14.6844C5.89009 15.08 5.89584 15.6302 6.69658 15.8754L10.4045 17.0327L18.9886 11.6171C19.3938 11.3713 19.7657 11.5034 19.4605 11.7744L12.5053 18.0509L12.5052 18.0509L12.5052 18.0509L12.5049 18.0512L12.5052 18.0515L12.25 21.875Z" fill="black"/>
</svg>
