<svg width="32" height="32" viewBox="0 0 32 32" fill="none" xmlns="http://www.w3.org/2000/svg">
<path d="M17.5635 24.4095V24.9095H18.0635V24.4095H17.5635ZM17.5635 16.2487V15.7487H17.0635V16.2487H17.5635ZM14.1869 24.4095H13.6869V24.9095H14.1869V24.4095ZM14.1869 16.249H14.6869V15.749H14.1869V16.249ZM12.5 16.249H12V16.749H12.5V16.249ZM12.5 13.4368V12.9368H12V13.4368H12.5ZM14.1869 13.4368V13.9368H14.6869V13.4368H14.1869ZM20.0988 8.08984H20.5988V7.58984H20.0988V8.08984ZM20.0988 10.9024V11.4024H20.5988V10.9024H20.0988ZM17.5673 12.0289L18.0673 12.0303V12.0289H17.5673ZM17.5635 13.4365L17.0635 13.4351L17.0621 13.9365H17.5635V13.4365ZM20.1147 13.4365L20.6119 13.4893L20.6706 12.9365H20.1147V13.4365ZM19.8162 16.2487V16.7487H20.2659L20.3134 16.3015L19.8162 16.2487ZM1.5 15.5898C1.5 7.58172 7.99187 1.08984 16 1.08984V0.0898438C7.43959 0.0898438 0.5 7.02943 0.5 15.5898H1.5ZM16 30.0898C7.99187 30.0898 1.5 23.598 1.5 15.5898H0.5C0.5 24.1503 7.43959 31.0898 16 31.0898V30.0898ZM30.5 15.5898C30.5 23.598 24.0081 30.0898 16 30.0898V31.0898C24.5604 31.0898 31.5 24.1503 31.5 15.5898H30.5ZM16 1.08984C24.0081 1.08984 30.5 7.58172 30.5 15.5898H31.5C31.5 7.02943 24.5604 0.0898438 16 0.0898438V1.08984ZM18.0635 24.4095V16.2487H17.0635V24.4095H18.0635ZM14.1869 24.9095H17.5635V23.9095H14.1869V24.9095ZM13.6869 16.249V24.4095H14.6869V16.249H13.6869ZM12.5 16.749H14.1869V15.749H12.5V16.749ZM12 13.4368V16.249H13V13.4368H12ZM14.1869 12.9368H12.5V13.9368H14.1869V12.9368ZM13.6869 11.7483V13.4368H14.6869V11.7483H13.6869ZM17.8457 7.58984C16.415 7.58984 15.3395 7.95122 14.6332 8.7206C13.9346 9.48144 13.6869 10.5453 13.6869 11.7483H14.6869C14.6869 10.6572 14.9155 9.89174 15.3698 9.39689C15.8163 8.91059 16.5702 8.58984 17.8457 8.58984V7.58984ZM20.0988 7.58984H17.8457V8.58984H20.0988V7.58984ZM20.5988 10.9024V8.08984H19.5988V10.9024H20.5988ZM18.6905 11.4024H20.0988V10.4024H18.6905V11.4024ZM18.0673 12.0289C18.0673 11.8466 18.0723 11.7205 18.088 11.6245C18.1032 11.5324 18.1229 11.5048 18.1271 11.4994C18.1292 11.4967 18.1332 11.4921 18.1437 11.4853C18.1553 11.4778 18.1782 11.4655 18.2196 11.4526C18.3069 11.4253 18.4527 11.4024 18.6905 11.4024V10.4024C18.1381 10.4024 17.6423 10.4975 17.3405 10.8819C17.1957 11.0664 17.1321 11.2745 17.1013 11.4624C17.071 11.6464 17.0673 11.8444 17.0673 12.0289H18.0673ZM18.0635 13.4378L18.0673 12.0303L17.0673 12.0276L17.0635 13.4351L18.0635 13.4378ZM20.1147 12.9365H17.5635V13.9365H20.1147V12.9365ZM20.3134 16.3015L20.6119 13.4893L19.6175 13.3837L19.319 16.1959L20.3134 16.3015ZM17.5635 16.7487H19.8162V15.7487H17.5635V16.7487Z" fill="white"/>
</svg>
