<svg width="22" height="21" viewBox="0 0 22 21" fill="none" xmlns="http://www.w3.org/2000/svg">
<path fill-rule="evenodd" clip-rule="evenodd" d="M10.761 19.4436C8.5904 18.1077 6.57111 16.5355 4.73929 14.755C3.45144 13.4728 2.47101 11.9096 1.8731 10.1852C0.797144 6.84015 2.05393 3.01067 5.57112 1.87736C7.41961 1.28228 9.43845 1.6224 10.9961 2.79132C12.5543 1.62382 14.5725 1.28382 16.4211 1.87736C19.9383 3.01067 21.2041 6.84015 20.1281 10.1852C19.5302 11.9096 18.5498 13.4728 17.2619 14.755C15.4301 16.5355 13.4108 18.1077 11.2402 19.4436L11.0051 19.5898L10.761 19.4436Z" stroke="black" stroke-width="1.5" stroke-linecap="round" stroke-linejoin="round"/>
<path d="M14.7393 5.64282C15.8046 5.98312 16.5615 6.93952 16.6561 8.06481" stroke="black" stroke-width="1.5" stroke-linecap="round" stroke-linejoin="round"/>
</svg>
