<svg width="18" height="16" viewBox="0 0 18 16" fill="none" xmlns="http://www.w3.org/2000/svg">
<path fill-rule="evenodd" clip-rule="evenodd" d="M8.80052 15.3781C6.99167 14.2649 5.30893 12.9547 3.78242 11.471C2.70921 10.4025 1.89218 9.09981 1.39392 7.66282C0.497294 4.87525 1.54462 1.68402 4.47561 0.7396C6.01602 0.243696 7.69838 0.527127 8.99642 1.50123C10.295 0.528313 11.9767 0.244981 13.5172 0.7396C16.4482 1.68402 17.5031 4.87525 16.6064 7.66282C16.1082 9.09981 15.2912 10.4025 14.218 11.471C12.6914 12.9547 11.0087 14.2649 9.19985 15.3781L9.00395 15.5L8.80052 15.3781Z" fill="#0052B9" stroke="#0052B9" stroke-width="0.780822" stroke-linecap="round" stroke-linejoin="round"/>
<path fill-rule="evenodd" clip-rule="evenodd" d="M12.1157 3.87744C13.0035 4.16103 13.6342 4.95803 13.7131 5.89576L12.1157 3.87744Z" fill="#0052B9"/>
<path d="M12.1157 3.87744C13.0035 4.16103 13.6342 4.95803 13.7131 5.89576" stroke="#0052B9" stroke-width="0.780822" stroke-linecap="round" stroke-linejoin="round"/>
</svg>
