<svg width="32" height="32" viewBox="0 0 32 32" fill="none" xmlns="http://www.w3.org/2000/svg">
<path d="M11.6003 13.0135H12.1003V12.5135H11.6003V13.0135ZM8.20093 13.0135V12.5135H7.70093V13.0135H8.20093ZM11.6003 23.2271V23.7271H12.1003V23.2271H11.6003ZM8.20093 23.2271H7.70093V23.7271H8.20093V23.2271ZM11.8242 9.85403H12.3243L12.3241 9.84302L11.8242 9.85403ZM23.8596 17.3709L24.3596 17.3709V17.3709H23.8596ZM23.8595 23.2271V23.7271H24.3595L24.3595 23.2271L23.8595 23.2271ZM20.4603 23.2271H19.9603V23.7271H20.4603V23.2271ZM16.9936 16.6949L17.456 16.8851L17.4574 16.8818L16.9936 16.6949ZM16.8817 23.2273V23.7273H17.3817V23.2273H16.8817ZM13.4819 23.2273L12.9819 23.2249L12.9795 23.7273H13.4819V23.2273ZM13.4819 13.0138V12.5138H12.958L12.9825 13.0371L13.4819 13.0138ZM16.8817 13.0138H17.3817V12.5138H16.8817V13.0138ZM16.8817 14.4604H16.3817V16.1498L17.3011 14.7326L16.8817 14.4604ZM1.5 15.5898C1.5 7.58172 7.99187 1.08984 16 1.08984V0.0898438C7.43959 0.0898438 0.5 7.02943 0.5 15.5898H1.5ZM16 30.0898C7.99187 30.0898 1.5 23.598 1.5 15.5898H0.5C0.5 24.1503 7.43959 31.0898 16 31.0898V30.0898ZM30.5 15.5898C30.5 23.598 24.0081 30.0898 16 30.0898V31.0898C24.5604 31.0898 31.5 24.1503 31.5 15.5898H30.5ZM16 1.08984C24.0081 1.08984 30.5 7.58172 30.5 15.5898H31.5C31.5 7.02943 24.5604 0.0898438 16 0.0898438V1.08984ZM11.6003 12.5135H8.20093V13.5135H11.6003V12.5135ZM12.1003 23.2271V13.0135H11.1003V23.2271H12.1003ZM8.20093 23.7271H11.6003V22.7271H8.20093V23.7271ZM7.70093 13.0135V23.2271H8.70093V13.0135H7.70093ZM9.92315 8.58984C10.3921 8.58984 10.7319 8.74147 10.9542 8.9561C11.1774 9.17161 11.3159 9.48291 11.3243 9.86504L12.3241 9.84302C12.3105 9.22372 12.0799 8.65292 11.6488 8.2367C11.2168 7.8196 10.617 7.58984 9.92315 7.58984V8.58984ZM8.5 9.85403C8.5 9.48451 8.6379 9.17734 8.86827 8.96041C9.09964 8.74253 9.4527 8.58984 9.92315 8.58984V7.58984C9.23071 7.58984 8.62219 7.81853 8.18271 8.23239C7.74223 8.64719 7.5 9.22212 7.5 9.85403H8.5ZM9.87902 11.1194C9.00168 11.1194 8.5 10.5465 8.5 9.85403H7.5C7.5 11.123 8.47389 12.1194 9.87902 12.1194V11.1194ZM9.90074 11.1194H9.87902V12.1194H9.90074V11.1194ZM11.3242 9.85403C11.3242 10.2155 11.1901 10.524 10.9611 10.7435C10.7323 10.9626 10.3804 11.1194 9.90074 11.1194V12.1194C10.6063 12.1194 11.2162 11.8839 11.6529 11.4655C12.0893 11.0474 12.3242 10.4732 12.3242 9.85403H11.3242ZM24.3596 17.3709C24.3596 15.7161 23.9165 14.4316 23.1089 13.5567C22.2978 12.6779 21.1754 12.2737 19.9457 12.2737V13.2737C20.9529 13.2737 21.7875 13.5995 22.3741 14.235C22.9643 14.8744 23.3596 15.8885 23.3596 17.3709H24.3596ZM24.3595 23.2271L24.3596 17.3709L23.3596 17.3709L23.3595 23.227L24.3595 23.2271ZM20.4603 23.7271H23.8595V22.7271H20.4603V23.7271ZM19.9603 17.7628V23.2271H20.9603V17.7628H19.9603ZM18.7378 15.9537C19.206 15.9537 19.4736 16.1206 19.6475 16.3754C19.843 16.662 19.9603 17.1221 19.9603 17.7628H20.9603C20.9603 17.031 20.8316 16.3366 20.4735 15.8118C20.0938 15.2552 19.5002 14.9537 18.7378 14.9537V15.9537ZM17.4574 16.8818C17.6552 16.3908 18.0692 15.9537 18.7378 15.9537V14.9537C17.5281 14.9537 16.8234 15.7794 16.5298 16.5081L17.4574 16.8818ZM17.3817 17.5232C17.3817 17.2204 17.407 17.0043 17.456 16.8851L16.5312 16.5047C16.4004 16.8227 16.3817 17.2155 16.3817 17.5232H17.3817ZM17.3817 23.2273V17.5232H16.3817V23.2273H17.3817ZM13.4819 23.7273H16.8817V22.7273H13.4819V23.7273ZM12.9825 13.0371C13.0041 13.5002 13.0044 16.0344 12.9987 18.4788C12.9959 19.6952 12.9917 20.8818 12.9882 21.7642C12.9865 22.2055 12.9849 22.5707 12.9838 22.8255C12.9832 22.953 12.9827 23.0528 12.9824 23.1208C12.9823 23.1548 12.9822 23.1808 12.9821 23.1984C12.982 23.2071 12.982 23.2138 12.982 23.2182C12.982 23.2204 12.982 23.2221 12.9819 23.2232C12.9819 23.2238 12.9819 23.2242 12.9819 23.2245C12.9819 23.2246 12.9819 23.2247 12.9819 23.2248C12.9819 23.2249 12.9819 23.2249 13.4819 23.2273C13.9819 23.2297 13.9819 23.2297 13.9819 23.2296C13.9819 23.2296 13.9819 23.2295 13.9819 23.2293C13.9819 23.229 13.9819 23.2286 13.9819 23.228C13.9819 23.2269 13.9819 23.2252 13.982 23.223C13.982 23.2186 13.982 23.2119 13.9821 23.2031C13.9821 23.1856 13.9823 23.1595 13.9824 23.1255C13.9827 23.0574 13.9832 22.9575 13.9838 22.83C13.9849 22.575 13.9865 22.2096 13.9882 21.7682C13.9917 20.8854 13.9959 19.6983 13.9987 18.4811C14.0043 16.0582 14.0045 13.4857 13.9814 12.9904L12.9825 13.0371ZM16.8817 12.5138H13.4819V13.5138H16.8817V12.5138ZM17.3817 14.4604V13.0138H16.3817V14.4604H17.3817ZM19.9457 12.2737C18.9441 12.2737 18.1912 12.5511 17.6216 12.945C17.0595 13.3338 16.7024 13.8181 16.4622 14.1883L17.3011 14.7326C17.5122 14.4073 17.7846 14.0482 18.1905 13.7675C18.589 13.4919 19.1425 13.2737 19.9457 13.2737V12.2737Z" fill="white"/>
</svg>
