<svg width="135" height="27" viewBox="0 0 135 27" fill="none" xmlns="http://www.w3.org/2000/svg">
<path d="M39.9453 21.6903V5.41157H42.9009V21.6903H39.9453Z" fill="black"/>
<path d="M58.1463 26.6085L55.9065 22.9833C55.4601 22.2752 54.7289 21.9212 53.7129 21.9212C52.1428 21.9212 50.7728 21.5748 49.6029 20.8821C48.4329 20.1894 47.5247 19.2196 46.8782 17.9727C46.2317 16.7104 45.9084 15.2327 45.9084 13.5394C45.9084 11.8307 46.2317 10.3529 46.8782 9.10602C47.5247 7.85914 48.4329 6.89705 49.6029 6.21973C50.7728 5.52702 52.1505 5.18066 53.736 5.18066C55.3216 5.18066 56.6993 5.52702 57.8692 6.21973C59.0391 6.89705 59.9473 7.85914 60.5939 9.10602C61.2404 10.3529 61.5637 11.823 61.5637 13.5163C61.5637 15.3635 61.1788 16.949 60.4091 18.2729C59.6549 19.5967 58.6081 20.5665 57.2688 21.1823C57.9308 21.3978 58.5003 21.9135 58.9775 22.7293L60.6631 25.4078L58.1463 26.6085ZM53.736 19.3812C55.2292 19.3812 56.3914 18.8655 57.2227 17.8342C58.0539 16.8028 58.4695 15.3712 58.4695 13.5394C58.4695 11.6921 58.0539 10.2605 57.2227 9.24457C56.4068 8.22859 55.2446 7.7206 53.736 7.7206C52.2428 7.7206 51.0806 8.22859 50.2494 9.24457C49.4181 10.2605 49.0025 11.6921 49.0025 13.5394C49.0025 15.3712 49.4181 16.8028 50.2494 17.8342C51.0806 18.8655 52.2428 19.3812 53.736 19.3812Z" fill="black"/>
<path d="M72.1426 21.9212C70.4494 21.9212 68.9947 21.5825 67.7786 20.9052C66.5779 20.2125 65.6543 19.2427 65.0077 17.9958C64.3612 16.7335 64.0379 15.2481 64.0379 13.5394C64.0379 11.8307 64.3612 10.3529 65.0077 9.10602C65.6543 7.85914 66.5779 6.89705 67.7786 6.21973C68.9947 5.52702 70.4494 5.18066 72.1426 5.18066C73.2356 5.18066 74.267 5.34999 75.2367 5.68865C76.2219 6.02731 77.0301 6.51221 77.6612 7.14334L76.6914 9.49856C75.9987 8.9136 75.2906 8.49028 74.5671 8.22859C73.8436 7.95151 73.0663 7.81296 72.235 7.81296C70.5879 7.81296 69.3333 8.31326 68.4713 9.31384C67.6092 10.299 67.1782 11.7075 67.1782 13.5394C67.1782 15.3712 67.6092 16.7874 68.4713 17.788C69.3333 18.7886 70.5879 19.2889 72.235 19.2889C73.0663 19.2889 73.8436 19.158 74.5671 18.8963C75.2906 18.6192 75.9987 18.1882 76.6914 17.6033L77.6612 19.9585C77.0301 20.5742 76.2219 21.0591 75.2367 21.4132C74.267 21.7518 73.2356 21.9212 72.1426 21.9212Z" fill="black"/>
<path d="M83.2753 21.9212C82.4594 21.9212 81.7282 21.7672 81.0817 21.4594C80.4505 21.1361 79.9502 20.7051 79.5808 20.1663C79.2268 19.6275 79.0497 19.0195 79.0497 18.3422C79.0497 17.5109 79.2652 16.8567 79.6963 16.3795C80.1273 15.8869 80.8277 15.5328 81.7975 15.3173C82.7673 15.1018 84.068 14.9941 85.6997 14.9941H86.5079V14.5092C86.5079 13.7395 86.3386 13.1853 85.9999 12.8467C85.6613 12.508 85.0917 12.3387 84.2912 12.3387C83.6601 12.3387 83.0136 12.4387 82.3516 12.6388C81.6897 12.8236 81.0201 13.116 80.3428 13.5163L79.5115 11.5536C79.9118 11.2765 80.3813 11.0379 80.92 10.8378C81.4742 10.6223 82.0515 10.4607 82.6518 10.3529C83.2676 10.2298 83.8448 10.1682 84.3836 10.1682C86.0307 10.1682 87.2545 10.553 88.055 11.3227C88.8554 12.077 89.2557 13.2546 89.2557 14.8555V21.6903H86.5541V19.8892C86.2924 20.5204 85.8768 21.0206 85.3072 21.3901C84.7376 21.7441 84.0603 21.9212 83.2753 21.9212ZM83.8756 19.9354C84.6299 19.9354 85.2533 19.6737 85.7459 19.1503C86.2539 18.6269 86.5079 17.965 86.5079 17.1646V16.6566H85.7228C84.2758 16.6566 83.2676 16.772 82.698 17.0029C82.1438 17.2184 81.8667 17.6187 81.8667 18.2036C81.8667 18.7116 82.0438 19.1272 82.3978 19.4505C82.7519 19.7738 83.2445 19.9354 83.8756 19.9354Z" fill="black"/>
<path d="M92.1852 21.6903V10.3991H95.0023V12.3849C95.5564 11.0456 96.7417 10.3067 98.5582 10.1682L99.4356 10.0989L99.6203 12.5465L97.9578 12.7081C96.0644 12.8928 95.1177 13.8626 95.1177 15.6175V21.6903H92.1852Z" fill="black"/>
<path d="M101.227 25.8465V10.3991H104.044V12.2001C104.368 11.5844 104.853 11.0918 105.499 10.7223C106.161 10.3529 106.908 10.1682 107.739 10.1682C108.724 10.1682 109.586 10.4068 110.325 10.884C111.079 11.3612 111.664 12.0385 112.08 12.9159C112.496 13.778 112.703 14.817 112.703 16.0331C112.703 17.2338 112.496 18.2806 112.08 19.1734C111.664 20.0509 111.087 20.7282 110.348 21.2054C109.609 21.6826 108.74 21.9212 107.739 21.9212C106.938 21.9212 106.215 21.7518 105.568 21.4132C104.937 21.0591 104.452 20.5896 104.114 20.0047V25.8465H101.227ZM106.931 19.7276C107.793 19.7276 108.486 19.4197 109.009 18.804C109.532 18.1728 109.794 17.2492 109.794 16.0331C109.794 14.8016 109.532 13.8857 109.009 13.2854C108.486 12.6696 107.793 12.3618 106.931 12.3618C106.069 12.3618 105.376 12.6696 104.853 13.2854C104.329 13.8857 104.068 14.8016 104.068 16.0331C104.068 17.2492 104.329 18.1728 104.853 18.804C105.376 19.4197 106.069 19.7276 106.931 19.7276Z" fill="black"/>
<path d="M120.637 21.9212C119.36 21.9212 118.259 21.6826 117.336 21.2054C116.412 20.7282 115.696 20.0509 115.188 19.1734C114.696 18.296 114.449 17.2569 114.449 16.0562C114.449 14.8863 114.688 13.8626 115.165 12.9852C115.658 12.1078 116.327 11.4228 117.174 10.9302C118.036 10.4222 119.013 10.1682 120.106 10.1682C121.707 10.1682 122.97 10.6762 123.893 11.6921C124.832 12.7081 125.302 14.0935 125.302 15.8484V16.7028H117.22C117.436 18.7193 118.59 19.7276 120.684 19.7276C121.315 19.7276 121.946 19.6352 122.577 19.4505C123.208 19.2504 123.785 18.9425 124.309 18.5269L125.117 20.4665C124.578 20.9129 123.901 21.2669 123.085 21.5286C122.269 21.7903 121.453 21.9212 120.637 21.9212ZM120.222 12.1309C119.375 12.1309 118.69 12.3926 118.167 12.9159C117.643 13.4393 117.328 14.1474 117.22 15.0402H122.9C122.839 14.1012 122.577 13.3854 122.115 12.8928C121.669 12.3849 121.038 12.1309 120.222 12.1309Z" fill="black"/>
<path d="M132.715 21.9212C129.728 21.9212 128.235 20.4434 128.235 17.4878V12.5696H126.065V10.3991H128.235V7.02789H131.121V10.3991H134.539V12.5696H131.121V17.3262C131.121 18.0651 131.283 18.6193 131.606 18.9887C131.93 19.3581 132.453 19.5429 133.176 19.5429C133.392 19.5429 133.615 19.5198 133.846 19.4736C134.077 19.412 134.316 19.3504 134.562 19.2889L135.001 21.4132C134.723 21.5671 134.369 21.6903 133.938 21.7826C133.523 21.875 133.115 21.9212 132.715 21.9212Z" fill="black"/>
<path fill-rule="evenodd" clip-rule="evenodd" d="M2.10034 6.08399V21.2012H28.5555V6.08399H2.10034ZM1.2605 4.82422C1.02858 4.82422 0.840576 5.01223 0.840576 5.24414V22.0411C0.840576 22.273 1.02858 22.461 1.2605 22.461H29.3953C29.6272 22.461 29.8153 22.273 29.8153 22.0411V5.24414C29.8153 5.01222 29.6272 4.82422 29.3953 4.82422H1.2605Z" fill="black"/>
<path fill-rule="evenodd" clip-rule="evenodd" d="M27.7159 6.92432L2.94043 6.92432V20.3618H27.7159V6.92432ZM2.94043 6.50439C2.70851 6.50439 2.52051 6.6924 2.52051 6.92432V20.3618C2.52051 20.5938 2.70851 20.7818 2.94043 20.7818H27.7159C27.9478 20.7818 28.1358 20.5938 28.1358 20.3618V6.92432C28.1358 6.6924 27.9478 6.50439 27.7159 6.50439H2.94043Z" fill="black"/>
<g filter="url(#filter0_d_450_36306)">
<path fill-rule="evenodd" clip-rule="evenodd" d="M12.5826 1.19615C13.5222 1.06643 14.5264 1 15.5387 1C16.5511 1 17.5552 1.06643 18.4948 1.19615C19.4334 1.32576 20.2956 1.51687 21.0303 1.76179C21.7603 2.00512 22.374 2.30458 22.8132 2.65797C23.2491 3.00876 23.5618 3.45581 23.5618 3.98401C23.5618 4.24053 23.3538 4.44848 23.0973 4.44848C22.8408 4.44848 22.6328 4.24053 22.6328 3.98401C22.6328 3.85047 22.5546 3.64225 22.2308 3.38168L22.522 3.01982L22.2308 3.38168C21.9102 3.1237 21.4104 2.86766 20.7366 2.64306C20.0676 2.42006 19.2632 2.24 18.3677 2.11636C17.4732 1.99285 16.5116 1.92894 15.5387 1.92894C14.5658 1.92894 13.6042 1.99285 12.7097 2.11636C11.8142 2.24 11.0098 2.42006 10.3408 2.64306C9.66705 2.86766 9.16723 3.1237 8.84666 3.38168C8.52285 3.64225 8.44457 3.85047 8.44457 3.98401C8.44457 4.24053 8.23662 4.44848 7.9801 4.44848C7.72358 4.44848 7.51562 4.24053 7.51562 3.98401C7.51562 3.45581 7.82836 3.00876 8.26426 2.65797C8.7034 2.30458 9.31711 2.00512 10.0471 1.76179C10.7818 1.51687 11.644 1.32576 12.5826 1.19615Z" fill="black"/>
</g>
<path fill-rule="evenodd" clip-rule="evenodd" d="M30.6548 7.76367H29.8149V7.34375H30.6548V7.76367Z" fill="black"/>
<path fill-rule="evenodd" clip-rule="evenodd" d="M30.6548 6.50293H29.8149V6.08301H30.6548V6.50293Z" fill="black"/>
<path fill-rule="evenodd" clip-rule="evenodd" d="M30.6548 9.02295H29.8149V8.60303H30.6548V9.02295Z" fill="black"/>
<path fill-rule="evenodd" clip-rule="evenodd" d="M30.6548 10.2832H29.8149V9.86328H30.6548V10.2832Z" fill="black"/>
<path fill-rule="evenodd" clip-rule="evenodd" d="M30.6548 11.5435H29.8149V11.1235H30.6548V11.5435Z" fill="black"/>
<path fill-rule="evenodd" clip-rule="evenodd" d="M30.6548 12.8027H29.8149V12.3828H30.6548V12.8027Z" fill="black"/>
<path fill-rule="evenodd" clip-rule="evenodd" d="M30.6548 14.062H29.8149V13.6421H30.6548V14.062Z" fill="black"/>
<path fill-rule="evenodd" clip-rule="evenodd" d="M30.6548 15.3223H29.8149V14.9023H30.6548V15.3223Z" fill="black"/>
<path fill-rule="evenodd" clip-rule="evenodd" d="M30.6548 16.5815H29.8149V16.1616H30.6548V16.5815Z" fill="black"/>
<path fill-rule="evenodd" clip-rule="evenodd" d="M30.6548 17.8418H29.8149V17.4219H30.6548V17.8418Z" fill="black"/>
<path fill-rule="evenodd" clip-rule="evenodd" d="M30.6548 19.1011H29.8149V18.6812H30.6548V19.1011Z" fill="black"/>
<path fill-rule="evenodd" clip-rule="evenodd" d="M30.6548 20.3613H29.8149V19.9414H30.6548V20.3613Z" fill="black"/>
<path fill-rule="evenodd" clip-rule="evenodd" d="M30.6548 21.6211H29.8149V21.2012H30.6548V21.6211Z" fill="black"/>
<path fill-rule="evenodd" clip-rule="evenodd" d="M0.839846 7.76367H0V7.34375H0.839846V7.76367Z" fill="black"/>
<path fill-rule="evenodd" clip-rule="evenodd" d="M0.839846 6.50293H0V6.08301H0.839846V6.50293Z" fill="black"/>
<path fill-rule="evenodd" clip-rule="evenodd" d="M0.839846 9.02295H0V8.60303H0.839846V9.02295Z" fill="black"/>
<path fill-rule="evenodd" clip-rule="evenodd" d="M0.839846 10.2832H0V9.86328H0.839846V10.2832Z" fill="black"/>
<path fill-rule="evenodd" clip-rule="evenodd" d="M0.839846 11.5435H0V11.1235H0.839846V11.5435Z" fill="black"/>
<path fill-rule="evenodd" clip-rule="evenodd" d="M0.839846 12.8027H0V12.3828H0.839846V12.8027Z" fill="black"/>
<path fill-rule="evenodd" clip-rule="evenodd" d="M0.839846 14.062H0V13.6421H0.839846V14.062Z" fill="black"/>
<path fill-rule="evenodd" clip-rule="evenodd" d="M0.839846 15.3223H0V14.9023H0.839846V15.3223Z" fill="black"/>
<path fill-rule="evenodd" clip-rule="evenodd" d="M0.839846 16.5815H0V16.1616H0.839846V16.5815Z" fill="black"/>
<path fill-rule="evenodd" clip-rule="evenodd" d="M0.839846 17.8418H0V17.4219H0.839846V17.8418Z" fill="black"/>
<path fill-rule="evenodd" clip-rule="evenodd" d="M0.839846 19.1011H0V18.6812H0.839846V19.1011Z" fill="black"/>
<path fill-rule="evenodd" clip-rule="evenodd" d="M0.839846 20.3613H0V19.9414H0.839846V20.3613Z" fill="black"/>
<path fill-rule="evenodd" clip-rule="evenodd" d="M0.839846 21.6211H0V21.2012H0.839846V21.6211Z" fill="black"/>
<path d="M3.7793 8.18359C3.7793 7.95168 3.9673 7.76367 4.19922 7.76367H5.45899C5.69091 7.76367 5.87891 7.95168 5.87891 8.18359V9.44336C5.87891 9.67528 5.69091 9.86329 5.45899 9.86329H4.19922C3.9673 9.86329 3.7793 9.67528 3.7793 9.44336V8.18359Z" fill="black"/>
<path d="M3.7793 17.8423C3.7793 17.6104 3.9673 17.4224 4.19922 17.4224H5.45899C5.69091 17.4224 5.87891 17.6104 5.87891 17.8423V19.1021C5.87891 19.334 5.69091 19.522 5.45899 19.522H4.19922C3.9673 19.522 3.7793 19.334 3.7793 19.1021V17.8423Z" fill="black"/>
<path d="M24.7744 17.8423C24.7744 17.6104 24.9624 17.4224 25.1943 17.4224H26.4541C26.686 17.4224 26.874 17.6104 26.874 17.8423V19.1021C26.874 19.334 26.686 19.522 26.4541 19.522H25.1943C24.9624 19.522 24.7744 19.334 24.7744 19.1021V17.8423Z" fill="black"/>
<path d="M24.7744 8.18359C24.7744 7.95168 24.9624 7.76367 25.1943 7.76367H26.4541C26.686 7.76367 26.874 7.95168 26.874 8.18359V9.44336C26.874 9.67528 26.686 9.86329 26.4541 9.86329H25.1943C24.9624 9.86329 24.7744 9.67528 24.7744 9.44336V8.18359Z" fill="black"/>
<path fill-rule="evenodd" clip-rule="evenodd" d="M15.5366 7.66211L21.5174 13.6429L15.5366 19.6237L9.55585 13.6429L15.5366 7.66211ZM15.5366 9.44369L11.3374 13.6429L15.5366 17.8421L19.7358 13.6429L15.5366 9.44369Z" fill="black"/>
<path d="M15.2397 11.8399C15.4037 11.6759 15.6696 11.6759 15.8336 11.8399L17.3393 13.3456C17.5033 13.5096 17.5033 13.7755 17.3393 13.9395L15.8336 15.4452C15.6696 15.6092 15.4037 15.6092 15.2397 15.4452L13.734 13.9395C13.57 13.7755 13.57 13.5096 13.734 13.3456L15.2397 11.8399Z" fill="black"/>
<path fill-rule="evenodd" clip-rule="evenodd" d="M17.0423 13.6425L15.5366 12.1368L15.5366 12.1368L14.0309 13.6425L15.5366 15.1483L17.0423 13.6425ZM15.8336 11.8399C15.6696 11.6759 15.4037 11.6759 15.2397 11.8399L13.734 13.3456C13.57 13.5096 13.57 13.7755 13.734 13.9395L15.2397 15.4452C15.4037 15.6092 15.6696 15.6092 15.8336 15.4452L17.3393 13.9395C17.5033 13.7755 17.5033 13.5096 17.3393 13.3456L15.8336 11.8399Z" fill="black"/>
<defs>
<filter id="filter0_d_450_36306" x="6.67578" y="0.580077" width="17.7258" height="5.12793" filterUnits="userSpaceOnUse" color-interpolation-filters="sRGB">
<feFlood flood-opacity="0" result="BackgroundImageFix"/>
<feColorMatrix in="SourceAlpha" type="matrix" values="0 0 0 0 0 0 0 0 0 0 0 0 0 0 0 0 0 0 127 0" result="hardAlpha"/>
<feOffset dy="0.419923"/>
<feGaussianBlur stdDeviation="0.419923"/>
<feComposite in2="hardAlpha" operator="out"/>
<feColorMatrix type="matrix" values="0 0 0 0 0 0 0 0 0 0 0 0 0 0 0 0 0 0 0.19 0"/>
<feBlend mode="normal" in2="BackgroundImageFix" result="effect1_dropShadow_450_36306"/>
<feBlend mode="normal" in="SourceGraphic" in2="effect1_dropShadow_450_36306" result="shape"/>
</filter>
</defs>
</svg>
