<svg width="22" height="16" viewBox="0 0 22 16" fill="none" xmlns="http://www.w3.org/2000/svg">
<path fill-rule="evenodd" clip-rule="evenodd" d="M1.56009 2.73347H20.76C21.2902 2.73347 21.72 2.30366 21.72 1.77347C21.72 1.24328 21.2902 0.813477 20.76 0.813477H1.56009C1.0299 0.813477 0.600098 1.24328 0.600098 1.77347C0.600098 2.30366 1.0299 2.73347 1.56009 2.73347Z" fill="white"/>
<path fill-rule="evenodd" clip-rule="evenodd" d="M20.76 7.21338H1.56009C1.0299 7.21338 0.600098 7.64318 0.600098 8.17337C0.600098 8.70356 1.0299 9.13337 1.56009 9.13337H20.76C21.2902 9.13337 21.72 8.70356 21.72 8.17337C21.72 7.64318 21.2902 7.21338 20.76 7.21338Z" fill="white"/>
<path fill-rule="evenodd" clip-rule="evenodd" d="M20.76 13.6133H1.56009C1.0299 13.6133 0.600098 14.0431 0.600098 14.5733C0.600098 15.1035 1.0299 15.5333 1.56009 15.5333H20.76C21.2902 15.5333 21.72 15.1035 21.72 14.5733C21.72 14.0431 21.2902 13.6133 20.76 13.6133Z" fill="white"/>
</svg>
