<svg width="32" height="32" viewBox="0 0 32 32" fill="none" xmlns="http://www.w3.org/2000/svg">
<path d="M16.7847 20.5124V21.0124H16.8118L16.8389 21.0094L16.7847 20.5124ZM17.2213 20.325L17.5841 20.669L17.5843 20.6689L17.2213 20.325ZM15.8284 20.5124V20.0124H15.8136L15.7989 20.0133L15.8284 20.5124ZM11.86 18.7379L11.5026 19.0876L11.5027 19.0877L11.86 18.7379ZM8.04346 12.5558L7.57656 12.7347L7.58056 12.7451L7.58503 12.7554L8.04346 12.5558ZM8.05207 12.1564L8.43079 12.4828L8.4314 12.4821L8.05207 12.1564ZM8.52161 12.0004L8.51841 11.5003L8.50819 11.5006L8.52161 12.0004ZM10.8075 11.9858L10.8868 11.4922L10.8458 11.4856L10.8043 11.4858L10.8075 11.9858ZM11.1768 12.1318L11.4697 11.7265L11.4697 11.7265L11.1768 12.1318ZM11.3756 12.3953L11.8394 12.2085L11.8373 12.2033L11.3756 12.3953ZM12.2341 14.1421L11.8034 14.396L11.8034 14.3961L12.2341 14.1421ZM13.9581 15.9426L13.7223 15.5017L13.7219 15.5019L13.9581 15.9426ZM14.2891 13.6527L13.7891 13.6469L13.7889 13.6672L13.7903 13.6874L14.2891 13.6527ZM14.0512 12.5842L14.4516 12.2847L14.4514 12.2846L14.0512 12.5842ZM13.3414 12.2339L13.2765 12.7297L13.2767 12.7297L13.3414 12.2339ZM13.6975 11.7923L13.9137 12.2431L13.9137 12.2431L13.6975 11.7923ZM15.6938 11.5918L15.6989 11.0918L15.6987 11.0918L15.6938 11.5918ZM16.8167 11.7016L16.701 12.188L16.7015 12.1881L16.8167 11.7016ZM17.3636 13.2996L16.864 13.2791V13.2791L17.3636 13.2996ZM17.3318 14.6234L16.832 14.6095V14.6095L17.3318 14.6234ZM17.6431 15.9326L17.3751 16.3547L17.3763 16.3555L17.6431 15.9326ZM19.3178 14.1636L19.7465 14.4208L19.7466 14.4208L19.3178 14.1636ZM20.206 12.3223L19.7538 12.1089L19.7458 12.126L19.739 12.1437L20.206 12.3223ZM20.4189 12.0688L20.1659 11.6375L20.1651 11.638L20.4189 12.0688ZM20.7296 12.015L20.6634 12.5106L20.6978 12.5152L20.7326 12.515L20.7296 12.015ZM23.1351 12.0004L23.1382 12.5004L23.166 12.5002L23.1937 12.497L23.1351 12.0004ZM23.9748 12.2363L23.5049 12.4069L23.5053 12.4081L23.9748 12.2363ZM22.722 14.6429L22.3247 14.3393L22.3247 14.3393L22.722 14.6429ZM21.3775 16.7095L21.8748 16.6574L21.3775 16.7095ZM22.2688 17.7777L22.6056 17.4082L22.6055 17.408L22.2688 17.7777ZM23.8431 19.5571L24.2796 19.3132L24.2796 19.3132L23.8431 19.5571ZM23.8574 19.5822L24.2835 19.3205L24.2823 19.3186L23.8574 19.5822ZM23.2697 20.5124L23.2766 21.0123L23.2883 21.0122L23.2999 21.0115L23.2697 20.5124ZM21.1326 20.5416L21.1257 20.0416L21.0811 20.0422L21.0372 20.0508L21.1326 20.5416ZM20.0699 20.2236L20.3493 19.8089L20.3491 19.8088L20.0699 20.2236ZM19.1496 19.331L19.5234 18.9989L19.1496 19.331ZM17.9296 18.4676L17.7808 17.9902L17.7806 17.9903L17.9296 18.4676ZM17.352 19.9125L16.8521 19.9196L16.8521 19.9212L17.352 19.9125ZM1.5 15.5898C1.5 7.58172 7.99187 1.08984 16 1.08984V0.0898438C7.43959 0.0898438 0.5 7.02943 0.5 15.5898H1.5ZM16 30.0898C7.99187 30.0898 1.5 23.598 1.5 15.5898H0.5C0.5 24.1503 7.43959 31.0898 16 31.0898V30.0898ZM30.5 15.5898C30.5 23.598 24.0081 30.0898 16 30.0898V31.0898C24.5604 31.0898 31.5 24.1503 31.5 15.5898H30.5ZM16 1.08984C24.0081 1.08984 30.5 7.58172 30.5 15.5898H31.5C31.5 7.02943 24.5604 0.0898438 16 0.0898438V1.08984ZM16.7847 20.5124C16.8389 21.0094 16.839 21.0094 16.8391 21.0094C16.8392 21.0094 16.8393 21.0094 16.8394 21.0094C16.8395 21.0094 16.8397 21.0094 16.8399 21.0093C16.8402 21.0093 16.8406 21.0093 16.841 21.0092C16.8417 21.0091 16.8426 21.009 16.8435 21.0089C16.8454 21.0087 16.8475 21.0084 16.8499 21.0081C16.8548 21.0075 16.8608 21.0067 16.8679 21.0057C16.8819 21.0037 16.9004 21.0008 16.9223 20.9968C16.9655 20.9889 17.0249 20.9761 17.092 20.9558C17.211 20.9199 17.4204 20.8416 17.5841 20.669L16.8586 19.9809C16.8743 19.9642 16.8654 19.9797 16.8031 19.9985C16.7795 20.0056 16.7575 20.0104 16.7419 20.0132C16.7344 20.0146 16.7291 20.0154 16.7269 20.0157C16.7257 20.0159 16.7254 20.0159 16.726 20.0159C16.7262 20.0158 16.7267 20.0158 16.7275 20.0157C16.7279 20.0156 16.7283 20.0156 16.7288 20.0155C16.729 20.0155 16.7293 20.0155 16.7296 20.0154C16.7297 20.0154 16.7299 20.0154 16.73 20.0154C16.7301 20.0154 16.7302 20.0154 16.7302 20.0154C16.7303 20.0154 16.7305 20.0153 16.7847 20.5124ZM15.8284 21.0124H16.7847V20.0124H15.8284V21.0124ZM11.5027 19.0877C12.5049 20.1117 13.5805 20.5946 14.4102 20.8198C14.8242 20.9322 15.1771 20.9805 15.4301 21.0006C15.5568 21.0107 15.6589 21.0137 15.7316 21.014C15.768 21.0142 15.7971 21.0137 15.8183 21.0131C15.8289 21.0128 15.8376 21.0125 15.8442 21.0122C15.8475 21.0121 15.8503 21.0119 15.8525 21.0118C15.8537 21.0118 15.8547 21.0117 15.8556 21.0117C15.856 21.0116 15.8564 21.0116 15.8568 21.0116C15.857 21.0116 15.8572 21.0116 15.8573 21.0116C15.8576 21.0115 15.8578 21.0115 15.8284 20.5124C15.7989 20.0133 15.7992 20.0132 15.7994 20.0132C15.7994 20.0132 15.7996 20.0132 15.7998 20.0132C15.8 20.0132 15.8002 20.0132 15.8004 20.0132C15.8008 20.0132 15.801 20.0131 15.8011 20.0131C15.8014 20.0131 15.8011 20.0131 15.8004 20.0132C15.7989 20.0132 15.7955 20.0134 15.7902 20.0135C15.7796 20.0138 15.7615 20.0142 15.7366 20.014C15.6867 20.0138 15.6094 20.0117 15.5092 20.0037C15.3086 19.9878 15.0179 19.9486 14.6722 19.8547C13.9823 19.6674 13.0737 19.2631 12.2173 18.3882L11.5027 19.0877ZM8.04346 12.5558C7.58503 12.7554 7.58506 12.7555 7.5851 12.7556C7.58512 12.7556 7.58516 12.7557 7.5852 12.7558C7.58529 12.756 7.5854 12.7563 7.58554 12.7566C7.58582 12.7572 7.58621 12.7581 7.5867 12.7592C7.58769 12.7615 7.58911 12.7647 7.59096 12.7689C7.59467 12.7774 7.60007 12.7896 7.60714 12.8055C7.62127 12.8373 7.64205 12.8837 7.66909 12.9433C7.72317 13.0623 7.80234 13.2339 7.90357 13.4459C8.10591 13.8696 8.39701 14.4564 8.75259 15.1091C9.45775 16.4038 10.4387 18.0001 11.5026 19.0876L12.2174 18.3883C11.2545 17.4041 10.3272 15.9093 9.63076 14.6308C9.28555 13.997 9.00255 13.4267 8.80598 13.015C8.70775 12.8093 8.63127 12.6435 8.57955 12.5297C8.5537 12.4728 8.53405 12.4288 8.52097 12.3994C8.51444 12.3847 8.50955 12.3736 8.50635 12.3664C8.50475 12.3627 8.50358 12.3601 8.50283 12.3584C8.50246 12.3575 8.5022 12.3569 8.50204 12.3565C8.50196 12.3564 8.50191 12.3562 8.50188 12.3562C8.50187 12.3562 8.50187 12.3562 8.50187 12.3561C8.50188 12.3562 8.50189 12.3562 8.04346 12.5558ZM7.67336 11.8299C7.46452 12.0722 7.49619 12.3721 7.51074 12.4748C7.52089 12.5466 7.53649 12.6084 7.54894 12.6512C7.55533 12.6732 7.56132 12.6916 7.5661 12.7056C7.56851 12.7127 7.57064 12.7187 7.5724 12.7235C7.57329 12.726 7.57408 12.7281 7.57478 12.73C7.57513 12.7309 7.57545 12.7318 7.57575 12.7326C7.57589 12.7329 7.57604 12.7333 7.57617 12.7337C7.57624 12.7339 7.5763 12.734 7.57637 12.7342C7.5764 12.7343 7.57645 12.7344 7.57646 12.7344C7.57651 12.7346 7.57656 12.7347 8.04346 12.5558C8.51037 12.3769 8.51041 12.377 8.51046 12.3772C8.51047 12.3772 8.51052 12.3773 8.51055 12.3774C8.5106 12.3775 8.51066 12.3777 8.51072 12.3778C8.51083 12.3781 8.51093 12.3784 8.51103 12.3787C8.51123 12.3792 8.51141 12.3797 8.51156 12.3801C8.51187 12.3809 8.5121 12.3815 8.51225 12.382C8.51256 12.3828 8.51258 12.3829 8.51238 12.3823C8.51195 12.381 8.51075 12.3774 8.5092 12.3721C8.50578 12.3603 8.50255 12.3466 8.50087 12.3347C8.49886 12.3205 8.50124 12.3245 8.49875 12.3424C8.49627 12.3602 8.48476 12.4202 8.43079 12.4828L7.67336 11.8299ZM8.52161 12.0004C8.50819 11.5006 8.50809 11.5006 8.50799 11.5006C8.50795 11.5006 8.50784 11.5006 8.50777 11.5006C8.50762 11.5006 8.50747 11.5006 8.50731 11.5006C8.507 11.5006 8.50666 11.5006 8.5063 11.5007C8.50557 11.5007 8.50476 11.5007 8.50387 11.5007C8.50207 11.5008 8.49992 11.5009 8.49745 11.501C8.4925 11.5012 8.4862 11.5015 8.4787 11.5019C8.46376 11.5027 8.44377 11.5041 8.41997 11.5063C8.37319 11.5106 8.30766 11.5185 8.23456 11.5334C8.16315 11.5479 8.07266 11.5713 7.98085 11.6109C7.89292 11.6487 7.77234 11.7146 7.67274 11.8306L8.4314 12.4821C8.3948 12.5247 8.36441 12.5345 8.37633 12.5293C8.38437 12.5259 8.40339 12.5195 8.43361 12.5134C8.46214 12.5076 8.49038 12.504 8.51195 12.502C8.52232 12.5011 8.53016 12.5006 8.53449 12.5003C8.53664 12.5002 8.53784 12.5002 8.53799 12.5002C8.53806 12.5002 8.53786 12.5002 8.53737 12.5002C8.53713 12.5002 8.53681 12.5002 8.53642 12.5002C8.53622 12.5002 8.53601 12.5002 8.53577 12.5002C8.53566 12.5002 8.53554 12.5002 8.53541 12.5002C8.53535 12.5002 8.53525 12.5002 8.53522 12.5002C8.53512 12.5002 8.53502 12.5002 8.52161 12.0004ZM10.8043 11.4858L8.51841 11.5004L8.5248 12.5004L10.8107 12.4858L10.8043 11.4858ZM11.4697 11.7265C11.3299 11.6255 11.1793 11.5694 11.0819 11.5393C11.0298 11.5232 10.9845 11.5121 10.9512 11.5047C10.9344 11.501 10.9202 11.4982 10.9094 11.4961C10.9039 11.4951 10.8993 11.4943 10.8955 11.4936C10.8936 11.4933 10.8919 11.493 10.8905 11.4928C10.8897 11.4926 10.8891 11.4925 10.8884 11.4924C10.8881 11.4924 10.8878 11.4923 10.8876 11.4923C10.8874 11.4923 10.8873 11.4922 10.8872 11.4922C10.8871 11.4922 10.887 11.4922 10.887 11.4922C10.8869 11.4922 10.8868 11.4922 10.8075 11.9858C10.7282 12.4795 10.7281 12.4795 10.728 12.4795C10.728 12.4795 10.7279 12.4795 10.7278 12.4794C10.7277 12.4794 10.7276 12.4794 10.7275 12.4794C10.7272 12.4794 10.727 12.4793 10.7268 12.4793C10.7264 12.4792 10.726 12.4792 10.7257 12.4791C10.7251 12.479 10.7246 12.4789 10.7243 12.4789C10.7238 12.4788 10.7239 12.4788 10.7246 12.4789C10.7262 12.4792 10.73 12.48 10.7358 12.4812C10.7476 12.4838 10.7658 12.4883 10.7868 12.4948C10.8355 12.5098 10.8696 12.5267 10.884 12.5371L11.4697 11.7265ZM11.3756 12.3953C11.8373 12.2033 11.8373 12.2032 11.8372 12.2031C11.8372 12.2031 11.8372 12.203 11.8371 12.2029C11.8371 12.2028 11.837 12.2026 11.8369 12.2025C11.8368 12.2022 11.8367 12.2019 11.8366 12.2016C11.8363 12.201 11.836 12.2003 11.8357 12.1996C11.8351 12.1981 11.8344 12.1965 11.8336 12.1947C11.8321 12.1911 11.8302 12.1869 11.828 12.1819C11.8236 12.1721 11.8177 12.1597 11.8105 12.1451C11.7962 12.1163 11.7757 12.0776 11.7488 12.0343C11.6996 11.955 11.609 11.8272 11.4697 11.7265L10.884 12.537C10.8722 12.5285 10.881 12.5325 10.8993 12.5619C10.9061 12.5729 10.9114 12.5828 10.9144 12.589C10.9159 12.5919 10.9166 12.5936 10.9166 12.5935C10.9166 12.5934 10.9163 12.5929 10.9159 12.5919C10.9157 12.5914 10.9154 12.5907 10.9151 12.59C10.9149 12.5896 10.9147 12.5891 10.9145 12.5887C10.9144 12.5885 10.9143 12.5882 10.9142 12.588C10.9142 12.5878 10.9141 12.5877 10.9141 12.5876C10.914 12.5875 10.914 12.5874 10.914 12.5874C10.914 12.5873 10.9139 12.5872 11.3756 12.3953ZM12.6648 13.8881C12.432 13.4932 12.2252 13.073 12.0755 12.7483C12.001 12.5867 11.9415 12.4505 11.9008 12.3551C11.8804 12.3075 11.8648 12.2701 11.8544 12.245C11.8492 12.2325 11.8453 12.223 11.8428 12.2168C11.8415 12.2137 11.8406 12.2115 11.84 12.2101C11.8398 12.2094 11.8396 12.2089 11.8395 12.2086C11.8394 12.2085 11.8394 12.2084 11.8394 12.2084C11.8394 12.2084 11.8394 12.2084 11.8394 12.2084C11.8394 12.2084 11.8394 12.2084 11.8394 12.2084C11.8394 12.2084 11.8394 12.2085 11.3756 12.3953C10.9118 12.582 10.9118 12.5821 10.9118 12.5821C10.9118 12.5821 10.9119 12.5822 10.9119 12.5822C10.9119 12.5823 10.9119 12.5824 10.912 12.5825C10.9121 12.5827 10.9122 12.5829 10.9123 12.5832C10.9125 12.5839 10.9129 12.5847 10.9133 12.5858C10.9142 12.5879 10.9154 12.5909 10.917 12.5947C10.9201 12.6024 10.9246 12.6134 10.9305 12.6276C10.9422 12.6559 10.9592 12.6967 10.9812 12.748C11.025 12.8505 11.0883 12.9954 11.1673 13.1668C11.3246 13.5081 11.5471 13.9613 11.8034 14.396L12.6648 13.8881ZM13.7219 15.5019C13.7631 15.4798 13.8173 15.4789 13.8447 15.4881C13.8471 15.4889 13.796 15.4703 13.6853 15.3603C13.4635 15.1399 13.1409 14.6953 12.6647 13.888L11.8034 14.3961C12.2828 15.2089 12.6602 15.7514 12.9805 16.0696C13.1408 16.229 13.3214 16.3676 13.5281 16.4366C13.7598 16.514 13.991 16.4922 14.1942 16.3833L13.7219 15.5019ZM14.2891 13.6527C13.7903 13.6874 13.7903 13.6874 13.7903 13.6873C13.7903 13.6873 13.7903 13.6873 13.7903 13.6873C13.7903 13.6873 13.7903 13.6873 13.7903 13.6873C13.7903 13.6874 13.7903 13.6876 13.7903 13.6879C13.7904 13.6886 13.7904 13.6897 13.7905 13.6913C13.7908 13.6945 13.7911 13.6996 13.7915 13.7064C13.7923 13.72 13.7935 13.7405 13.7949 13.767C13.7977 13.82 13.8012 13.8968 13.8041 13.9901C13.8097 14.1776 13.8124 14.427 13.8013 14.681C13.79 14.9397 13.7651 15.1821 13.7224 15.3639C13.701 15.4552 13.6794 15.512 13.664 15.5418C13.6459 15.5767 13.6562 15.537 13.7223 15.5017L14.1938 16.3835C14.378 16.285 14.4873 16.1265 14.552 16.0016C14.6193 15.8715 14.6642 15.7278 14.6959 15.5925C14.7596 15.3213 14.788 15.007 14.8003 14.7248C14.8129 14.438 14.8097 14.1623 14.8036 13.9599C14.8005 13.8582 14.7967 13.7739 14.7936 13.7146C14.792 13.6849 14.7906 13.6613 14.7896 13.645C14.7891 13.6368 14.7887 13.6304 14.7884 13.6258C14.7882 13.6236 14.7881 13.6218 14.788 13.6205C14.788 13.6198 14.788 13.6193 14.7879 13.6189C14.7879 13.6187 14.7879 13.6185 14.7879 13.6184C14.7879 13.6183 14.7879 13.6182 14.7879 13.6182C14.7879 13.6181 14.7879 13.6181 14.2891 13.6527ZM13.6508 12.8837C13.689 12.9348 13.7385 13.0842 13.7665 13.305C13.7786 13.4003 13.7844 13.4883 13.787 13.5526C13.7883 13.5844 13.7888 13.6097 13.789 13.6262C13.7891 13.6345 13.7891 13.6405 13.7891 13.6441C13.7891 13.6459 13.7891 13.647 13.7891 13.6475C13.7891 13.6477 13.7891 13.6478 13.7891 13.6477C13.7891 13.6477 13.7891 13.6476 13.7891 13.6474C13.7891 13.6474 13.7891 13.6473 13.7891 13.6472C13.7891 13.6472 13.7891 13.6471 13.7891 13.6471C13.7891 13.647 13.7891 13.6469 14.2891 13.6527C14.789 13.6586 14.789 13.6585 14.789 13.6584C14.789 13.6584 14.789 13.6583 14.789 13.6582C14.789 13.6581 14.7891 13.6579 14.7891 13.6578C14.7891 13.6574 14.7891 13.6571 14.7891 13.6567C14.7891 13.6559 14.7891 13.6549 14.7891 13.6537C14.7891 13.6514 14.7891 13.6483 14.7891 13.6446C14.7891 13.6372 14.7891 13.627 14.7889 13.6144C14.7886 13.5893 14.7879 13.5543 14.7862 13.5117C14.7827 13.4271 14.7752 13.3097 14.7586 13.1791C14.7293 12.948 14.6599 12.5632 14.4516 12.2847L13.6508 12.8837ZM13.2767 12.7297C13.3318 12.7369 13.4175 12.7533 13.4997 12.7859C13.5849 12.8198 13.6306 12.8568 13.6509 12.8839L14.4514 12.2846C14.2808 12.0566 14.051 11.9289 13.8688 11.8565C13.6835 11.783 13.5099 11.7517 13.4061 11.7382L13.2767 12.7297ZM13.4812 11.3414C13.2695 11.443 13.088 11.6008 12.9725 11.7505C12.9229 11.8148 12.8405 11.9341 12.8124 12.085C12.7978 12.1637 12.7859 12.3193 12.8817 12.4761C12.9882 12.6506 13.1572 12.7141 13.2765 12.7297L13.4063 11.7382C13.4934 11.7496 13.6406 11.8002 13.7351 11.9549C13.8188 12.0919 13.8043 12.2208 13.7956 12.2676C13.7795 12.3546 13.7428 12.3891 13.7641 12.3615C13.7904 12.3274 13.8515 12.2729 13.9137 12.2431L13.4812 11.3414ZM15.6987 11.0918C15.27 11.0876 14.8539 11.0879 14.4892 11.1163C14.1338 11.144 13.7732 11.2014 13.4812 11.3414L13.9137 12.2431C14.0333 12.1857 14.2417 12.1386 14.5669 12.1133C14.8829 12.0887 15.2591 12.0875 15.6889 12.0917L15.6987 11.0918ZM16.9325 11.2152C16.6298 11.1431 16.3997 11.099 15.6989 11.0918L15.6886 12.0917C16.326 12.0983 16.4809 12.1356 16.701 12.188L16.9325 11.2152ZM17.8631 13.3202C17.8821 12.8584 17.9061 12.404 17.8173 12.0576C17.7675 11.8634 17.6761 11.6695 17.5086 11.51C17.3434 11.3527 17.1415 11.2647 16.932 11.2151L16.7015 12.1881C16.7953 12.2104 16.8186 12.2338 16.8191 12.2343C16.8202 12.2353 16.8228 12.2379 16.8272 12.2459C16.8321 12.255 16.8402 12.2732 16.8486 12.306C16.8918 12.4743 16.8859 12.7471 16.864 13.2791L17.8631 13.3202ZM17.8372 14.3402C17.8372 13.9532 17.8509 13.6176 17.8631 13.3202L16.864 13.2791C16.8518 13.5761 16.8372 13.9304 16.8372 14.3402H17.8372ZM17.8316 14.6373C17.8343 14.5407 17.8372 14.438 17.8372 14.3402H16.8372C16.8372 14.4215 16.8347 14.5097 16.832 14.6095L17.8316 14.6373ZM17.9111 15.5105C17.9251 15.5194 17.8778 15.5014 17.848 15.3105C17.8195 15.1279 17.8242 14.9034 17.8316 14.6373L16.832 14.6095C16.8252 14.8526 16.8146 15.1742 16.8599 15.4646C16.9039 15.7468 17.0193 16.1288 17.3751 16.3547L17.9111 15.5105ZM18.8891 13.9063C18.3596 14.7887 18.0165 15.2044 17.8128 15.3848C17.7114 15.4747 17.6772 15.4765 17.7023 15.47C17.749 15.4579 17.8323 15.4608 17.91 15.5098L17.3763 16.3555C17.5416 16.4598 17.7441 16.4924 17.9539 16.4378C18.142 16.3889 18.3147 16.2763 18.4761 16.1332C18.7981 15.8478 19.2047 15.3237 19.7465 14.4208L18.8891 13.9063ZM20.206 12.3223C19.739 12.1437 19.739 12.1437 19.739 12.1437C19.739 12.1437 19.739 12.1436 19.739 12.1436C19.739 12.1436 19.739 12.1436 19.739 12.1436C19.739 12.1436 19.739 12.1437 19.7389 12.1439C19.7388 12.1441 19.7386 12.1447 19.7383 12.1454C19.7378 12.1469 19.7368 12.1493 19.7355 12.1527C19.733 12.1593 19.729 12.1695 19.7236 12.1831C19.7129 12.2101 19.6969 12.2504 19.6759 12.3015C19.634 12.4039 19.5727 12.5497 19.496 12.7213C19.3415 13.0667 19.1286 13.507 18.8891 13.9063L19.7466 14.4208C20.0149 13.9736 20.2461 13.4933 20.4088 13.1296C20.4906 12.9467 20.5561 12.7909 20.6014 12.6804C20.624 12.625 20.6417 12.5809 20.6538 12.5503C20.6598 12.535 20.6645 12.523 20.6677 12.5147C20.6693 12.5105 20.6706 12.5072 20.6715 12.5049C20.6719 12.5038 20.6723 12.5028 20.6725 12.5022C20.6727 12.5018 20.6728 12.5015 20.6729 12.5013C20.6729 12.5012 20.6729 12.5011 20.673 12.501C20.673 12.501 20.673 12.5009 20.673 12.5009C20.673 12.5009 20.673 12.5008 20.206 12.3223ZM20.1651 11.638C20.0072 11.731 19.9042 11.865 19.8521 11.9406C19.8225 11.9836 19.7996 12.0225 19.7837 12.0512C19.7756 12.0658 19.7691 12.0782 19.7641 12.088C19.7617 12.0928 19.7596 12.0971 19.7578 12.1006C19.757 12.1023 19.7562 12.1039 19.7556 12.1053C19.7552 12.106 19.7549 12.1066 19.7546 12.1072C19.7545 12.1075 19.7543 12.1078 19.7542 12.1081C19.7541 12.1083 19.7541 12.1084 19.754 12.1085C19.754 12.1086 19.7539 12.1087 19.7539 12.1087C19.7539 12.1088 19.7538 12.1089 20.206 12.3223C20.6582 12.5357 20.6582 12.5358 20.6581 12.5358C20.6581 12.5359 20.6581 12.536 20.658 12.536C20.658 12.5362 20.6579 12.5363 20.6579 12.5364C20.6577 12.5366 20.6576 12.5369 20.6575 12.5371C20.6573 12.5375 20.6571 12.5379 20.657 12.5382C20.6566 12.539 20.6564 12.5395 20.6561 12.54C20.6557 12.5408 20.6555 12.5412 20.6556 12.5411C20.6557 12.5408 20.6567 12.5388 20.6586 12.5355C20.6624 12.5286 20.6685 12.5183 20.6759 12.5075C20.698 12.4754 20.7014 12.4827 20.6726 12.4996L20.1651 11.638ZM20.7296 12.015C20.7957 11.5194 20.7956 11.5194 20.7954 11.5194C20.7954 11.5194 20.7953 11.5194 20.7952 11.5193C20.795 11.5193 20.7948 11.5193 20.7946 11.5193C20.7943 11.5192 20.7939 11.5192 20.7935 11.5191C20.7927 11.519 20.7919 11.5189 20.791 11.5188C20.7893 11.5186 20.7873 11.5184 20.7852 11.5181C20.7809 11.5176 20.7758 11.5171 20.77 11.5165C20.7585 11.5154 20.7439 11.5142 20.7267 11.5132C20.6929 11.5114 20.6468 11.5105 20.5932 11.5137C20.4956 11.5197 20.3285 11.5421 20.1659 11.6375L20.6719 12.5001C20.6415 12.5179 20.6298 12.5134 20.6544 12.5119C20.662 12.5114 20.6688 12.5116 20.6725 12.5118C20.6742 12.5119 20.6745 12.5119 20.6732 12.5118C20.6726 12.5117 20.6715 12.5116 20.6699 12.5114C20.669 12.5113 20.6681 12.5112 20.667 12.5111C20.6665 12.511 20.6659 12.511 20.6653 12.5109C20.665 12.5108 20.6647 12.5108 20.6644 12.5108C20.6642 12.5107 20.6641 12.5107 20.6639 12.5107C20.6638 12.5107 20.6637 12.5107 20.6637 12.5107C20.6635 12.5106 20.6634 12.5106 20.7296 12.015ZM23.1321 11.5004L20.7265 11.515L20.7326 12.515L23.1382 12.5004L23.1321 11.5004ZM24.4448 12.0656C24.3519 11.8099 24.1501 11.6744 23.9963 11.6065C23.843 11.5388 23.6822 11.5121 23.5592 11.5002C23.4312 11.4879 23.3126 11.489 23.2286 11.4926C23.1858 11.4944 23.15 11.497 23.124 11.4992C23.1109 11.5003 23.1003 11.5013 23.0923 11.5022C23.0883 11.5026 23.0849 11.5029 23.0823 11.5032C23.081 11.5034 23.0799 11.5035 23.0789 11.5036C23.0784 11.5037 23.078 11.5037 23.0776 11.5037C23.0774 11.5038 23.0772 11.5038 23.0771 11.5038C23.077 11.5038 23.0769 11.5038 23.0768 11.5038C23.0767 11.5039 23.0766 11.5039 23.1351 12.0004C23.1937 12.497 23.1936 12.497 23.1935 12.497C23.1935 12.497 23.1933 12.497 23.1933 12.497C23.1932 12.497 23.193 12.4971 23.1929 12.4971C23.1927 12.4971 23.1926 12.4971 23.1924 12.4971C23.1922 12.4972 23.1921 12.4972 23.1921 12.4972C23.1922 12.4972 23.193 12.4971 23.1943 12.4969C23.197 12.4967 23.2019 12.4962 23.2089 12.4956C23.2229 12.4944 23.2445 12.4928 23.2713 12.4917C23.3266 12.4893 23.396 12.4891 23.4633 12.4956C23.5357 12.5026 23.5775 12.5147 23.5925 12.5214C23.6071 12.5278 23.5394 12.5021 23.5049 12.4069L24.4448 12.0656ZM23.1192 14.9465C23.6176 14.2945 23.9819 13.7497 24.2075 13.3124C24.32 13.0942 24.4067 12.8861 24.4544 12.6933C24.5002 12.5085 24.5242 12.2825 24.4444 12.0644L23.5053 12.4081C23.4869 12.3578 23.5078 12.3559 23.4838 12.4528C23.4617 12.5419 23.4118 12.6734 23.3186 12.8541C23.1327 13.2147 22.8092 13.7054 22.3247 14.3393L23.1192 14.9465ZM21.8748 16.6574C21.8758 16.6672 21.8606 16.5982 22.0913 16.2755C22.3122 15.9663 22.6327 15.5832 23.1192 14.9465L22.3247 14.3393C21.8789 14.9227 21.5063 15.3743 21.2777 15.694C21.0588 16.0003 20.8376 16.3546 20.8802 16.7617L21.8748 16.6574ZM22.6055 17.408C22.3128 17.1415 22.1221 16.9685 21.9956 16.8265C21.8691 16.6847 21.8734 16.6443 21.8748 16.6574L20.8802 16.7617C20.912 17.065 21.079 17.3011 21.2491 17.492C21.4192 17.6827 21.659 17.8986 21.9322 18.1475L22.6055 17.408ZM24.2796 19.3132C24.1748 19.1257 23.823 18.5176 22.6056 17.4082L21.9321 18.1473C23.0777 19.1914 23.3593 19.7164 23.4067 19.8011L24.2796 19.3132ZM24.2823 19.3186C24.2843 19.3218 24.2857 19.3241 24.286 19.3247C24.2865 19.3254 24.2865 19.3255 24.286 19.3246C24.2847 19.3224 24.283 19.3193 24.2796 19.3132L23.4067 19.8011C23.4101 19.8071 23.4216 19.8281 23.4326 19.8457L24.2823 19.3186ZM23.2697 20.5124C23.2999 21.0115 23.3001 21.0115 23.3003 21.0115C23.3004 21.0115 23.3006 21.0114 23.3008 21.0114C23.3011 21.0114 23.3014 21.0114 23.3017 21.0114C23.3024 21.0113 23.3031 21.0113 23.3039 21.0112C23.3055 21.0111 23.3074 21.011 23.3096 21.0108C23.3139 21.0105 23.3194 21.0101 23.3258 21.0095C23.3387 21.0084 23.3557 21.0067 23.3761 21.0043C23.4168 20.9994 23.4724 20.9913 23.5367 20.9781C23.6587 20.9531 23.8416 20.9037 24.0148 20.8023C24.1898 20.6999 24.4027 20.5144 24.4756 20.2068C24.5478 19.9024 24.4542 19.5984 24.2835 19.3205L23.4314 19.8438C23.5256 19.9972 23.491 20.0252 23.5026 19.9761C23.515 19.9238 23.5479 19.9169 23.5097 19.9392C23.4698 19.9626 23.4064 19.984 23.3355 19.9986C23.3033 20.0052 23.2757 20.0091 23.2573 20.0113C23.2482 20.0124 23.2418 20.013 23.2385 20.0133C23.2369 20.0135 23.2361 20.0135 23.2363 20.0135C23.2364 20.0135 23.2367 20.0135 23.2372 20.0135C23.2375 20.0134 23.2378 20.0134 23.2382 20.0134C23.2384 20.0134 23.2386 20.0134 23.2388 20.0134C23.2389 20.0133 23.2391 20.0133 23.2392 20.0133C23.2394 20.0133 23.2396 20.0133 23.2697 20.5124ZM21.1394 21.0415L23.2766 21.0123L23.2629 20.0124L21.1257 20.0416L21.1394 21.0415ZM19.7904 20.6382C20.1575 20.8856 20.494 20.9907 20.7534 21.0297C20.882 21.049 20.9896 21.0519 21.0705 21.0488C21.1109 21.0472 21.1446 21.0442 21.1711 21.0411C21.1843 21.0395 21.1957 21.0379 21.2052 21.0364C21.21 21.0356 21.2142 21.0349 21.218 21.0342C21.2199 21.0339 21.2217 21.0336 21.2233 21.0333C21.2242 21.0331 21.225 21.033 21.2257 21.0328C21.2261 21.0328 21.2265 21.0327 21.2269 21.0326C21.227 21.0326 21.2273 21.0325 21.2274 21.0325C21.2277 21.0325 21.2279 21.0324 21.1326 20.5416C21.0372 20.0508 21.0375 20.0507 21.0377 20.0507C21.0378 20.0506 21.0381 20.0506 21.0382 20.0506C21.0386 20.0505 21.0389 20.0504 21.0392 20.0504C21.0399 20.0502 21.0405 20.0501 21.0411 20.05C21.0423 20.0498 21.0434 20.0496 21.0445 20.0494C21.0465 20.0491 21.0481 20.0488 21.0493 20.0486C21.0518 20.0482 21.0528 20.0481 21.0523 20.0482C21.0513 20.0483 21.0445 20.049 21.0325 20.0495C21.0085 20.0504 20.9637 20.0501 20.9022 20.0408C20.7812 20.0226 20.5863 19.9687 20.3493 19.8089L19.7904 20.6382ZM18.7758 19.6631C19.0574 19.98 19.4107 20.3826 19.7906 20.6383L20.3491 19.8088C20.096 19.6384 19.8309 19.3449 19.5234 18.9989L18.7758 19.6631ZM18.0783 18.9449C17.9925 18.9717 17.9983 18.9012 18.1883 19.0558C18.3547 19.1912 18.542 19.3999 18.7758 19.6631L19.5234 18.9989C19.3074 18.7558 19.062 18.4776 18.8195 18.2802C18.6006 18.1021 18.2213 17.853 17.7808 17.9902L18.0783 18.9449ZM17.352 19.9125C17.852 19.9053 17.852 19.9054 17.852 19.9055C17.852 19.9056 17.852 19.9057 17.852 19.9057C17.852 19.9058 17.852 19.9059 17.852 19.906C17.852 19.9062 17.852 19.9063 17.852 19.9063C17.852 19.9063 17.852 19.9061 17.852 19.9055C17.852 19.9044 17.852 19.9023 17.852 19.899C17.852 19.8925 17.852 19.8819 17.8523 19.8676C17.8529 19.8391 17.8542 19.7965 17.8575 19.7443C17.8642 19.6382 17.8784 19.4999 17.9071 19.361C17.9367 19.218 17.9767 19.0997 18.0226 19.0191C18.0682 18.9389 18.093 18.9403 18.0785 18.9448L17.7806 17.9903C17.4683 18.0877 17.272 18.3162 17.1535 18.5244C17.0353 18.7321 16.9682 18.9635 16.9278 19.1584C16.8866 19.3576 16.8681 19.5456 16.8595 19.6814C16.8552 19.7501 16.8533 19.8073 16.8525 19.8484C16.8521 19.8689 16.852 19.8855 16.852 19.8975C16.852 19.9036 16.852 19.9085 16.852 19.9122C16.852 19.914 16.852 19.9156 16.852 19.9168C16.852 19.9174 16.852 19.918 16.8521 19.9184C16.8521 19.9187 16.8521 19.9189 16.8521 19.9191C16.8521 19.9192 16.8521 19.9193 16.8521 19.9194C16.8521 19.9195 16.8521 19.9196 17.352 19.9125ZM17.5843 20.6689C17.752 20.4918 17.8075 20.2729 17.8291 20.156C17.8415 20.0888 17.8471 20.0298 17.8497 19.9872C17.851 19.9656 17.8516 19.9473 17.8519 19.9332C17.852 19.9262 17.852 19.9201 17.852 19.9152C17.852 19.9127 17.852 19.9105 17.852 19.9086C17.852 19.9077 17.852 19.9068 17.852 19.906C17.852 19.9056 17.852 19.9052 17.852 19.9048C17.852 19.9046 17.852 19.9044 17.852 19.9043C17.852 19.9042 17.8519 19.9041 17.8519 19.904C17.8519 19.9039 17.8519 19.9038 17.352 19.9125C16.8521 19.9212 16.8521 19.921 16.8521 19.9209C16.8521 19.9209 16.8521 19.9208 16.8521 19.9207C16.8521 19.9205 16.8521 19.9204 16.8521 19.9202C16.8521 19.9199 16.8521 19.9196 16.8521 19.9193C16.8521 19.9188 16.8521 19.9183 16.8521 19.9179C16.852 19.917 16.852 19.9163 16.852 19.9159C16.852 19.9149 16.852 19.9148 16.852 19.9154C16.852 19.9167 16.8519 19.9206 16.8516 19.9264C16.8508 19.9388 16.8491 19.9562 16.8458 19.9743C16.8359 20.0279 16.826 20.0152 16.8584 19.9811L17.5843 20.6689Z" fill="white"/>
</svg>
